/* XPM */ 
static const unsigned char * right_arrow_xpm[] = {
"32 32 156 2",
"  	c None",
"! 	c black",
"# 	c #E6ABAB",
"$ 	c #E47777",
"% 	c #E36161",
"& 	c #E46B6B",
"' 	c #E49191",
"( 	c #E9CACA",
") 	c #EDBFBF",
"* 	c #E66767",
"+ 	c #EC1B1B",
", 	c #F60000",
"- 	c #FD0000",
". 	c #FF0000",
"0 	c #FA0000",
"1 	c #F10000",
"2 	c #E63838",
"3 	c #E5A8A8",
"4 	c #E6E4E4",
"5 	c #CB9595",
"6 	c #C43333",
"7 	c #D92424",
"8 	c #ED0202",
"9 	c #F90000",
": 	c #FF0202",
"; 	c #FE0707",
"< 	c #FE0404",
"= 	c #FF0404",
"> 	c #FF0101",
"? 	c #E64747",
"@ 	c #EEDADA",
"A 	c #E9B9B9",
"B 	c #DE9E9E",
"C 	c #EADBDB",
"D 	c #C96363",
"E 	c #BB1212",
"F 	c #BC0000",
"G 	c #C85858",
"H 	c #E5B6B6",
"I 	c #E35B5B",
"J 	c #EF0707",
"K 	c #FE0000",
"L 	c #FE0202",
"M 	c #F01515",
"N 	c #E37878",
"O 	c #E83535",
"P 	c #F40000",
"Q 	c #E35D5D",
"R 	c #DFAFAF",
"S 	c #C10F0F",
"T 	c #CA0000",
"U 	c #D20000",
"V 	c #C41E1E",
"W 	c #EBD3D3",
"X 	c #E54A4A",
"Y 	c #FE0303",
"Z 	c #E58989",
"[ 	c #E0B8B8",
"] 	c #C10000",
"^ 	c #CF0000",
"_ 	c #CE0808",
"` 	c #C50000",
"a 	c #D48D8D",
"b 	c #E19E9E",
"c 	c #F20808",
"d 	c #FF0303",
"e 	c #FE0505",
"f 	c #F80000",
"g 	c #E5A2A2",
"h 	c #F0E9E9",
"i 	c #C11717",
"j 	c #CE0000",
"k 	c #CB0202",
"l 	c #C10909",
"m 	c #F0DDDD",
"n 	c #EA9D9D",
"o 	c #E65858",
"p 	c #F30909",
"q 	c #F50000",
"r 	c #E8BDBD",
"s 	c #CF7777",
"t 	c #C80000",
"u 	c #CD0303",
"v 	c #CC0202",
"w 	c #CC0000",
"x 	c #C43B3B",
"y 	c #D58B8B",
"z 	c #E40808",
"{ 	c #FB0000",
"| 	c #F10202",
"} 	c #ECD6D6",
"~ 	c #C21A1A",
" !	c #CE0101",
"!!	c #CB0101",
"#!	c #CC0404",
"$!	c #C90000",
"%!	c #CC6A6A",
"&!	c #E39797",
"'!	c #E73232",
"(!	c #FE0101",
")!	c #ED1010",
"*!	c #DEB7B7",
"+!	c #C40000",
",!	c #CE0202",
"-!	c #CD0505",
".!	c #C60000",
"0!	c #D38A8A",
"1!	c #E7B9B9",
"2!	c #E35252",
"3!	c #EF0606",
"4!	c #FC0000",
"5!	c #E92323",
"6!	c #D07E7E",
"7!	c #C70000",
"8!	c #CD0000",
"9!	c #CE0404",
":!	c #D69A9A",
";!	c #EBD6D6",
"<!	c #E37777",
"=!	c #EA1D1D",
">!	c #F70000",
"?!	c #E93B3B",
"@!	c #C95858",
"A!	c #CC0303",
"B!	c #D69999",
"C!	c #E49F9F",
"D!	c #E73131",
"E!	c #DE5454",
"F!	c #C64646",
"G!	c #CB0000",
"H!	c #D28888",
"I!	c #EFE5E5",
"J!	c #C54343",
"K!	c #CD0404",
"L!	c #CD6B6B",
"M!	c #C64B4B",
"N!	c #C64444",
"O!	c #CB6161",
"P!	c #C11414",
"Q!	c #CF0202",
"R!	c #C20000",
"S!	c #E0C0C0",
"T!	c #DFBBBB",
"U!	c #C30000",
"V!	c #CD0808",
"W!	c #CC6262",
"X!	c #C21313",
"Y!	c #C04141",
"Z!	c #C85252",
"[!	c #C21212",
"]!	c #CA5E5E",
"^!	c #DEBABA",
"_!	c #DDB0B0",
"`!	c #BE3636",
"a!	c #D69696",
"b!	c #EDE7E7",
"                                                                ",
"                                                                ",
"                                                                ",
"                                                                ",
"                                                                ",
"                              # $ % & ' (                       ",
"                        ) * + , - . . 0 1 2 3                   ",
"                  4 5 6 7 8 9 . : ; < = > . , ? @     A B       ",
"              C D E F G     H I J . : K K L = . M N O P Q       ",
"            R S T U V           W X 9 . K . K Y . K . L Z       ",
"          [ ] ^ _ ` a               b c L K K . K d e f g       ",
"        h i j k ^ l             m n o p K K K . . . d q r       ",
"        s t u v w x             y z { . : Y K . K K . | }       ",
"        ~  !!!#!$!%!                &!'!P . . d (!- . )!        ",
"      *!+!,!w -!.!0!                    1!2!3!4!. < L 5!        ",
"      6!7!-!8!9!` :!                        ;!<!=!>!. ?!        ",
"      @!T A!w 9!` B!                              C!D!E!        ",
"      F!G!A!8!-!.!H!                                  I!        ",
"      J!w k 8!K!$!L!                                            ",
"      M!G!A!8!A!G!N!                                            ",
"      O!$!#!w G!j P!                                            ",
"      H!7!K!8!w Q!R!S!                                          ",
"      T!U!,!w w V!k W!                                          ",
"        X!,!K!^ T +!Y!                                          ",
"        Z!G!7![!]!^!                                            ",
"        _!`!a!b!                                                ",
"                                                                ",
"                                                                ",
"                                                                ",
"                                                                ",
"                                                                ",
"                                                                "};