/* XPM */ 
static char * rescan_xpm[] = {
"60 20 103 2",
"  	c None",
"! 	c black",
"# 	c #CED8EA",
"$ 	c #7F98CB",
"% 	c #5085CB",
"& 	c #708CC5",
"' 	c #9EB2D7",
"( 	c #FEFEFD",
") 	c white",
"* 	c #FDFDFC",
"+ 	c #6F8CC4",
", 	c #3F66B2",
"- 	c #447BC5",
". 	c #105EBD",
"0 	c #0070D5",
"1 	c #0064CA",
"2 	c #2056AF",
"3 	c #CDD6EA",
"4 	c #FCFCFB",
"5 	c #8DA4D1",
"6 	c #004BB1",
"7 	c #0066CC",
"8 	c #1052B2",
"9 	c #CDD6E9",
": 	c #FCFBFA",
"; 	c #FBFBFA",
"< 	c #6E8BC4",
"= 	c #0063C9",
"> 	c #3F6CB8",
"? 	c #BBC8E0",
"@ 	c #1045A5",
"A 	c #EAEEF3",
"B 	c #FBFAF9",
"C 	c #FAFAF8",
"D 	c #BBC8E1",
"E 	c #0059BF",
"F 	c #0051B7",
"G 	c #CAD4E6",
"H 	c #003DA3",
"I 	c #0087EC",
"J 	c #2F62B4",
"K 	c #E9EDF1",
"L 	c #F9F9F7",
"M 	c #8CA2CE",
"N 	c #E8ECEF",
"O 	c #0091F7",
"P 	c #0088ED",
"Q 	c #006CD2",
"R 	c #5D80BF",
"S 	c #C9D3E4",
"T 	c #F7F6F4",
"U 	c #2B9BF2",
"V 	c #0093F9",
"W 	c #0084E9",
"X 	c #0073D9",
"Y 	c #8BA0CC",
"Z 	c #9AADD2",
"[ 	c #C9D2E3",
"] 	c #3063B6",
"^ 	c #0090F6",
"_ 	c #007EE4",
"` 	c #F6F5F2",
"a 	c #6C88C1",
"b 	c #99ACD1",
"c 	c #F5F5F2",
"d 	c #F5F4F1",
"e 	c #7A93C5",
"f 	c #0083E9",
"g 	c #007AE0",
"h 	c #3D66B2",
"i 	c #6B88C0",
"j 	c #F4F4F1",
"k 	c #C5CFDF",
"l 	c #0065CA",
"m 	c #0076DC",
"n 	c #0050B6",
"o 	c #D5DBE4",
"p 	c #F3F2EF",
"q 	c #E5E7EA",
"r 	c #7992C4",
"s 	c #F2F1EE",
"t 	c #3D6CB8",
"u 	c #006BD1",
"v 	c #0060C6",
"w 	c #7992C3",
"x 	c #F2F2EE",
"y 	c #E2E4E7",
"z 	c #2D60B3",
"{ 	c #0053B9",
"| 	c #5B7DBC",
"} 	c #B5C1D7",
"~ 	c #F1F0ED",
" !	c #D3D8E2",
"!!	c #E1E3E6",
"#!	c #5A7DBB",
"$!	c #0049AF",
"%!	c #0056BC",
"&!	c #003399",
"'!	c #3C62AE",
"(!	c #D2D7E1",
")!	c #F0F0EA",
"*!	c #E1E4E5",
"+!	c #B4C1D6",
"                                                                                                                        ",
"                                                                                                                        ",
"              # $ % & ' ( )                                                                                             ",
"          * + , - . 0 1 2 3                                                                                             ",
"                4 4 5 6 7 8 9                                                                                           ",
"                  : ; < = = >             ! ! ! ! !                                                                     ",
"        ? @ A B C   C D E 7 F             !         !                                                                   ",
"      G H I J K L L L M E 7 F             !         !                                                                   ",
"    N H O P Q R ) S H E 7 7 = E H H       !         !       ! ! !       ! !       ! ! !       ! ! !     !   ! !         ",
"  T H U V W X H Y   Z H 7 7 7 H [ T       ! ! ! ! !       !       !   !     !   !       !           !   ! !     !       ",
"  H ] ] ^ _ F H H   ` a H 7 H b c         !         !     ! ! ! ! !     !       !             ! ! ! !   !       !       ",
"    d e f g F         d h H i j           !         !     !               !     !           !       !   !       !       ",
"      k l m n o       p q r p             !         !     !       !   !     !   !       !   !       !   !       !       ",
"      s t u v w x                         !         !       ! ! !       ! !       ! ! !       ! ! ! !   !       !       ",
"        y z v { | } ~  !}                                                                                               ",
"          !!#!$!%!$!&!'!(!                                                                                              ",
"            )!*!+!+!*!)!                                                                                                ",
"                                                                                                                        ",
"                                                                                                                        ",
"                                                                                                                        "};