/* XPM */ 
static char * study_xpm[] = {
"24 24 5 1",
" 	c None",
"!	c black",
"#	c white",
"$	c #FF0000",
"%	c #808080",
"  !!!!!!!!!!!!!!!!!!!!  ",
" !!!!!!!!!!!!!!!!!!!!!! ",
"!!####################!!",
"!!#$#%%%%%##%%%%%#####!!",
"!!####################!!",
"!!#$#%%%%%%%%%%%######!!",
"!!####################!!",
"!!#$#%%%%#%%%%%#%%%%%#!!",
"!!####################!!",
"!!#$#%%%%%#%%%%%%%%%##!!",
"!!####################!!",
"!!#$#%%%%%%%%#%%%%#%%#!!",
"!!####################!!",
"!!#$#%%%%#%%%%########!!",
"!!####################!!",
"!!#$#%%%%%%%##########!!",
"!!####################!!",
"!!#$#%%%%%%%%%%#######!!",
"!!####################!!",
"!!#$#%%%%%#%%%%%%#####!!",
"!!####################!!",
"!!####################!!",
" !!!!!!!!!!!!!!!!!!!!!! ",
"  !!!!!!!!!!!!!!!!!!!!  "};