/* XPM */ 
static const char * s3drotation_xpm[] = {
"32 32 4 1",
" 	c None",
"!	c black",
"#	c #00003F",
"$	c #000080",
"                                ",
"               !!!              ",
"           !!#!! !              ",
"       !!#!! $   !              ",
"   !!#!! $   $   !              ",
" !!! $   $   $ $$#              ",
" !   $   $ $$$$$ !              ",
" !   $ $$$$$ $   !              ",
" ! $$$$$ $   $   !              ",
" #$$ $   $   $ $$#              ",
" !   $   $ $$$$$ !              ",
" !   $ $$$$$ $   !              ",
" ! $$$$$ $   $   !              ",
" #$$ $   $   $ $$#              ",
" !   $   $ $$$$$ !              ",
" !   $ $$$$$ $   !              ",
" ! $$$$$ $   $   !          !   ",
" #$$ $   $   $ $$#   !!!!  !!!  ",
" !   $   $ $$$$$ !   !!!  ! ! ! ",
" !   $ $$$$$ $   !   ! !    !   ",
" ! $$$$$ $   $   !   !  !  !    ",
" #$$ $   $   $   !       ! !    ",
" !   $   $   $ !!!       !!!    ",
" !   $   $ !!#!!          !     ",
" !   $ !!#!!             !!     ",
" ! !!#!!             !  !  !    ",
" !!!                !  !   !    ",
"                    !!!  ! ! !  ",
"                   !!     !!!   ",
"                    !!     !    ",
"                      !         ",
"                                "};