/* XPM */ 
static char * brain_xpm[] = {
"16 16 21 1",
" 	c None",
"!	c black",
"#	c #222222",
"$	c #777777",
"%	c #292929",
"&	c #393939",
"'	c #969696",
"(	c #555555",
")	c #333333",
"*	c #4D4D4D",
"+	c #424242",
",	c #666666",
"-	c #5F5F5F",
".	c #808080",
"0	c #868686",
"1	c #1C1C1C",
"2	c #EAEAEA",
"3	c #E3E3E3",
"4	c white",
"5	c #999999",
"6	c #D7D7D7",
"!!!!!!#$%&$'!!!!",
"!!!!(&)*++(,$#!!",
"!!!$&(--,(,.&(#!",
"!!$),-,$$.$00-$!",
"!!&,$,,'-0$00,-!",
"!%%,,0*-.(''(0%!",
"!+%--$($''.,0(+!",
"!!,*+$&*00'.--#!",
"!#**)*##-000$.$!",
"#-*-**&(..0-#,-!",
"+&&%+%#1,+*203#!",
"!%+)*(+$*&*$44#!",
"!%%(**--*+*,56!!",
"!!+*&++*%+),()#!",
"!!)%)&**#%))*%#!",
"!!!!!!!!!!!!!!!!"};