/* XPM */ 
static const char * brain3view_xpm[] = {
"32 32 203 2",
"  	c None",
"! 	c black",
"# 	c #DBDBDB",
"$ 	c #C4C4C4",
"% 	c #C0C0C0",
"& 	c #C7C7C7",
"' 	c #F2F2F2",
"( 	c #FAFAFA",
") 	c #E1E1E1",
"* 	c #D9D9D9",
"+ 	c #E6E6E6",
", 	c #F7F7F7",
"- 	c #969696",
". 	c #909090",
"0 	c #9E9E9E",
"1 	c #9D9D9D",
"2 	c #8E8E8E",
"3 	c #848484",
"4 	c #B2B2B2",
"5 	c #8B8B8B",
"6 	c #878787",
"7 	c #8F8F8F",
"8 	c #9A9A9A",
"9 	c #8C8C8C",
": 	c #8A8A8A",
"; 	c #7C7C7C",
"< 	c #8D8D8D",
"= 	c #7D7D7D",
"> 	c #A8A8A8",
"? 	c #D4D4D4",
"@ 	c #A9A9A9",
"A 	c #D3D3D3",
"B 	c #A4A4A4",
"C 	c #747474",
"D 	c #B5B5B5",
"E 	c #DFDFDF",
"F 	c #999999",
"G 	c #CFCFCF",
"H 	c #CECECE",
"I 	c #676767",
"J 	c #B4B4B4",
"K 	c #979797",
"L 	c #ADADAD",
"M 	c #BFBFBF",
"N 	c #535353",
"O 	c #404040",
"P 	c #686868",
"Q 	c #333333",
"R 	c #585858",
"S 	c #CCCCCC",
"T 	c #838383",
"U 	c #D1D1D1",
"V 	c #ABABAB",
"W 	c #717171",
"X 	c #EDEDED",
"Y 	c #BABABA",
"Z 	c #6C6C6C",
"[ 	c #444444",
"] 	c #323232",
"^ 	c #616161",
"_ 	c #5D5D5D",
"` 	c #929292",
"a 	c #C3C3C3",
"b 	c #CACACA",
"c 	c #7B7B7B",
"d 	c #C5C5C5",
"e 	c #9F9F9F",
"f 	c #1E1E1E",
"g 	c #353535",
"h 	c #565656",
"i 	c #0A0A0A",
"j 	c #2C2C2C",
"k 	c #696969",
"l 	c #AEAEAE",
"m 	c #E8E8E8",
"n 	c #BCBCBC",
"o 	c #B6B6B6",
"p 	c #6D6D6D",
"q 	c #383838",
"r 	c #242424",
"s 	c #1F1F1F",
"t 	c #141414",
"u 	c #2F2F2F",
"v 	c #252525",
"w 	c #3F3F3F",
"x 	c #4A4A4A",
"y 	c #B9B9B9",
"z 	c #888888",
"{ 	c #FCFCFC",
"| 	c #111111",
"} 	c #010101",
"~ 	c #1B1B1B",
" !	c #232323",
"!!	c #080808",
"#!	c #858585",
"$!	c #868686",
"%!	c #DDDDDD",
"&!	c #646464",
"'!	c #030303",
"(!	c #151515",
")!	c #0C0C0C",
"*!	c #2A2A2A",
"+!	c #777777",
",!	c #7E7E7E",
"-!	c #AFAFAF",
".!	c #313131",
"0!	c #090909",
"1!	c #222222",
"2!	c #0F0F0F",
"3!	c #101010",
"4!	c #9C9C9C",
"5!	c #3C3C3C",
"6!	c #131313",
"7!	c #454545",
"8!	c #292929",
"9!	c #636363",
":!	c #424242",
";!	c #5F5F5F",
"<!	c #0B0B0B",
"=!	c #060606",
">!	c #575757",
"?!	c #434343",
"@!	c #595959",
"A!	c #5B5B5B",
"B!	c #727272",
"C!	c #9B9B9B",
"D!	c #191919",
"E!	c #4E4E4E",
"F!	c #393939",
"G!	c #3B3B3B",
"H!	c #808080",
"I!	c #757575",
"J!	c #262626",
"K!	c #050505",
"L!	c #040404",
"M!	c #202020",
"N!	c #3A3A3A",
"O!	c #3D3D3D",
"P!	c #D8D8D8",
"Q!	c #5C5C5C",
"R!	c #C1C1C1",
"S!	c #363636",
"T!	c #7F7F7F",
"U!	c #BBBBBB",
"V!	c #C8C8C8",
"W!	c #737373",
"X!	c #181818",
"Y!	c #525252",
"Z!	c #666666",
"[!	c #414141",
"]!	c #898989",
"^!	c white",
"_!	c #919191",
"`!	c #939393",
"a!	c #D6D6D6",
"b!	c #A6A6A6",
"c!	c #E4E4E4",
"d!	c #5E5E5E",
"e!	c #4B4B4B",
"f!	c #474747",
"g!	c #626262",
"h!	c #AAAAAA",
"i!	c #797979",
"j!	c #6B6B6B",
"k!	c #4C4C4C",
"l!	c #020202",
"m!	c #B7B7B7",
"n!	c #B0B0B0",
"o!	c #5A5A5A",
"p!	c #A7A7A7",
"q!	c #A0A0A0",
"r!	c #767676",
"s!	c #A1A1A1",
"t!	c #A3A3A3",
"u!	c #A5A5A5",
"v!	c #B1B1B1",
"w!	c #EAEAEA",
"x!	c #BEBEBE",
"y!	c #EFEFEF",
"z!	c #2B2B2B",
"{!	c #4D4D4D",
"|!	c #7A7A7A",
"}!	c #6E6E6E",
"~!	c #121212",
" #	c #6F6F6F",
"!#	c #949494",
"##	c #4F4F4F",
"$#	c #282828",
"%#	c #707070",
"&#	c #818181",
"'#	c #2D2D2D",
"(#	c #989898",
")#	c #272727",
"*#	c #373737",
"+#	c #161616",
",#	c #CBCBCB",
"-#	c #464646",
".#	c #212121",
"0#	c #070707",
"1#	c #2E2E2E",
"2#	c #787878",
"3#	c #494949",
"4#	c #555555",
"          # $ % & '                   ( ) * * + ,               ",
"      ) - . 0 1 2 3 4               5 6 7 8 2 9 : ; < #         ",
"    + = > ? @ $ A & 3 B         0 C D $ E F 1 D G H 7 I J       ",
"    K L M N O P Q R S T U     V W X Y P Z [ ] ^ _ ` a b c d     ",
"  $ 1 e ] f g h i j k l K   m W n o p q r s t u v w x = y z {   ",
"  . 6 ] | } ~  !!!i v #!$!%!D 6 @ &!r  !'!'!!!(!i )!*!O +!,!-!  ",
"%!W 2 O .!0!1!~ 2!3! !^ c -!4!#!5!| } ! 3!6!r .!g 7!8! !9!e Z   ",
"Y :!8 2 ;!i !!<!=!| >!T W F 2 6 ] t ! ! } } s ?!@!>!A!B!z ;!C!  ",
"z D!K ;!E!x u q F!O G!H!x 0 F I!J!K!'!K!! L!i <!M!N!c Z c O!P!  ",
"V <!N F x Q!-!R!9!S![ T!s U!V!W!;!X!u [ ?!Y!$!Z![!;!e ]!I F!W   ",
"P!x ;!= 2 ` , ^!_!5 Y `!Q a!  #!4 b!2 I!R c ' c!#!8 c 4 d!e!6!U ",
"  f!I k W < # & 4!6 _!p  !#   b g!Y h!i!P < d % j!T #!J 1 k!l!l ",
"  j!T!e 9!d!G m!R p 5 P N!(     n!o!p!? U!n q!r!_ K S V a w =!4!",
"  s!` A 4!c 4!1 g!]!t!s!]!        . O!u!A D u!v!n b %!w!P!?!M!@ ",
"  w!b ^!%!d o x!$ E ^!b c!          # c!, ( { {           y!m { ",
"    ( D 8 L % & 4!T!@                                           ",
"    _!- a D n!I!q!-!k n!                                        ",
"  o k -!;!z!x X!M!{!|!d!)                                       ",
"  W k N q | O!j ! J!{!}!`!                                      ",
"X o!= z!v ! D!~!! f u c  #X                                     ",
"$ _ !###$#! )!2!! J!5!k %#J                                     ",
"p!&#&#F! !! M!'#! 2!] u = 9                                     ",
"(#< H!{!t ! !!i ! L!] )#I =                                     ",
"1 H!Q!>!M!! =!6!! } *#w c i!'                                   ",
"l 5 u!^ *!i J!8!G!+#'#u %#,!X                                   ",
",#c d!v )!-#q ! .#| !!u 9!c                                     ",
"{ H! #'#'!'!=!J!0#! 0#k!2 I!                                    ",
"  1 #!g!X!6! !5!M!t 1#2#5 $!                                    ",
"  ) T!|!5!j ?!;!3#1!3#- k H                                     ",
"    a #!!#W!O!4#3#;!$!&#D                                       ",
"      S . ` 7 `!z 2 7 H                                         ",
"          G x!m!M +                                             "};