/* XPM */ 
static char * closedfolder_xpm[] = {
"32 32 120 2",
"  	c None",
"! 	c black",
"# 	c #EC9C9B",
"$ 	c #E1B362",
"% 	c #E4CA78",
"& 	c #E8D086",
"' 	c #EEDCA5",
"( 	c #F3E8C4",
") 	c #E1A478",
"* 	c #E1C365",
"+ 	c #FFFDED",
", 	c #FFFEE3",
"- 	c #FFFFCA",
". 	c #FFFFB2",
"0 	c #F6EBCB",
"1 	c #B78D6A",
"2 	c #D5AC1E",
"3 	c #E9968E",
"4 	c #EAA58F",
"5 	c #DFBD55",
"6 	c #FEF6E3",
"7 	c #FFFDAC",
"8 	c #FFFFA2",
"9 	c #FFFCDB",
": 	c #EED99D",
"; 	c #DBA783",
"< 	c #E8CF82",
"= 	c #EBD48F",
"> 	c #F3E4B9",
"? 	c #FFFFBF",
"@ 	c #E4C95C",
"A 	c #A0873A",
"B 	c #E8CD7E",
"C 	c #FFFED5",
"D 	c #FFFDC3",
"E 	c #F6EC98",
"F 	c #F3E785",
"G 	c #E8D055",
"H 	c #E8C246",
"I 	c #DCB82C",
"J 	c #DCB746",
"K 	c #E4C975",
"L 	c #EBD593",
"M 	c #D28A6F",
"N 	c #F2E2B2",
"O 	c #FCF996",
"P 	c #DBB12B",
"Q 	c #FFFEF9",
"R 	c #FFFEF5",
"S 	c #FFEEC5",
"T 	c #F3E1AD",
"U 	c #FFFC9D",
"V 	c #DFBE36",
"W 	c #FFEBAA",
"X 	c #FFF3D3",
"Y 	c #938148",
"Z 	c #F3DEA6",
"[ 	c #FFF5A7",
"] 	c #FFF494",
"^ 	c #F9EC86",
"_ 	c #F3E174",
"` 	c #E8CC50",
"a 	c #E1C13E",
"b 	c #DBB124",
"c 	c #FFE9A4",
"d 	c #FFF4CC",
"e 	c #E8D07D",
"f 	c #877B54",
"g 	c #EACA6F",
"h 	c #FEE894",
"i 	c #E3BD3B",
"j 	c #FFE89C",
"k 	c #FEF2C3",
"l 	c #DFBE4F",
"m 	c #7B7461",
"n 	c #E8C669",
"o 	c #DCB83D",
"p 	c #6E6E6E",
"q 	c #FFF3BD",
"r 	c #C7A01F",
"s 	c #E8C664",
"t 	c #FFEC8B",
"u 	c #FFF3B7",
"v 	c #B7931F",
"w 	c #E1BA4B",
"x 	c #DDB53A",
"y 	c #FFE484",
"z 	c #F3DC84",
"{ 	c #AC8D2C",
"| 	c #DCB333",
"} 	c #F3DC7F",
"~ 	c #EAA180",
" !	c #EAC44E",
"!!	c #8D7E4E",
"#!	c #EE9994",
"$!	c #D3A30C",
"%!	c #FFDD7C",
"&!	c #DBAC1E",
"'!	c #747168",
"(!	c #E58D78",
")!	c #BE9618",
"*!	c #F3D264",
"+!	c #C49A11",
",!	c #FFE59C",
"-!	c #F9D66F",
".!	c #F2CA5A",
"0!	c #A58A34",
"1!	c #E4C35A",
"2!	c #FFDF8A",
"3!	c #F6CF64",
"4!	c #E1B632",
"5!	c #D5A712",
"6!	c #FFDC86",
"7!	c #FFD574",
"8!	c #E8BB3E",
"9!	c #C79D19",
":!	c #B29026",
";!	c #9A8440",
"<!	c #81785B",
"=!	c #DCAE25",
"                                                                ",
"                                                                ",
"                                                                ",
"                                                                ",
"            # $ % & ' ( )                                       ",
"          * + , - - . - 0 1           2 3 3 4 * 5               ",
"        # 6 7 8 8 8 8 8 9 : ; 4 < = > 0 9 9 - ? @ A A           ",
"        B C 8 8 8 8 8 8 8 C 9 D D E F G H I 2 J K & L M         ",
"        N . 8 8 8 8 8 8 8 O H P J * & N ( Q Q R S 6 ( A         ",
"        T 7 U U U U U U U V < R + + + , , , , , W X L Y         ",
"        Z [ ] ] ^ _ ` a b K + 9 C C C C C C C C c d e f         ",
"        g h i P J B : > + , - - - - - - - - - - j k l m         ",
"        n g B , C - - D ? ? ? ? ? ? ? ? ? ? ? ? h k o p         ",
"        n n N . . . . . . . . . . . . . . . . . h q r p         ",
"        s s N 8 8 8 8 8 8 8 8 8 8 8 8 8 8 8 8 8 t u v p         ",
"        w x T U U U U U U U U U U U U U U U U U y z { p         ",
"        | | k U U U U U U U U U U U U U U U U U y } A p         ",
"        ~ | d ] ] ] ] ] ] ] ] ] ] ] ] ] ] ] ] ] y  !!!p         ",
"        #!P k ] ] ] ] ] ] ] ] ] ] ] ] ] ] ] ] ] y  !f p         ",
"        #!$!k t t t t t t t t t t t t t t t t t %!&!'!p         ",
"        (!P W t t t t t t t t t t t t t t t t t %!&!p           ",
"        (!x W y y y y y y y y y y y y y y y y y %!)!p           ",
"        (!x c y y y y y y y y y y y y y y *!H b +!A p           ",
"        (!| ,!%!%!%!%!%!%!%!%!%!-!.!i &!)!0!!!m p p             ",
"        (!1!2!%!%!%!%!%!3! !4!5!v A f p p p                     ",
"        (!s 6!7!.!8!P 9!:!;!<!p p p                             ",
"        (!| =!)!{ Y m p p                                       ",
"          p p p p                                               ",
"                                                                ",
"                                                                ",
"                                                                ",
"                                                                "};