/* XPM */ 
static const char * close16_xpm[] = {
"16 16 74 1",
" 	c None",
"!	c black",
"#	c #F9B09A",
"$	c #FAB69F",
"%	c #F7DFDD",
"&	c #F55E39",
"'	c #FA2607",
"(	c #F8AD99",
")	c #F89F81",
"*	c #FA380C",
"+	c #FA2200",
",	c #FAAE9A",
"-	c #FCFCFA",
".	c #F68164",
"0	c #F8A486",
"1	c #EE9985",
"2	c #F63C17",
"3	c #F52001",
"4	c #FAA994",
"5	c #FBE7E3",
"6	c #F86C4A",
"7	c #F57452",
"8	c #F6C6B8",
"9	c #F0441F",
":	c #EE1A00",
";	c #F9AE9B",
"<	c #F9CFBF",
"=	c #F13E15",
">	c #F56848",
"?	c #EBD6D0",
"@	c #E4553D",
"A	c #E92901",
"B	c #EF3007",
"C	c #F28469",
"D	c #FBEFEB",
"E	c #FEFAF5",
"F	c #EC714F",
"G	c #E22500",
"H	c #E02100",
"I	c #F0AB99",
"J	c #F8D7CD",
"K	c #EB5F3C",
"L	c #DC1C00",
"M	c #ED9680",
"N	c #EB7556",
"O	c #D91A04",
"P	c #EFA595",
"Q	c #F19B86",
"R	c #DF4022",
"S	c #D71600",
"T	c #E98A74",
"U	c #F7C4B2",
"V	c #E96A4B",
"W	c #D91E00",
"X	c #F0A694",
"Y	c #EC8E78",
"Z	c #E02F0B",
"[	c #DB2000",
"]	c #E8A491",
"^	c #EC8D76",
"_	c #D91D02",
"`	c #FDBAA9",
"a	c #E16B55",
"b	c #D92F1B",
"c	c #E8AF97",
"d	c #E69789",
"e	c #D51700",
"f	c #ED9887",
"g	c #F0E4DE",
"h	c #ECDBD4",
"i	c #F0A391",
"j	c #E76144",
"k	c #F7EFE9",
"l	c #F9E1D7",
"                ",
"                ",
"  #$            ",
" %&'(           ",
"  )*+,    -.0   ",
"   1234  567    ",
"    89:;<=>     ",
"     ?@ABCD     ",
"     EFGHI      ",
"    JKLMNOP     ",
"   QRST UVWX    ",
"  YZ[]    ^_`   ",
"  abc      def  ",
"  gh        ijk ",
"             l  ",
"                "};