/* XPM */ 
static const char * close_xpm[] = {
"24 24 159 2",
"  	c None",
"! 	c black",
"# 	c #FBD4C7",
"$ 	c #FBB097",
"% 	c #FBF0EB",
"& 	c #F9E3DE",
"' 	c #F55E35",
"( 	c #FA3100",
") 	c #F95E37",
"* 	c #FAEBE7",
"+ 	c #F8D7CF",
", 	c #F3461A",
"- 	c #FC2F00",
". 	c #FA2A00",
"0 	c #F9572E",
"1 	c #FBEBE7",
"2 	c #F9AD92",
"3 	c #F83502",
"4 	c #FB3403",
"5 	c #FB2A00",
"6 	c #F95730",
"7 	c #FAECE7",
"8 	c #FCFBF8",
"9 	c #F29A85",
": 	c #F95227",
"; 	c #FBF1EC",
"< 	c #F9AB90",
"= 	c #F63E13",
"> 	c #FB3503",
"? 	c #FB2B01",
"@ 	c #FC5733",
"A 	c #F8ECE5",
"B 	c white",
"C 	c #FBEDE5",
"D 	c #FA744C",
"E 	c #F73304",
"F 	c #FAA387",
"G 	c #F6C8BD",
"H 	c #F64417",
"I 	c #F73000",
"J 	c #EF2901",
"K 	c #FD5735",
"L 	c #FCE9E3",
"M 	c #FDFFFF",
"N 	c #F6C9BE",
"O 	c #F95530",
"P 	c #F63406",
"Q 	c #F3B4A4",
"R 	c #F7CDC1",
"S 	c #EE5632",
"T 	c #F42E01",
"U 	c #F02900",
"V 	c #F45533",
"W 	c #FEECE7",
"X 	c #FBFFFF",
"Y 	c #F4A793",
"Z 	c #F9390F",
"[ 	c #F73007",
"] 	c #F5B8A6",
"^ 	c #F8DED5",
"_ 	c #EC5332",
"` 	c #EB2B00",
"a 	c #E82900",
"b 	c #F65830",
"c 	c #FB825B",
"d 	c #F03002",
"e 	c #E9340B",
"f 	c #F8B6A5",
"g 	c #EBE9E7",
"h 	c #DB684D",
"i 	c #F12E06",
"j 	c #E32E01",
"k 	c #E62A00",
"l 	c #F73F10",
"m 	c #F1B7A9",
"n 	c #FFFEFF",
"o 	c #F4B09A",
"p 	c #E53C13",
"q 	c #DE2E03",
"r 	c #EE2D04",
"s 	c #E25432",
"t 	c #FEEFEB",
"u 	c #FFF9F5",
"v 	c #FB9D7E",
"w 	c #E23709",
"x 	c #EC2B00",
"y 	c #E5471E",
"z 	c #E23406",
"{ 	c #D92703",
"| 	c #E45637",
"} 	c #FAEAE4",
"~ 	c #F7E1DC",
" !	c #ED7454",
"!!	c #E43100",
"#!	c #DA2901",
"$!	c #DE4620",
"%!	c #F4CEC4",
"&!	c #F59678",
"'!	c #E42C00",
"(!	c #D92200",
")!	c #E45738",
"*!	c #FCE8E3",
"+!	c #F9C9BD",
",!	c #E2522E",
"-!	c #DA2500",
".!	c #DB2B04",
"0!	c #E04521",
"1!	c #F5CCC2",
"2!	c #FAFFFF",
"3!	c #F8A38A",
"4!	c #E13F15",
"5!	c #D92000",
"6!	c #E45834",
"7!	c #FCEAE6",
"8!	c #F9AB91",
"9!	c #E53C12",
":!	c #DC2D01",
";!	c #DD2D03",
"<!	c #E04520",
"=!	c #F4B0A0",
">!	c #E13D12",
"?!	c #DA2000",
"@!	c #E45734",
"A!	c #FCEBE7",
"B!	c #EB9983",
"C!	c #DD2605",
"D!	c #DD350A",
"E!	c #DE2800",
"F!	c #DB512E",
"G!	c #E9DFDA",
"H!	c #F5C9BF",
"I!	c #E04A25",
"J!	c #DB1C00",
"K!	c #E45835",
"L!	c #FCECE7",
"M!	c #DF705A",
"N!	c #DC1600",
"O!	c #DC2600",
"P!	c #DE562F",
"Q!	c #F5CDC3",
"R!	c #DE502E",
"S!	c #D91A00",
"T!	c #E45A39",
"U!	c #FCECE6",
"V!	c #EFAE97",
"W!	c #DB523B",
"X!	c #DE6A4F",
"Y!	c #EBEFE2",
"Z!	c #EEE5E8",
"[!	c #E45936",
"]!	c #D71700",
"^!	c #E25236",
"_!	c #FBE3DD",
"`!	c #F1F6F5",
"a!	c #FAE8E3",
"b!	c #EA5F39",
"c!	c #E42D06",
"d!	c #F0C5BB",
"e!	c #F8D1C3",
"                                                ",
"                                                ",
"                                                ",
"      # $ %                                     ",
"    & ' ( ) *                                   ",
"    + , - . 0 1                                 ",
"      2 3 4 5 6 7               8 9 : ;         ",
"        < = > ? @ A         B C D E F           ",
"          G H I J K L     M N O P Q             ",
"            R S T U V W X Y Z [ ]               ",
"              ^ _ ` a b c d e f                 ",
"                g h i j k l m n                 ",
"                  o p q r s t                   ",
"              u v w x y z { | }                 ",
"            ~  !!!#!$!%!&!'!(!)!*!              ",
"          +!,!-!.!0!1!  2!3!4!5!6!7!            ",
"        8!9!:!;!<!1!        =!>!?!@!A!          ",
"      B!C!D!E!F!G!            H!I!J!K!L!        ",
"      M!N!O!P!L!                Q!R!S!T!U!      ",
"      V!W!X!Y!                    Z![!]!^!_!    ",
"        `!                          a!b!c!d!    ",
"                                      } e!      ",
"                                                ",
"                                                "};