/* XPM */ 
static const char * close32_xpm[] = {
"32 32 307 2",
"  	c None",
"! 	c black",
"# 	c #FACDBE",
"$ 	c #FAB29B",
"% 	c #FAC6B4",
"& 	c #FAEBE5",
"' 	c #F9E5E0",
"( 	c #F8CABE",
") 	c #F68666",
"* 	c #F85E35",
"+ 	c #F96843",
", 	c #F99E86",
"- 	c #F9E6E0",
". 	c #F8E9E7",
"0 	c #F6BFB1",
"1 	c #F3552C",
"2 	c #F83000",
"3 	c #F93003",
"4 	c #F8552F",
"5 	c #F8A18B",
"6 	c #F9E0DA",
"7 	c #F8D6CD",
"8 	c #F6B6A5",
"9 	c #F35F38",
": 	c #F83809",
"; 	c #FA2A00",
"< 	c #F93004",
"= 	c #F94C23",
"> 	c #F9A793",
"? 	c #FAE2DD",
"@ 	c #F79E81",
"A 	c #F8552A",
"B 	c #F93102",
"C 	c #FA3102",
"D 	c #F93005",
"E 	c #F94E28",
"F 	c #F99D86",
"G 	c #FAE8E2",
"H 	c #FBFCFA",
"I 	c #F8DAD1",
"J 	c #F2927B",
"K 	c #F75E36",
"L 	c #FAAA93",
"M 	c #FAF4EF",
"N 	c #F89373",
"O 	c #F7613A",
"P 	c #F73405",
"Q 	c #FA3000",
"R 	c #FA3004",
"S 	c #FA542F",
"T 	c #FA9881",
"U 	c #F8E6DE",
"V 	c #FDFEFD",
"W 	c #FBF7F3",
"X 	c #FAC7B5",
"Y 	c #F88464",
"Z 	c #F55731",
"[ 	c #F87C58",
"] 	c #FAA990",
"^ 	c #F7BCA9",
"_ 	c #F6A18A",
"` 	c #F56947",
"a 	c #F83C0C",
"b 	c #F92B00",
"c 	c #F72E04",
"d 	c #F6512E",
"e 	c #F9A48F",
"f 	c #F9E1D8",
"g 	c #FDFCFB",
"h 	c #FAE6E1",
"i 	c #F9B9A8",
"j 	c #F87451",
"k 	c #F65227",
"l 	c #F56A47",
"m 	c #F6A088",
"n 	c #F6D0C7",
"o 	c #F5B4A4",
"p 	c #F5623D",
"q 	c #F43E11",
"r 	c #F22C02",
"s 	c #F12E06",
"t 	c #F94C28",
"u 	c #FAA591",
"v 	c #FAE1D9",
"w 	c #FBF7F6",
"x 	c #F9DCD5",
"y 	c #F6A694",
"z 	c #F75C39",
"{ 	c #F6431A",
"| 	c #F36C4B",
"} 	c #F3B1A0",
"~ 	c #F6BBAB",
" !	c #F07659",
"!!	c #F03F17",
"#!	c #F22C01",
"$!	c #F12E05",
"%!	c #F24D29",
"&!	c #F89883",
"'!	c #FCEBE6",
"(!	c #FAF9F9",
")!	c #F6CFC5",
"*!	c #F5886F",
"+!	c #F74721",
",!	c #F7370E",
"-!	c #F5795C",
".!	c #F4B29F",
"0!	c #F7D9D0",
"1!	c #F5C1B3",
"2!	c #F28266",
"3!	c #ED3B14",
"4!	c #EC2900",
"5!	c #EB2C04",
"6!	c #F05532",
"7!	c #F99379",
"8!	c #FBAD93",
"9!	c #F47A5A",
":!	c #EE421C",
";!	c #EE380E",
"<!	c #F57457",
"=!	c #F7A895",
">!	c #F3E9E4",
"?!	c #F0C9BF",
"@!	c #E9806A",
"A!	c #E44724",
"B!	c #E82E08",
"C!	c #EC3007",
"D!	c #EE451B",
"E!	c #F1582E",
"F!	c #F23F11",
"G!	c #EF3D14",
"H!	c #EC7053",
"I!	c #F7C3B6",
"J!	c #FBD9D1",
"K!	c #EDE8E5",
"L!	c #E9CFC7",
"M!	c #E07D65",
"N!	c #E94420",
"O!	c #EA2C02",
"P!	c #E22D00",
"Q!	c #E52A00",
"R!	c #EE3307",
"S!	c #F36C4A",
"T!	c #F3C3B7",
"U!	c #FCF3F1",
"V!	c #FEFCFB",
"W!	c #EFA58E",
"X!	c #E9603E",
"Y!	c #E23106",
"Z!	c #E02C02",
"[!	c #E73D16",
"]!	c #EC876E",
"^!	c #FBE5DF",
"_!	c white",
"`!	c #FBCBBA",
"a!	c #F69D80",
"b!	c #EA6C48",
"c!	c #E9421A",
"d!	c #E53107",
"e!	c #E1360B",
"f!	c #E42F02",
"g!	c #DE3009",
"h!	c #E05638",
"i!	c #EF9C89",
"j!	c #FAE4DD",
"k!	c #FCF2EE",
"l!	c #FADDD4",
"m!	c #F7AB95",
"n!	c #EF6A43",
"o!	c #E03508",
"p!	c #E22A00",
"q!	c #E74B26",
"r!	c #E97050",
"s!	c #E75730",
"t!	c #DF330B",
"u!	c #DB2804",
"v!	c #E04A2C",
"w!	c #EEA391",
"x!	c #F8DFD8",
"y!	c #F4CEC5",
"z!	c #ED8E76",
"{!	c #E75029",
"|!	c #E13002",
"}!	c #DB2C04",
"~!	c #DD411C",
" #	c #E7846B",
"!#	c #F4CABE",
"##	c #F4A68E",
"$#	c #EB5F3A",
"%#	c #E02D0A",
"&#	c #DA2907",
"'#	c #E14A2B",
"(#	c #EFA391",
")#	c #FBE2DC",
"*#	c #F9D4CA",
"+#	c #F4BAAC",
",#	c #E67053",
"-#	c #DE3F1C",
".#	c #DB2B05",
"0#	c #DB2D04",
"1#	c #DE3F1A",
"2#	c #EA8D77",
"3#	c #F9EEEA",
"4#	c #F6B6A4",
"5#	c #ED6D4D",
"6#	c #DE3710",
"7#	c #DB2907",
"8#	c #E14C2C",
"9#	c #EE9983",
":#	c #FBE6E1",
";#	c #F9BDA9",
"<#	c #F4A088",
"=#	c #EA6848",
">#	c #DE3C14",
"?#	c #DA2800",
"@#	c #DA2700",
"A#	c #DF4420",
"B#	c #EA8A73",
"C#	c #F3C1B5",
"D#	c #FAFFFF",
"E#	c #F6BDAF",
"F#	c #F3A18B",
"G#	c #EA775B",
"H#	c #DF3812",
"I#	c #DB2702",
"J#	c #E14E2F",
"K#	c #EE9A85",
"L#	c #F9E1DB",
"M#	c #F18E72",
"N#	c #E95F3B",
"O#	c #E03106",
"P#	c #DC2A00",
"Q#	c #DB2E04",
"R#	c #DD4C29",
"S#	c #E4856D",
"T#	c #EFCBC2",
"U#	c #F2B2A3",
"V#	c #E97659",
"W#	c #DE3F1D",
"X#	c #E14929",
"Y#	c #F0A593",
"Z#	c #E99079",
"[#	c #E1472A",
"]#	c #DC2905",
"^#	c #DD3107",
"_#	c #DD2E06",
"`#	c #DD4A27",
"a#	c #E29581",
"b#	c #EADCD6",
"c#	c #F4C6BB",
"d#	c #E9866E",
"e#	c #DE401F",
"f#	c #DB270A",
"g#	c #E04929",
"h#	c #FAE6E0",
"i#	c #DF725C",
"j#	c #DC321B",
"k#	c #DB1900",
"l#	c #DC2D05",
"m#	c #DD4B24",
"n#	c #EEA692",
"o#	c #F7E1DB",
"p#	c #F3C4B8",
"q#	c #EA917C",
"r#	c #DD4322",
"s#	c #DA270A",
"t#	c #E14C30",
"u#	c #EE9B85",
"v#	c #FAE7E1",
"w#	c #E68A73",
"x#	c #DD4B34",
"y#	c #DA331A",
"z#	c #DD593A",
"{#	c #E4A68D",
"|#	c #EFE4D7",
"}#	c #EED3CF",
"~#	c #E59A8B",
" $	c #DF4A2D",
"!$	c #DB290B",
"#$	c #E04A30",
"$$	c #ED9987",
"%$	c #F8DAD2",
"&$	c #EFC1B1",
"'$	c #E59585",
"($	c #E18573",
")$	c #E5A796",
"*$	c #E9E7D9",
"+$	c #F1DFDE",
",$	c #EB9782",
"-$	c #E14B2F",
".$	c #DC270A",
"0$	c #E24A2C",
"1$	c #F2B8AC",
"2$	c #F8E4E0",
"3$	c #F0F0EE",
"4$	c #F0EFED",
"5$	c #F9E4DF",
"6$	c #F0A18B",
"7$	c #E7532E",
"8$	c #E64623",
"9$	c #EEA797",
":$	c #F1D1C8",
";$	c #F8DCD3",
"<$	c #F5C1B2",
"=$	c #F3B19D",
">$	c #F4C5B6",
"?$	c #FAEDE7",
"@$	c #F9DDD0",
"                                                                ",
"                                                                ",
"                                                                ",
"                                                                ",
"        # $ % &                                                 ",
"    ' ( ) * + , -                                               ",
"    . 0 1 2 3 4 5 6                                             ",
"    7 8 9 : ; < = > ?                                           ",
"        @ A B C D E F G                   H I J K L M           ",
"          N O P Q R S T U             V W X Y Z [ ]             ",
"          ^ _ ` a b c d e f         g h i j k l m               ",
"            n o p q r s t u v     w x y z { | }                 ",
"                ~  !!!#!$!%!&!'!(!)!*!+!,!-!.!                  ",
"                0!1!2!3!4!5!6!7!8!9!:!;!<!=!                    ",
"                  >!?!@!A!B!C!D!E!F!G!H!I!J!                    ",
"                    K!L!M!N!O!P!Q!R!S!T!U!V!                    ",
"                        W!X!Y!Z!O![!]!^!                        ",
"                  _!`!a!b!c!d!e!f!g!h!i!j!                      ",
"                k!l!m!n!o!p!q!r!s!t!u!v!w!x!                    ",
"                y!z!{!|!}!~! #!###$#%#&#'#(#)#                  ",
"            *#+#,#-#.#0#1#2#T!  3#4#5#6#7#8#9#:#                ",
"          ;#<#=#>#?#@#A#B#C#    D#E#F#G#H#I#J#K#L#              ",
"          M#N#O#P#Q#R#S#T#            U#V#W#7#X#Y#L#            ",
"        Z#[#]#^#_#`#a#b#                c#d#e#f#g#(#h#          ",
"        i#j#k#l#m#n#o#                    p#q#r#s#t#u#v#        ",
"        w#x#y#z#{#|#                        }#~# $!$#$$$%$      ",
"        &$'$($)$*$                            +$,$-$.$0$1$2$    ",
"          3$4$                                  5$6$7$8$9$:$    ",
"                                                  ;$<$=$>$      ",
"                                                    ?$@$        ",
"                                                                ",
"                                                                "};