/* XPM */ 
static const char * close_xpm[] = {
"24 24 70 1",
" 	c None",
"!	c black",
"#	c #FE0000",
"$	c #FF0000",
"%	c #DF0000",
"&	c #F30000",
"'	c #C90000",
"(	c #810000",
")	c #CF0000",
"*	c #F20000",
"+	c #B30000",
",	c #800000",
"-	c #910000",
".	c #A60000",
"0	c #DA0000",
"1	c #EE0000",
"2	c #860000",
"3	c #930000",
"4	c #AB0000",
"5	c #8F0000",
"6	c #CA0000",
"7	c #E60000",
"8	c #DC0000",
"9	c #B40000",
":	c #870000",
";	c #B60000",
"<	c #DE0000",
"=	c #EB0000",
">	c #840000",
"?	c #990000",
"@	c #9F0000",
"A	c #D20000",
"B	c #FD0000",
"C	c #B90000",
"D	c #A10000",
"E	c #CC0000",
"F	c #F60000",
"G	c #E70000",
"H	c #C00000",
"I	c #A30000",
"J	c #920000",
"K	c #E10000",
"L	c #CB0000",
"M	c #EF0000",
"N	c #E20000",
"O	c #BB0000",
"P	c #FA0000",
"Q	c #D50000",
"R	c #900000",
"S	c #CE0000",
"T	c #F90000",
"U	c #C60000",
"V	c #880000",
"W	c #AC0000",
"X	c #D70000",
"Y	c #C50000",
"Z	c #AE0000",
"[	c #EA0000",
"]	c #C30000",
"^	c #C80000",
"_	c #D10000",
"`	c #E80000",
"a	c #940000",
"b	c #A80000",
"c	c #F40000",
"d	c #950000",
"e	c #C70000",
"f	c #F50000",
"g	c #B00000",
"h	c #BF0000",
"                        ",
"                        ",
"  ##$                   ",
"  #%&$             '    ",
"  ()%*$           +,    ",
"   -.01$        234     ",
"    5567$      829      ",
"      :;<#    =>+       ",
"       ?@AB  13C        ",
"        D-EFGHI         ",
"          J'K,          ",
"          L3'M          ",
"         1NO5LP         ",
"        $Q,'4RSB        ",
"       TUVH  W-X$       ",
"       XRY    ZD[       ",
"      =VL      @;&      ",
"     $D]6       :^$     ",
"     _D6         R`     ",
"    *aU          4bT    ",
"   cSDA           deT   ",
"   fgh             (F   ",
"    (                   ",
"                        "};