/* XPM */ 
static const char * color_grayscale16_xpm[] = {
"16 16 2 1",
" 	c None",
"!	c black",
"!!!!!!!!!!      ",
"!!!!!!!!!!      ",
"!!!!!!!!!!      ",
"!!!!!!!!!!      ",
"!!!!!!!!!!      ",
"!!!!!!!!!!      ",
"!!!!!!!!!!      ",
"!!!!!!!!!!      ",
"!!!!!!!!!!      ",
"!!!!!!!!!!      ",
"!!!!!!!!!!      ",
"!!!!!!!!!!      ",
"!!!!!!!!!!      ",
"!!!!!!!!!!      ",
"!!!!!!!!!!      ",
"!!!!!!!!!!      "};