/* XPM */ 
static char * dicomtags_xpm[] = {
"16 16 4 1",
" 	c None",
"!	c black",
"#	c white",
"$	c #C0C0C0",
"!!!!!!!!!!!!!!!!",
"!###!###!##!###!",
"!!!!!!!!!!!!!!!!",
"################",
"################",
"$$$$$$$$$$$$$$$$",
"$$$$$$$$$$$$$$$$",
"################",
"$$$$$$$$$$$$$$$$",
"$$$$$$$$$$$$$$$$",
"################",
"$$$$$$$$$$$$$$$$",
"$$$$$$$$$$$$$$$$",
"################",
"$$$$$$$$$$$$$$$$",
"$$$$$$$$$$$$$$$$"};