/* XPM */ 
static char * exclamation_xpm[] = {
"32 32 7 1",
" 	c None",
"!	c black",
"#	c #8D8D46",
"$	c #FFFF00",
"%	c #FFFF7D",
"&	c #FF9900",
"'	c #FF0000",
"                                ",
"                                ",
"               !                ",
"              !#!               ",
"             !!$%!              ",
"             !%$$!              ",
"            !!$$$%!             ",
"            !%$$$$!             ",
"           !!$$$$$%!            ",
"           !%$$$$$$!            ",
"          !!$$$$$$$%!           ",
"          !%$$&'&$$$!           ",
"         !!$$$'''$$$%!          ",
"         !%$$$'''$$$$!!         ",
"        !!$$$$'''$$$$%!         ",
"        !%$$$$'''$$$$$!!        ",
"       !!$$$$$'''$$$$$%!        ",
"       !%$$$$$'''$$$$$$!!       ",
"      !!$$$$$$'''$$$$$$%!       ",
"      !%$$$$$$'''$$$$$$$%!      ",
"     !!$$$$$$$'''$$$$$$$$!      ",
"     !%$$$$$$$'''$$$$$$$$%!     ",
"    !!$$$$$$$$&'&$$$$$$$$$!     ",
"    !%$$$$$$$$$$$$$$$$$$$$%!    ",
"   !!$$$$$$$$$&'&$$$$$$$$$$!    ",
"   !%$$$$$$$$$'''$$$$$$$$$$%!   ",
"  !!$$$$$$$$$$&'&$$$$$$$$$$$!   ",
"  !%$$$$$$$$$$$$$$$$$$$$$$$$%!  ",
" !!$$$$$$$$$$$$$$$$$$$$$$$$$$!! ",
" !!!!!!!!!!!!!!!!!!!!!!!!!!!!!! ",
"                                ",
"                                "};