/* XPM */ 
static char * exclamation_xpm[] = {
"32 32 93 2",
"  	c None",
"! 	c black",
"# 	c #090000",
"$ 	c #660000",
"% 	c #920000",
"& 	c #DB7171",
"' 	c #DA6D6D",
"( 	c #D96969",
") 	c #D04545",
"* 	c #D86565",
"+ 	c #CF3E3E",
", 	c #540000",
"- 	c #D86262",
". 	c #D75E5E",
"0 	c #5F0000",
"1 	c #020000",
"2 	c #D65A5A",
"3 	c #D55757",
"4 	c #490000",
"5 	c #D45353",
"6 	c #600000",
"7 	c #D04242",
"8 	c #D75500",
"9 	c #D35050",
": 	c #CC3333",
"; 	c #3E0000",
"< 	c #E38600",
"= 	c #FFFF00",
"> 	c #D24D4D",
"? 	c #D24A4A",
"@ 	c #640000",
"A 	c #CF4040",
"B 	c #E3C100",
"C 	c #D14646",
"D 	c #CA2D2D",
"E 	c #340000",
"F 	c #D04343",
"G 	c #6C0000",
"H 	c #CE3D3D",
"I 	c #C92828",
"J 	c #2A0000",
"K 	c #CE3A3A",
"L 	c #C92727",
"M 	c #770000",
"N 	c #CE3C3C",
"O 	c #CD3737",
"P 	c #CC3434",
"Q 	c #CB3131",
"R 	c #070000",
"S 	c #220000",
"T 	c #C72222",
"U 	c #840000",
"V 	c #CD3A3A",
"W 	c #CB2F2F",
"X 	c #CA2C2C",
"Y 	c #C30000",
"Z 	c #100000",
"[ 	c #1A0000",
"] 	c #C92929",
"^ 	c #C61D1D",
"_ 	c #940000",
"` 	c #CD3838",
"a 	c #C92626",
"b 	c #C82424",
"c 	c #C20000",
"d 	c #1D0000",
"e 	c #140000",
"f 	c #C72121",
"g 	c #BF0000",
"h 	c #A30000",
"i 	c #CD3636",
"j 	c #C71F1F",
"k 	c #C61C1C",
"l 	c #2B0000",
"m 	c #0F0000",
"n 	c #C51919",
"o 	c #C51717",
"p 	c #B20000",
"q 	c #C41414",
"r 	c #C41212",
"s 	c #440000",
"t 	c #C30F0F",
"u 	c #C00000",
"v 	c #C20D0D",
"w 	c #BC0000",
"x 	c #530000",
"y 	c #CB3030",
"z 	c #C20B0B",
"{ 	c #C10808",
"| 	c #C10606",
"} 	c #C00404",
"~ 	c #B90000",
" !	c #BF0101",
"                                                                ",
"                            ! ! !                               ",
"                          ! ! ! ! !                             ",
"                        ! # $ % $ # !                           ",
"                      ! ! $ & ' ( $ ! !                         ",
"                      ! ! ) ' ( * + ! !                         ",
"                      ! , ' ( * - . 0 ! !                       ",
"                    ! 1 ' ( * - . 2 3 1 !                       ",
"                    ! 4 ( * - . 2 3 5 6 ! !                     ",
"                  ! ! 7 * - 8 8 8 5 9 : ! !                     ",
"                  ! ; * - < = = = < > ? @ ! !                   ",
"                ! ! A - . B = = = B ? C D ! !                   ",
"                ! E - . 2 = = = = = C F A G ! !                 ",
"              ! ! + . 2 3 = = = = = F A H I 1 !                 ",
"              ! J . 2 3 5 = = = = = A H K L M ! !               ",
"            ! ! N 2 3 5 9 B = = = B H K O P Q R !               ",
"            ! S 2 3 5 9 > < = = = < K O P Q T U ! !             ",
"          ! ! V 3 5 9 > ? 8 = = = 8 O P Q W X Y Z !             ",
"          ! [ 3 5 9 > ? C F = = = O P Q W X ] ^ _ ! !           ",
"        ! ! ` 5 9 > ? C F A B = B P Q W X ] a b c d !           ",
"        ! e 5 9 > ? C F A H < = < Q W X ] a b f g h ! !         ",
"      ! ! i 9 > ? C F A H K 8 = 8 W X ] a b f j k c l !         ",
"      ! m 9 > ? C F A H K O P = W X ] a b f j k n o p ! !       ",
"    ! ! P : ? C F A H K O P Q 8 X ] a b f j k n o q r ; ! !     ",
"    ! s > ? C F A H K O P Q W X ] a b f j k n o q r t u 1 !     ",
"  ! ! : ? C F A H K O P Q W < = < b f j k n o q r t v w x ! !   ",
"  ! ! y C F A H K O P Q W X = = = f j k n o q r t v z { | ! !   ",
"  ! ! C F A H K O P Q W X ] < = < j k n o q r t v z { | } ! !   ",
"  ! ! F A H K O P Q W X ] a b f j k n o q r t v z w ~ }  !! !   ",
"    ! ! d K O P Q W X ] a b f j k n o q r t v z { | } ! ! !     ",
"      ! ! ! ! ! ! ! ! ! ! ! ! ! ! ! ! ! ! ! ! ! ! ! ! ! !       ",
"                                                                "};