/* XPM */ 
static const char * flip_ud_xpm[] = {
"32 32 38 1",
" 	c None",
"!	c black",
"#	c #B9B9B9",
"$	c #DFDFF3",
"%	c #D2D2E4",
"&	c #868692",
"'	c #BFBFE7",
"(	c #A5A5C8",
")	c #9F9FDB",
"*	c #7979A7",
"+	c #7F7FCF",
",	c #7A7AC7",
"-	c #535386",
".	c #5F5FC3",
"0	c #5555AE",
"1	c #3F3FB7",
"2	c #333393",
"3	c #1F1FAC",
"4	c #1F1FA8",
"5	c #161677",
"6	c #0000A0",
"7	c #000093",
"8	c #00005A",
"9	c #2020AC",
":	c #2020A8",
";	c #4040B8",
"<	c #343494",
"=	c #6060C4",
">	c #5656AF",
"?	c #8080D0",
"@	c #7B7BC8",
"A	c #535387",
"B	c #A0A0DC",
"C	c #7A7AA8",
"D	c #C0C0E8",
"E	c #A6A6C9",
"F	c #E0E0F3",
"G	c #878792",
"                                ",
"  !!                            ",
"  !#!!!                         ",
"  !$$%&!!!                      ",
"  !'''''(!!!                    ",
"  !))))))))*!!!                 ",
"  !++++++++++,-!!!              ",
"  !.............0!!!!           ",
"  !11111111111111112!!!         ",
"  !33333333333333333345!!!      ",
"  !66666666666666666666678!!!   ",
"  !!!!!!!!!!!!!!!!!!!!!!!!!!!!  ",
"             !!!                ",
"            !!!!!               ",
"           !! ! !!              ",
"              !                 ",
"              !                 ",
"           !! ! !!              ",
"            !!!!!               ",
"             !!!                ",
"  !!!!!!!!!!!!!!!!!!!!!!!!!!!!  ",
"  !66666666666666666666678!!!   ",
"  !999999999999999999:5!!!      ",
"  !;;;;;;;;;;;;;;;;<!!!         ",
"  !=============>!!!!           ",
"  !??????????@A!!!              ",
"  !BBBBBBBBC!!!                 ",
"  !DDDDDE!!!                    ",
"  !FF%G!!!                      ",
"  !#!!!                         ",
"  !!                            ",
"                                "};