/* XPM */ 
static const char * flip_lr_xpm[] = {
"32 32 38 1",
" 	c None",
"!	c black",
"#	c #00005A",
"$	c #000093",
"%	c #0000A0",
"&	c #161677",
"'	c #1F1FA8",
"(	c #2020A8",
")	c #1F1FAC",
"*	c #2020AC",
"+	c #333393",
",	c #343494",
"-	c #3F3FB7",
".	c #4040B8",
"0	c #5555AE",
"1	c #5656AF",
"2	c #5F5FC3",
"3	c #6060C4",
"4	c #535386",
"5	c #535387",
"6	c #7A7AC7",
"7	c #7B7BC8",
"8	c #7F7FCF",
"9	c #8080D0",
":	c #7979A7",
";	c #7A7AA8",
"<	c #9F9FDB",
"=	c #A0A0DC",
">	c #A5A5C8",
"?	c #A6A6C9",
"@	c #BFBFE7",
"A	c #C0C0E8",
"B	c #868692",
"C	c #878792",
"D	c #D2D2E4",
"E	c #DFDFF3",
"F	c #E0E0F3",
"G	c #B9B9B9",
"                                ",
"                                ",
"           !        !           ",
"          !!        !!          ",
"          !!        !!          ",
"          !!        !!          ",
"         !#!        !#!         ",
"         !$!        !$!         ",
"         !%!        !%!         ",
"        !&%!        !%&!        ",
"        !'%!        !%(!        ",
"       !!)%!        !%*!!       ",
"       !+)%!        !%*,!       ",
"       !-)%!        !%*.!       ",
"      !!-)%!  !  !  !%*.!!      ",
"      !0-)%! !!  !! !%*.1!      ",
"      !2-)%!!!    !!!%*.3!      ",
"     !42-)%!!!!!!!!!!%*.35!     ",
"     !62-)%!!!    !!!%*.37!     ",
"     !82-)%! !!  !! !%*.39!     ",
"    !:82-)%!  !  !  !%*.39;!    ",
"    !<82-)%!        !%*.39=!    ",
"   !!<82-)%!        !%*.39=!!   ",
"   !><82-)%!        !%*.39=?!   ",
"   !@<82-)%!        !%*.39=A!   ",
"  !B@<82-)%!        !%*.39=AC!  ",
"  !D@<82-)%!        !%*.39=AD!  ",
"  !E@<82-)%!        !%*.39=AF!  ",
" !GE@<82-)%!        !%*.39=AFG! ",
" !!!!!!!!!!!        !!!!!!!!!!! ",
"                                ",
"                                "};