/* XPM */ 
static char * help_xpm[] = {
"16 16 6 1",
" 	c None",
"!	c black",
"#	c #000080",
"$	c #555591",
"%	c #FFFFB5",
"&	c #C6C6A9",
"      ####      ",
"    ########    ",
"  ############  ",
"  ####$$$#####  ",
" ####$%%%%$#### ",
" ###$%&##%%#### ",
"####$$###%%#####",
"########%%$#####",
"#######%%$######",
"#######%%#######",
" ############## ",
" ######%%###### ",
"  #####%%#####  ",
"  ############  ",
"    ########    ",
"      ####      "};