/* XPM */ 
static char * hi_res_xpm[] = {
"32 32 180 2",
"  	c None",
"! 	c black",
"# 	c #F8F8F8",
"$ 	c #F7F7F7",
"% 	c #F6F6F6",
"& 	c #EEEEEE",
"' 	c white",
"( 	c #C2C2C2",
") 	c #9B9B9B",
"* 	c #A2A2A2",
"+ 	c #DADADA",
", 	c #EFEFEF",
"- 	c #F4F4F4",
". 	c #FDFDFD",
"0 	c #DEDEDE",
"1 	c #9A9A9A",
"2 	c #848484",
"3 	c #7C7C7C",
"4 	c #A4A4A4",
"5 	c #FCFCFC",
"6 	c #F5F5F5",
"7 	c #FBFBFB",
"8 	c #E0E0E0",
"9 	c #7A7A7A",
": 	c #585858",
"; 	c #898989",
"< 	c #808080",
"= 	c #4B4B4B",
"> 	c #7F7F7F",
"? 	c #DBDBDB",
"@ 	c #C1C1C1",
"A 	c #838383",
"B 	c #BDBDBD",
"C 	c #BCBCBC",
"D 	c #8A8A8A",
"E 	c #8C8C8C",
"F 	c #B1B1B1",
"G 	c #4C4C4C",
"H 	c #BFBFBF",
"I 	c #676767",
"J 	c #5B5B5B",
"K 	c #363636",
"L 	c #C8C8C8",
"M 	c #525252",
"N 	c #CCCCCC",
"O 	c #A9A9A9",
"P 	c #686868",
"Q 	c #3E3E3E",
"R 	c #636363",
"S 	c #494949",
"T 	c #3C3C3C",
"U 	c #343434",
"V 	c #646464",
"W 	c #C4C4C4",
"X 	c #F9F9F9",
"Y 	c #ECECEC",
"Z 	c #595959",
"[ 	c #BABABA",
"] 	c #AAAAAA",
"^ 	c #474747",
"_ 	c #404040",
"` 	c #505050",
"a 	c #8E8E8E",
"b 	c #C5C5C5",
"c 	c #6F6F6F",
"d 	c #454545",
"e 	c #3A3A3A",
"f 	c #2C2C2C",
"g 	c #3B3B3B",
"h 	c #B7B7B7",
"i 	c #919191",
"j 	c #414141",
"k 	c #353535",
"l 	c #292929",
"m 	c #282828",
"n 	c #242424",
"o 	c #0C0C0C",
"p 	c #040404",
"q 	c #444444",
"r 	c #FEFEFE",
"s 	c #5F5F5F",
"t 	c #4D4D4D",
"u 	c #4A4A4A",
"v 	c #434343",
"w 	c #151515",
"x 	c #2B2B2B",
"y 	c #484848",
"z 	c #CACACA",
"{ 	c #B3B3B3",
"| 	c #383838",
"} 	c #565656",
"~ 	c #090909",
" !	c #6D6D6D",
"!!	c #1F1F1F",
"#!	c #999999",
"$!	c #535353",
"%!	c #313131",
"&!	c #393939",
"'!	c #232323",
"(!	c #2F2F2F",
")!	c #0B0B0B",
"*!	c #1C1C1C",
"+!	c #979797",
",!	c #D3D3D3",
"-!	c #656565",
".!	c #3F3F3F",
"0!	c #323232",
"1!	c #272727",
"2!	c #373737",
"3!	c #747474",
"4!	c #2E2E2E",
"5!	c #DCDCDC",
"6!	c #5D5D5D",
"7!	c #303030",
"8!	c #2A2A2A",
"9!	c #B4B4B4",
":!	c #777777",
";!	c #464646",
"<!	c #666666",
"=!	c #ACACAC",
">!	c #0E0E0E",
"?!	c #141414",
"@!	c #B0B0B0",
"A!	c #959595",
"B!	c #A8A8A8",
"C!	c #AFAFAF",
"D!	c #9C9C9C",
"E!	c #545454",
"F!	c #828282",
"G!	c #989898",
"H!	c #FAFAFA",
"I!	c #707070",
"J!	c #5A5A5A",
"K!	c #6B6B6B",
"L!	c #A6A6A6",
"M!	c #A1A1A1",
"N!	c #717171",
"O!	c #7B7B7B",
"P!	c #6A6A6A",
"Q!	c #7D7D7D",
"R!	c #ADADAD",
"S!	c #424242",
"T!	c #626262",
"U!	c #B6B6B6",
"V!	c #5C5C5C",
"W!	c #E2E2E2",
"X!	c #E9E9E9",
"Y!	c #D6D6D6",
"Z!	c #727272",
"[!	c #8B8B8B",
"]!	c #F2F2F2",
"^!	c #EAEAEA",
"_!	c #0A0A0A",
"`!	c #1D1D1D",
"a!	c #797979",
"b!	c #D1D1D1",
"c!	c #868686",
"d!	c #737373",
"e!	c #949494",
"f!	c #C3C3C3",
"g!	c #D4D4D4",
"h!	c #6E6E6E",
"i!	c #555555",
"j!	c #9E9E9E",
"k!	c #A0A0A0",
"l!	c #939393",
"m!	c #C9C9C9",
"n!	c #9D9D9D",
"o!	c #888888",
"p!	c #878787",
"q!	c #8D8D8D",
"r!	c #929292",
"s!	c #A5A5A5",
"t!	c #AEAEAE",
"u!	c #7E7E7E",
"v!	c #BEBEBE",
"w!	c #CDCDCD",
"x!	c #EDEDED",
"y!	c #EBEBEB",
"z!	c #F0F0F0",
"  # # # # # # # # $ # % & ' ' ! # ( ) * + ' ' ' , $ # $ # # #   ",
"  # # # # # # $ # $ - . ' 0 1 ! 2 2 3 3 3 3 4 4 4 5 5 5 5 - - - ",
"  # # # # # $ # 6 7 ' 8 9 : ; ! 2 2 3 3 3 3 4 4 4 5 5 5 5 - - - ",
"  # # # # $ # - ' & < = > ? 8 ! 2 2 3 3 3 3 4 4 4 5 5 5 5 - - - ",
"  # # # $ # - ' @ = A B C D 9 ! E E 3 3 3 3 3 3 3 4 4 4 4 5 5 5 ",
"  # # $ # - ' F G H @ E I J K ! E E 3 3 3 3 3 3 3 4 4 4 4 5 5 5 ",
"  # # # 6 . L M N O P J Q R S ! T T T T T T U U U V V V V W W W ",
"  # $ $ X Y Z [ ] ^ G : _ Q ` ! T T T T T T U U U V V V V W W W ",
"  # # - ' a 9 b c Q d T e f g ! T T T T T T U U U V V V V W W W ",
"  # $ # 6 Z h i ^ j k ^ T l m ! n n o o o o p p p q q q q 4 4 4 ",
"  # % r + V H s t u e v w x y ! n n o o o o p p p q q q q 4 4 4 ",
"  # 6 ' z ^ { V j | } x ~  !J ! n n o o o o p p p q q q q 4 4 4 ",
"  # - r 4 !!#! !$!%!&!q '!(!)!! n n q q q q *!*!*!o o o o 2 2 2 ",
"  # - ' +!d ,!-!.!0!1!l 2!3!4!! n n q q q q *!*!*!o o o o 2 2 2 ",
"  # 6 r L 0!5!b 6!7!(!8!q J 6!! n n q q q q *!*!*!o o o o 2 2 2 ",
"  $ $ $ 5 v  !9!a :!;!v <!=!>!! ?!?!n n n n n n n n n n n 2 2 2 ",
"  # $ - ' t j @!A!B!9!L C!. D!! ?!?!n n n n n n n n n n n 2 2 2 ",
"  # 6 . 8 E!:!F!3!G!B!B!4 6 ' ! q q p p p p ?!?!?!V V V V 2 2 2 ",
"  6 H!%  !3!I!J!K!L!M!N!D > b ! q q p p p p ?!?!?!V V V V 2 2 2 ",
"  6 H!A Z O!:!6!$!P!Q!; F R!S!! q q p p p p ?!?!?!V V V V 2 2 2 ",
"  ' H T!U!B O 3 V!G P ) W!' X!! V!V!G G G G T T T U U U U 4 4 4 ",
"  . Y!C!b 1 #!P s Z![!B!G!C!]!! V!V!G G G G T T T U U U U 4 4 4 ",
"  $ # ^!H = c _!`!a!> Z!M 0!K ! V!V!G G G G T T T U U U U 4 4 4 ",
"  $ 6 . b!c 1 s > c!d!:!a!I!v ! e!e!E E E E T T T *!*!*!*!N N N ",
"  # % 5 f!e!g!i 3 9 h!h!I!-!i!! e!e!E E E E T T T *!*!*!*!N N N ",
"  $ $ H!0 j!B k!3!9 < 9 9 9 R ! e!e!E E E E T T T *!*!*!*!N N N ",
"  # % H!^!l!h!m!n!o![!a a p!:!! =!=!e!e!e!e!E!E!E!T T T T g!g!g!",
"  # $ $ 6 ^!c!D q!r!4 * L!s!1 ! =!=!e!e!e!e!E!E!E!T T T T g!g!g!",
"  # # % % ' t!c!p!u!v!H [ +!9!! N N C C C C e!e!e!V V V V g!g!g!",
"  # $ $ % H!f!n!( H f!] o!O!B ! N N C C C C e!e!e!V V V V g!g!g!",
"  # # # $ $ ]!w!w!z =!D!j!L!@ ! N N C C C C e!e!e!V V V V g!g!g!",
"  # # $ $ # % 5 - x!& x!y!z!]!! Y Y Y Y Y Y Y Y Y g!g!g!g!Y Y Y "};