/* XPM */ 
static char * histogram_xpm[] = {
"16 16 17 1",
" 	c None",
"!	c black",
"#	c #111111",
"$	c #222222",
"%	c #333333",
"&	c #444444",
"'	c #555555",
"(	c #666666",
")	c #777777",
"*	c #898989",
"+	c #9A9A9A",
",	c #ABABAB",
"-	c #BCBCBC",
".	c #CDCDCD",
"0	c #DEDEDE",
"1	c #EFEFEF",
"2	c #FF0000",
"!!!!!!!!!!!!!!!!",
"!#$%&'()*+,-.01!",
"!#$%&'()*+,-.01!",
"!#$%&'()*+,-.01!",
"!#$%&'()*+,-.01!",
"!#$%&'()*+,-.01!",
"!#$%&2()*+,-.01!",
"!#$%22()2+,-.01!",
"!#$222()22,-.01!",
"!#22222)22,-.01!",
"!222222)22,2.01!",
"!222222222,2.01!",
"!22222222222.02!",
"!22222222222202!",
"!22222222222222!",
"!!!!!!!!!!!!!!!!"};