/* XPM */ 
static char * image_info_xpm[] = {
"32 32 17 1",
" 	c None",
"!	c black",
"#	c #00002C",
"$	c #111111",
"%	c #000011",
"&	c #000003",
"'	c #121212",
"(	c #00003B",
")	c #000073",
"*	c #000091",
"+	c #00009B",
",	c #000059",
"-	c #000097",
".	c white",
"0	c #00002B",
"1	c #101010",
"2	c #00004A",
"            !!!!!!!!            ",
"         !!#$#%&&%#$#!!         ",
"       !!'%()*++++*)(%'!!       ",
"      !$%,-++++...+++-,%$!      ",
"     !$0*+++++.....++++*0$!     ",
"    !12+++++++.....++++++21!    ",
"   !$2++++++++.....+++++++2$!   ",
"  !$0++++++++++...+++++++++0$!  ",
"  !%*++++++++++++++++++++++*%!  ",
" !',++++++++++++++++++++++++,'! ",
" !%-++++++++++++++++++++++++-%! ",
" #(+++++++++.......++++++++++(# ",
"!$)+++++++++++.....++++++++++)$!",
"!#*+++++++++++.....++++++++++*#!",
"!%++++++++++++.....+++++++++++%!",
"!&++++++++++++.....+++++++++++&!",
"!&++++++++++++.....+++++++++++&!",
"!%++++++++++++.....+++++++++++%!",
"!#*+++++++++++.....++++++++++*#!",
"!$)+++++++++++.....++++++++++)$!",
" #(+++++++++++.....++++++++++(# ",
" !%-++++++++++.....+++++++++-%! ",
" !',++++++++++.....+++++++++,'! ",
"  !%*+++++++++.....++++++++*%!  ",
"  !$0+++++++++.....++++++++0$!  ",
"   !$2++++++++.....+++++++2$!   ",
"    !12+++++.........++++21!    ",
"     !$0*++++++++++++++*0$!     ",
"      !$%,-++++++++++-,%$!      ",
"       !!'%()*++++*)(%'!!       ",
"         !!#$#%&&%#$#!!         ",
"            !!!!!!!!            "};