/* XPM */ 
static const unsigned char * info_xpm[] = {
"32 32 18 1",
" 	c None",
"!	c black",
"#	c #00001E",
"$	c #00002D",
"%	c #000022",
"&	c #00000E",
"'	c #000003",
"(	c #000029",
")	c #000031",
"*	c #00005F",
"+	c #000077",
",	c #000080",
"-	c #000049",
".	c #00007C",
"0	c #000024",
"1	c #00003D",
"2	c #5555AA",
"3	c white",
"            !!!!!!!!            ",
"         !!#$%&''&%$#!!         ",
"       !!(&)*+,,,,+*)&(!!       ",
"      !#&-.,,,,,,,,,,.-&#!      ",
"     !$0+,,,,,,,,,,,,,,+0$!     ",
"    !$1,,,,,,,,,,,,,,,,,,1$!    ",
"   !$1,,,,,,,,2332,,,,,,,,1$!   ",
"  !#0,,,,,,,,,3333,,,,,,,,,0#!  ",
"  !&+,,,,,,,,,3333,,,,,,,,,+&!  ",
" !(-,,,,,,,,,,2332,,,,,,,,,,-(! ",
" !&.,,,,,,,,,,,,,,,,,,,,,,,,.&! ",
" #),,,,,,,,,,,,,,,,,,,,,,,,,,)# ",
"!$*,,,,,,,,,,33333,,,,,,,,,,,*$!",
"!%+,,,,,,,,,,23333,,,,,,,,,,,+%!",
"!&,,,,,,,,,,,,3333,,,,,,,,,,,,&!",
"!',,,,,,,,,,,,3333,,,,,,,,,,,,'!",
"!',,,,,,,,,,,,3333,,,,,,,,,,,,'!",
"!&,,,,,,,,,,,,3333,,,,,,,,,,,,&!",
"!%+,,,,,,,,,,,3333,,,,,,,,,,,+%!",
"!$*,,,,,,,,,,,3333,,,,,,,,,,,*$!",
" #),,,,,,,,,,,3333,,,,,,,,,,,)# ",
" !&.,,,,,,,,,,3333,,,,,,,,,,.&! ",
" !(-,,,,,,,,,,3333,,,,,,,,,,-(! ",
"  !&+,,,,,,,,233332,,,,,,,,+&!  ",
"  !#0,,,,,,,,333333,,,,,,,,0#!  ",
"   !$1,,,,,,,,,,,,,,,,,,,,1$!   ",
"    !$1,,,,,,,,,,,,,,,,,,1$!    ",
"     !$0+,,,,,,,,,,,,,,+0$!     ",
"      !#&-.,,,,,,,,,,.-&#!      ",
"       !!(&)*+,,,,+*)&(!!       ",
"         !!#$%&''&%##!!         ",
"            !!!!!!!!            "};