/* XPM */ 
static const char * mip_xpm[] = {
"32 32 144 2",
"  	c None",
"! 	c #181818",
"# 	c #161616",
"$ 	c #151515",
"% 	c #171717",
"& 	c #191919",
"' 	c #141414",
"( 	c #131313",
") 	c #111111",
"* 	c #121212",
"+ 	c #090909",
", 	c #0F0F0F",
"- 	c #1A1A1A",
". 	c #0C0C0C",
"0 	c #0B0B0B",
"1 	c #252525",
"2 	c #4B4B4B",
"3 	c #2A2A2A",
"4 	c #101010",
"5 	c #4E4E4E",
"6 	c #373737",
"7 	c #656565",
"8 	c #C8C8C8",
"9 	c #535353",
": 	c #1D1D1D",
"; 	c #1B1B1B",
"< 	c #5F5F5F",
"= 	c #595959",
"> 	c #0A0A0A",
"? 	c #2C2C2C",
"@ 	c #333333",
"A 	c #050505",
"B 	c #7D7D7D",
"C 	c #F1F1F1",
"D 	c #5E5E5E",
"E 	c #1C1C1C",
"F 	c #3B3B3B",
"G 	c #E3E3E3",
"H 	c #0D0D0D",
"I 	c #353535",
"J 	c #262626",
"K 	c #212121",
"L 	c #1F1F1F",
"M 	c #2E2E2E",
"N 	c #272727",
"O 	c #636363",
"P 	c #F4F4F4",
"Q 	c #3A3A3A",
"R 	c #202020",
"S 	c #393939",
"T 	c #FAFAFA",
"U 	c #9A9A9A",
"V 	c #414141",
"W 	c #292929",
"X 	c #575757",
"Y 	c #515151",
"Z 	c #3D3D3D",
"[ 	c #313131",
"] 	c #676767",
"^ 	c #0E0E0E",
"_ 	c #282828",
"` 	c #2F2F2F",
"a 	c #EAEAEA",
"b 	c #969696",
"c 	c #434343",
"d 	c #4D4D4D",
"e 	c #4F4F4F",
"f 	c #1E1E1E",
"g 	c #F2F2F2",
"h 	c #A8A8A8",
"i 	c #808080",
"j 	c #777777",
"k 	c #222222",
"l 	c #232323",
"m 	c #8A8A8A",
"n 	c #D0D0D0",
"o 	c #848484",
"p 	c #474747",
"q 	c #7B7B7B",
"r 	c #898989",
"s 	c #DBDBDB",
"t 	c #454545",
"u 	c #040404",
"v 	c #949494",
"w 	c #444444",
"x 	c #5A5A5A",
"y 	c #737373",
"z 	c #757575",
"{ 	c #080808",
"| 	c #888888",
"} 	c #B0B0B0",
"~ 	c #999999",
" !	c #686868",
"!!	c #B6B6B6",
"#!	c #ABABAB",
"$!	c #8C8C8C",
"%!	c #6F6F6F",
"&!	c #555555",
"'!	c #424242",
"(!	c #C2C2C2",
")!	c #727272",
"*!	c #343434",
"+!	c #A0A0A0",
",!	c #2D2D2D",
"-!	c #AEAEAE",
".!	c #CECECE",
"0!	c #BABABA",
"1!	c #989898",
"2!	c #929292",
"3!	c #ACACAC",
"4!	c #828282",
"5!	c #5D5D5D",
"6!	c #030303",
"7!	c white",
"8!	c #5B5B5B",
"9!	c #464646",
":!	c #B9B9B9",
";!	c #D4D4D4",
"<!	c #797979",
"=!	c #858585",
">!	c #B3B3B3",
"?!	c #8B8B8B",
"@!	c #494949",
"A!	c #2B2B2B",
"B!	c #545454",
"C!	c #020202",
"D!	c #E2E2E2",
"E!	c #F6F6F6",
"F!	c #C6C6C6",
"G!	c #9E9E9E",
"H!	c #F7F7F7",
"I!	c #EBEBEB",
"J!	c #696969",
"K!	c #A4A4A4",
"L!	c #070707",
"M!	c #BDBDBD",
"N!	c #F5F5F5",
"O!	c #D7D7D7",
"P!	c #3C3C3C",
"Q!	c #CCCCCC",
"R!	c #8D8D8D",
"S!	c #919191",
"T!	c #4C4C4C",
"U!	c #404040",
"! # $ % % & & % % $ % & # $ % % % % ! $ & ! % % % % $ $ $ % # ' ",
"! ' ( ( $ $ $ ' $ ( $ # ( ( ( ( $ $ # ' # $ $ % ' ( ' ' ' ' ' ) ",
"! ' ' ' ' ( ( $ ' ' * * $ ' & % ! ! ' ' $ ' * + , # ' ' ' $ ( * ",
"- # # $ ' ' ' # * . - ! % % 0 ) 0 0 & # # & 1 2 3 4 ' ' ' ' ' ( ",
"- ! ' ' ' # # $ % 5 6 $ % 0 7 8 9 9 * # # : ; < = > ! ' ' ' ' ( ",
"! ' ' ' ' # # 4 ? @ * % - A B C D D 0 - % $ # ( ( ; ' # # # # ' ",
"! ' ' # # ( ( E ' ) % % - ) F G H H I J & K L M ) * - # # ' # * ",
"! ' # # ) N N @ $ L ! - E - O P 7 7 Q H , K ; F < R ( ! ! ' # ( ",
"- # # # ) S S : : ! % $ & > = T U U V W X X Y Z [ ] % $ $ * # $ ",
"! # # ^ _ ` ` 1 H ' - R & # 1 a B B b O ` K ) c Z F d ^ ^ % # ' ",
"- # ' # [ W W Y e K # f ' * d g h h O i , % & ' [ Y j k k ) % ( ",
"- # * L 1 < < 6 F l # H I m j n i i Y O H % f ; 1 Z o K K : ' ) ",
"! # * @ Z Z Z H V p L L ? q r s m m t i W : > u K q v ( ( w * ' ",
"- # ! & x 2 2 Z y z ` Y { | } ~  ! !!!#!( K D $!%!i z p p c ' $ ",
"E % % L &!] ] t X 7 X ( '!(!. U B B )!n u *!+!: %!` 7 @ @ W ( $ ",
"& ( & 2 ,!O O -!%!%!.!$ t 0!{ U $!$!l v H & 1!B 2!1!| l l & % $ ",
"L # $ 6 F j j 6 I 3!4!) W 5!% $!%!%!L ,!: 6!5!7![ ] 8!e e [ ( $ ",
"R % & X K q q 9!.!7!,!$ K d d r 3!3!w A , , :!;!2 o c O O x 0 - ",
": ; , <!= b b =!>!T E 1 H W c <!?!?!q ?!@!A!7!b Q t N i i N % & ",
"I ,!( q 5!Z Z _ _ 7!B!C!$!7!D!E!7!7!-!P 7!F!7!G!y X p %!%!: ,!3 ",
"N : ) @!Z L L F W H!7!1!I!` J!7!K!K!L!- M!N!g O!5 P!V  ! !, 1 N ",
"! ! * I t ) ) t y Q!:!R!% L [ 7!K!K!5 ( C!] -!S!X l ,!5!5!. ; ' ",
"! # , ,!2 , , K i S!t K ( # H 7!n n * & - Y [ 4 &!% c F F 0 # ' ",
"- # ' % B!( ( % : L L ) & 4 '!7!z z 6!- E ' ( ! * , &!L L * # ' ",
"- # ! 4 W 2 2 l $ ; # ; ! - # 7!)!)!u : ! # ! ! ' J T!, , & # ( ",
"- # # ' ( A!A!l & # % % & % 1 s i i H : & & # - ) @!k * * # # ( ",
"! ' # # # 4 4 ' # # # # ( : & 4!%!%!% ; & % # ) F V ^ ! ! ' ' ' ",
"! ' ' ' ' # # # ' ' # ' ' L ) &!8!8!+ ; & ! % ( & ) # # # # $ ' ",
"- # ' ' ' # # ' ' ' # ' ! # , U!9!9!) L % # ' ' # ( ' ' ' ' # * ",
"! # ' ' ' ' ' ' ' # ' # # # ! & # # % $ $ ' # ' ' $ ' ' ' # # * ",
"# ' ' ' ' ' ' ' * # # ' ' # # ' # # ' ' # # # ' ' # ' ' ' ' $ * ",
"- ' * ' # ' ' ' ' # ' # # ' # ' ' ' $ ! ' # # ' ' ' * ' ' ' $ ) "};