/* XPM */ 
static char * mri_xpm[] = {
"16 16 114 2",
"  	c None",
"! 	c black",
"# 	c #171717",
"$ 	c #232323",
"% 	c #202020",
"& 	c #151515",
"' 	c #212121",
"( 	c #525252",
") 	c #6D6D6D",
"* 	c #676767",
"+ 	c #6B6B6B",
", 	c #7F7F7F",
"- 	c #4B4B4B",
". 	c #070707",
"0 	c #020202",
"1 	c #3B3B3B",
"2 	c #737373",
"3 	c #6F6F6F",
"4 	c #818181",
"5 	c #939393",
"6 	c #949494",
"7 	c #8C8C8C",
"8 	c #8B8B8B",
"9 	c #989898",
": 	c #656565",
"; 	c #030303",
"< 	c #373737",
"= 	c #707070",
"> 	c #959595",
"? 	c #979797",
"@ 	c #9A9A9A",
"A 	c #9C9C9C",
"B 	c #9D9D9D",
"C 	c #909090",
"D 	c #474747",
"E 	c #222222",
"F 	c #828282",
"G 	c #9B9B9B",
"H 	c #9E9E9E",
"I 	c #969696",
"J 	c #8E8E8E",
"K 	c #7E7E7E",
"L 	c #0D0D0D",
"M 	c #5D5D5D",
"N 	c #7A7A7A",
"O 	c #929292",
"P 	c #A1A1A1",
"Q 	c #2F2F2F",
"R 	c #101010",
"S 	c #999999",
"T 	c #919191",
"U 	c #848484",
"V 	c #8A8A8A",
"W 	c #A0A0A0",
"X 	c #3A3A3A",
"Y 	c #626262",
"Z 	c #8D8D8D",
"[ 	c #8F8F8F",
"] 	c #868686",
"^ 	c #878787",
"_ 	c #1A1A1A",
"` 	c #464646",
"a 	c #505050",
"b 	c #636363",
"c 	c #4F4F4F",
"d 	c #747474",
"e 	c #757575",
"f 	c #050505",
"g 	c #0E0E0E",
"h 	c #4A4A4A",
"i 	c #444444",
"j 	c #414141",
"k 	c #262626",
"l 	c #323232",
"m 	c #7B7B7B",
"n 	c #777777",
"o 	c #808080",
"p 	c #686868",
"q 	c #3E3E3E",
"r 	c #040404",
"s 	c #343434",
"t 	c #595959",
"u 	c #4D4D4D",
"v 	c #4E4E4E",
"w 	c #2A2A2A",
"x 	c #191919",
"y 	c #6E6E6E",
"z 	c #666666",
"{ 	c #535353",
"| 	c #888888",
"} 	c #2D2D2D",
"~ 	c #494949",
" !	c #353535",
"!!	c #4C4C4C",
"#!	c #565656",
"$!	c #161616",
"%!	c #2B2B2B",
"&!	c #484848",
"'!	c #3F3F3F",
"(!	c #454545",
")!	c #5B5B5B",
"*!	c #1D1D1D",
"+!	c #393939",
",!	c #383838",
"-!	c #2C2C2C",
".!	c #545454",
"0!	c #0C0C0C",
"1!	c #181818",
"2!	c #1B1B1B",
"3!	c #131313",
"4!	c #0B0B0B",
"5!	c #010101",
"6!	c #0A0A0A",
"7!	c #060606",
"! ! ! ! ! ! ! # $ % $ & ! ! ! ! ",
"! ! ! ! ! ' ( ) ) * + , - . ! ! ",
"! ! ! 0 1 2 3 4 5 6 7 8 9 : ; ! ",
"! ! ! < = , > ? @ @ A B C A D ! ",
"! ! E + F 9 ? A G A H H I J K L ",
"! ; M N O ? G O 6 G P H A A J Q ",
"! R + K C S 5 T B T U V G H W X ",
"! ' Y N Z [ 7 F C > ] 7 F C ^ $ ",
"! _ ` a + b D c d 9 V > N K e f ",
"! g h i j h k l m n o ) p G q ! ",
"r s t u j v w x y z p { | 8 . ! ",
"} M ~ h ` `  !# a + !!M A #!! ! ",
"$!%!&!~ l '!t !!(!)!1 t d *!! ! ",
"! ! % l +!1 j ,!-!,!-!.!.!_ ! ! ",
"! ! 0!# 1!2!E *!g & 3!2!% 4!! ! ",
"! ! 5!6!r 5!f 7!0 0 ; 5!! ! ! ! "};