/* XPM */ 
static char * multisliceview2_xpm[] = {
"32 32 73 1",
" 	c None",
"!	c #DBDDEA",
"#	c #D9DCE9",
"$	c #D7DAE8",
"%	c #D5D8E7",
"&	c #D3D6E6",
"'	c #D1D4E5",
"(	c #CED2E3",
")	c #CCD0E2",
"*	c #CACEE1",
"+	c #C8CCDF",
",	c #C6CADE",
"-	c #C4C8DD",
".	c #C1C5DB",
"0	c #BEC3DA",
"1	c #BCC1D9",
"2	c #B9BED7",
"3	c #B6BCD5",
"4	c #B4BAD4",
"5	c #B1B7D3",
"6	c #AFB5D1",
"7	c #ACB2CF",
"8	c #A9AFCE",
"9	c #A6ADCC",
":	c #A3AACA",
";	c #A0A7C9",
"<	c #9DA5C7",
"=	c #9AA1C5",
">	c #979EC3",
"?	c #949CC2",
"@	c #9098BF",
"A	c #8D96BE",
"B	c #8992BB",
"C	c #646568",
"D	c #3C3C3C",
"E	c #50535D",
"F	c #868FBA",
"G	c black",
"H	c #838CB8",
"I	c #2F2F2F",
"J	c #999999",
"K	c #BFBFBF",
"L	c #8089B6",
"M	c white",
"N	c #7C86B4",
"O	c #7882B2",
"P	c #747EAF",
"Q	c #707BAD",
"R	c #6E78AC",
"S	c #6A75A9",
"T	c #6671A7",
"U	c #626EA5",
"V	c #5D69A2",
"W	c #5966A0",
"X	c #56629E",
"Y	c #525F9C",
"Z	c #4E5B99",
"[	c #495797",
"]	c #455394",
"^	c #414F92",
"_	c #3D4B90",
"`	c #38478D",
"a	c #34438B",
"b	c #2F3F88",
"c	c #2B3A85",
"d	c #273783",
"e	c #223280",
"f	c #1D2E7D",
"g	c #18297B",
"h	c #142578",
"i	c #31354C",
"j	c #0F2175",
"k	c #0B1D73",
"!#$%&'()*+,-.0123456789:;<=>?@AB",
"#CDDDDDDDDDDDDDDDDDDDDDDDDDDDDEF",
"$DGGGGGGGGGGGGGGGGGGGGGGGGGGGGDH",
"%DGGIJKJIGGGGGIJKJIGGGGGIJKJIGDL",
"&DGIMMMMMIGGGIMMMMMIGGGIMMMMMIDN",
"'DGJMMMMMJGGGJMMMMMJGGGJMMMMMJDO",
"(DGKMMMMMKGGGKMMMMMKGGGKMMMMMKDP",
")DGJMMMMMJGGGJMMMMMJGGGJMMMMMJDQ",
"*DGIMMMMMIGGGIMMMMMIGGGIMMMMMIDR",
"+DGGIJKJIGGGGGIJKJIGGGGGIJKJIGDS",
",DGGGGGGGGGGGGGGGGGGGGGGGGGGGGDT",
"-DGGGGGGGGGGGGGGGGGGGGGGGGGGGGDU",
".DGGIJKJIGGGGGIJKJIGGGGGIJKJIGDV",
"0DGIMMMMMIGGGIMMMMMIGGGIMMMMMIDW",
"1DGJMMMMMJGGGJMMMMMJGGGJMMMMMJDX",
"2DGKMMMMMKGGGKMMMMMKGGGKMMMMMKDY",
"3DGJMMMMMJGGGJMMMMMJGGGJMMMMMJDZ",
"4DGIMMMMMIGGGIMMMMMIGGGIMMMMMID[",
"5DGGIJKJIGGGGGIJKJIGGGGGIJKJIGD]",
"6DGGGGGGGGGGGGGGGGGGGGGGGGGGGGD^",
"7DGGGGGGGGGGGGGGGGGGGGGGGGGGGGD_",
"8DGGIJKJIGGGGGIJKJIGGGGGIJKJIGD`",
"9DGIMMMMMIGGGIMMMMMIGGGIMMMMMIDa",
":DGJMMMMMJGGGJMMMMMJGGGJMMMMMJDb",
";DGKMMMMMKGGGKMMMMMKGGGKMMMMMKDc",
"<DGJMMMMMJGGGJMMMMMJGGGJMMMMMJDd",
"=DGIMMMMMIGGGIMMMMMIGGGIMMMMMIDe",
">DGGIJKJIGGGGGIJKJIGGGGGIJKJIGDf",
"?DGGGGGGGGGGGGGGGGGGGGGGGGGGGGDg",
"@DGGGGGGGGGGGGGGGGGGGGGGGGGGGGDh",
"AEDDDDDDDDDDDDDDDDDDDDDDDDDDDDij",
"BFHLNOPQRSTUVWXYZ[]^_`abcdefghjk"};