/* XPM */ 
static const unsigned char * multisliceview_xpm[] = {
"32 32 8 1",
" 	c None",
"!	c #000080",
"#	c black",
"$	c #2F2F2F",
"%	c #999999",
"&	c #BFBFBF",
"'	c white",
"(	c #D93600",
"!!!!!!!!!!!!!!!!!!!!!!!!!!!!!!!!",
"!##############################!",
"!###$%&%$#####$%&%$#####$%&%$##!",
"!##$'((''$###$'((('$###$'((('$#!",
"!##%''(''%###%'''('%###%'''('%#!",
"!##&''(''&###&'((('&###&''(('&#!",
"!##%''(''%###%'('''%###%'''('%#!",
"!##$''(''$###$'((('$###$'((('$#!",
"!###$%&%$#####$%&%$#####$%&%$##!",
"!##############################!",
"!##############################!",
"!###$%&%$#####$%&%$#####$%&%$##!",
"!##$'('('$###$'((('$###$'((('$#!",
"!##%'('('%###%'('''%###%'('''%#!",
"!##&'((('&###&'((('&###&'((('&#!",
"!##%'''('%###%'''('%###%'('('%#!",
"!##$'''('$###$'((('$###$'((('$#!",
"!###$%&%$#####$%&%$#####$%&%$##!",
"!##############################!",
"!##############################!",
"!###$%&%$#####$%&%$#####$%&%$##!",
"!##$'((('$###$'((('$###$'((('$#!",
"!##%'''('%###%'('('%###%'('('%#!",
"!##&'''('&###&'((('&###&'((('&#!",
"!##%''(''%###%'('('%###%'''('%#!",
"!##$''(''$###$'((('$###$'''('$#!",
"!###$%&%$#####$%&%$#####$%&%$##!",
"!##############################!",
"!##############################!",
"!##############################!",
"!##############################!",
"!!!!!!!!!!!!!!!!!!!!!!!!!!!!!!!!"};