/* XPM */ 
static char * multipledicom_xpm[] = {
"32 32 193 2",
"  	c None",
"! 	c black",
"# 	c #383838",
"$ 	c #9A9A9A",
"% 	c #ACACAC",
"& 	c #B0B0B0",
"' 	c #B8B8B8",
"( 	c #B4B4B4",
") 	c #858585",
"* 	c #7B7B7B",
"+ 	c #E0E0E0",
", 	c #888888",
"- 	c #959595",
". 	c #CACACA",
"0 	c #C6C6C6",
"1 	c #969696",
"2 	c #A9A9A9",
"3 	c #919191",
"4 	c #6E6E6E",
"5 	c #A6A6A6",
"6 	c #AFAFAF",
"7 	c #6F6F6F",
"8 	c #D1D1D1",
"9 	c #B1B1B1",
": 	c #8E8E8E",
"; 	c #848484",
"< 	c #828282",
"= 	c #4E4E4E",
"> 	c #989898",
"? 	c #727272",
"@ 	c #898989",
"A 	c #8F8F8F",
"B 	c #787878",
"C 	c #606060",
"D 	c #636363",
"E 	c #646464",
"F 	c #717171",
"G 	c #676767",
"H 	c #AAAAAA",
"I 	c #A3A3A3",
"J 	c #909090",
"K 	c #686868",
"L 	c #525252",
"M 	c #626262",
"N 	c #393939",
"O 	c #535353",
"P 	c #4B4B4B",
"Q 	c #737373",
"R 	c #949494",
"S 	c #C4C4C4",
"T 	c #9D9D9D",
"U 	c #696969",
"V 	c #575757",
"W 	c #464646",
"X 	c #767676",
"Y 	c #434343",
"Z 	c #2C2C2C",
"[ 	c #555555",
"] 	c #6C6C6C",
"^ 	c #545454",
"_ 	c #A1A1A1",
"` 	c #B2B2B2",
"a 	c #BBBBBB",
"b 	c #5E5E5E",
"c 	c #494949",
"d 	c #595959",
"e 	c #4C4C4C",
"f 	c #3C3C3C",
"g 	c #3D3D3D",
"h 	c #2B2B2B",
"i 	c #2E2E2E",
"j 	c #111111",
"k 	c #242424",
"l 	c #C0C0C0",
"m 	c #939393",
"n 	c #4F4F4F",
"o 	c #3F3F3F",
"p 	c #323232",
"q 	c #343434",
"r 	c #1D1D1D",
"s 	c #2F2F2F",
"t 	c #141414",
"u 	c #4A4A4A",
"v 	c #1A1A1A",
"w 	c #444444",
"x 	c #060606",
"y 	c #1B1B1B",
"z 	c #2A2A2A",
"{ 	c #808080",
"| 	c #A7A7A7",
"} 	c #5C5C5C",
"~ 	c #4D4D4D",
" !	c #585858",
"!!	c #171717",
"#!	c #252525",
"$!	c #0E0E0E",
"%!	c #0B0B0B",
"&!	c #272727",
"'!	c #050505",
"(!	c #5F5F5F",
")!	c #B9B9B9",
"*!	c #414141",
"+!	c #262626",
",!	c #202020",
"-!	c #232323",
".!	c #0F0F0F",
"0!	c #020202",
"1!	c #1C1C1C",
"2!	c #161616",
"3!	c #121212",
"4!	c #515151",
"5!	c #616161",
"6!	c #222222",
"7!	c #040404",
"8!	c #090909",
"9!	c #101010",
":!	c #0A0A0A",
";!	c #181818",
"<!	c #3E3E3E",
"=!	c #8C8C8C",
">!	c #666666",
"?!	c #373737",
"@!	c #131313",
"A!	c #1E1E1E",
"B!	c #080808",
"C!	c #070707",
"D!	c #0C0C0C",
"E!	c #484848",
"F!	c #C7C7C7",
"G!	c #9C9C9C",
"H!	c #5D5D5D",
"I!	c #363636",
"J!	c #0D0D0D",
"K!	c #030303",
"L!	c #191919",
"M!	c #333333",
"N!	c #C5C5C5",
"O!	c #C2C2C2",
"P!	c #7C7C7C",
"Q!	c #353535",
"R!	c #404040",
"S!	c #424242",
"T!	c #303030",
"U!	c #979797",
"V!	c #656565",
"W!	c #6A6A6A",
"X!	c #212121",
"Y!	c #454545",
"Z!	c #1F1F1F",
"[!	c #474747",
"]!	c #292929",
"^!	c #868686",
"_!	c #8B8B8B",
"`!	c #A0A0A0",
"a!	c #7A7A7A",
"b!	c #757575",
"c!	c #B7B7B7",
"d!	c #8D8D8D",
"e!	c #E2E2E2",
"f!	c #7E7E7E",
"g!	c #6B6B6B",
"h!	c #747474",
"i!	c #A4A4A4",
"j!	c #A8A8A8",
"k!	c #F5F5F5",
"l!	c #E5E5E5",
"m!	c #565656",
"n!	c #2D2D2D",
"o!	c #ADADAD",
"p!	c #CDCDCD",
"q!	c #CCCCCC",
"r!	c #777777",
"s!	c #3B3B3B",
"t!	c #151515",
"u!	c #797979",
"v!	c #929292",
"w!	c #5B5B5B",
"x!	c #DDDDDD",
"y!	c #E8E8E8",
"z!	c #B3B3B3",
"{!	c #818181",
"|!	c #BCBCBC",
"}!	c #E6E6E6",
"~!	c #ECECEC",
" #	c #7D7D7D",
"!#	c #9F9F9F",
"##	c #505050",
"$#	c #707070",
"%#	c #999999",
"&#	c #878787",
"'#	c #00004A",
"(#	c #000080",
")#	c white",
"                          # # # # # # # #                       ",
"                    $ # # # % & ' ( ) * # # # +                 ",
"                , # # - . 0 1 $ 2 3 4 - 5 ! ! ! ! ! ! ! !       ",
"            6 # # 7 8 % 9 : ; < < = $ ! ! ! % & ' ( ) * ! ! ! + ",
"          > # ? ( @ A B C D E F , ! ! - . 0 1 $ 2 3 4 - 5 G ! ! ",
"        H # 2 I J K L M N O 6 ! ! 7 8 % 9 : ; < < = P Q I - R B ",
"      S # 0 T Q U V W E W > ! ? ( @ A B C D E F X Y Z [ ] ^ M _ ",
"      # ` a b c d Y N e H ! 2 I J K L M N O # f g O h d i j k F ",
"    _ # l m n o p n q S ! 0 T Q U V W E W G r s t u v w r x y z ",
"    # { | P Y s i } ~ ! ` a b c d Y N e  !M h v !!#!$!%!&!$!x '!",
"  # (!)!= &!*!+!O # _ ! l m n o p n q ,!N -!.!0!1!0!t j 2!Z 3!%!",
"  # # I X 4![ #!5!! ! { | P Y s i } ~ 2!6!h 7!8!9!.!.!0!:!;!x v ",
"  # <!=!>!?!4!h s ! (!)!= &!*!+!O @!r F E .!A!i r ^ B!! C!! D!! ",
"  # E!F!G!H!<!&!I!! # I X 4![ #!5!J!8!P #!'!K!8!y X c ~ L!'!v 8!",
"  # M!N!O!P![ &!Q!! <!=!>!?!4!h s v p R!J!+!1!:!$!S!4 >!T!g ! %!",
"    # P!% U!* V!^ ! E!F!G!H!<!&!I!S!O W!*!X!y 0!! .!Y!k Z!u [!'!",
"    # W 1 T - > R ! M!N!O!P![ &!Q!]!S!7 C n [!7!! '!!!0!8!s S!3!",
"    # d : ^!3 ( I 5 ! P!% U!* V!^ U _!`!Q!u 4 ! 0!! I!%!! t 2!y ",
"  # # a!>!b!^!c!d!J ! W 1 T - > R a 8 e!E f!B .!! x O :!'!! 8!x ",
"# e { D >!g!h!i!j!f!! d : ^!3 ( I 5 c!k!l!l!T R!:!! g ! D!'!8!2!",
"{ { * _!V m!n!S!o!! ! a!>!b!^!c!d!J c!8 p!q!I r!o ! 9!C!0!n!A!s!",
"{ % 7 E t!8!B!X ! e { D >!g!h!i!j!f!a u!>!v!@!<!a!B!j x x L!L r!",
"  # b w!?!+!H!! { { * _!V m!n!S!o!e!x!y!s!1![!~ z!>!X!3!Z [!a!X!",
"  # # > w!U {!! ! % 7 E t!8!B!X z!)!= |!}!~!X `!W!% h!f!B '!K!.!",
"  # # { > w!U {!X ! b w!?!+!H! #_!!#M >!o G!$ j!##$#%#&#K s!]!x ",
"'#(#(#(#(#(#(#(#(#(#(#(#(#(#(#(#(#(#(#(#(#(#(#(#(#(#(#(#(#(#(#'#",
"'#(#(#(#(#)#)#)#(#(#)#(#(#)#)#)#(#(#)#)#(#(#)#(#(#(#)#(#(#(#(#'#",
"'#(#(#(#(#)#(#(#)#(#)#(#)#(#(#(#(#)#(#(#)#(#)#)#(#)#)#(#(#(#(#'#",
"'#(#(#(#(#)#(#(#)#(#)#(#)#(#(#(#(#)#(#(#)#(#)#(#)#(#)#(#(#(#(#'#",
"'#(#(#(#(#)#(#(#)#(#)#(#)#(#(#(#(#)#(#(#)#(#)#(#(#(#)#(#(#(#(#'#",
"'#(#(#(#(#)#)#)#(#(#)#(#(#)#)#)#(#(#)#)#(#(#)#(#(#(#)#(#(#(#(#'#",
"'#(#(#(#(#(#(#(#(#(#(#(#(#(#(#(#(#(#(#(#(#(#(#(#(#(#(#(#(#(#(#'#"};