/* XPM */ 
static char * mydocuments_xpm[] = {
"32 32 144 2",
"  	c None",
"! 	c black",
"# 	c #5AB6FF",
"$ 	c #E7EFFF",
"% 	c #84C7FF",
"& 	c #7BC3FF",
"' 	c #849ECE",
"( 	c #DEEBFF",
") 	c white",
"* 	c #EFF3FF",
"+ 	c #29A6FF",
", 	c #FFFFF7",
"- 	c #C6DBF7",
". 	c #FFFBFF",
"0 	c #EFF7FF",
"1 	c #BDD3F7",
"2 	c #F7FBFF",
"3 	c #9CCFFF",
"4 	c #C6E3FF",
"5 	c #ADD7FF",
"6 	c #B5DBFF",
"7 	c #A5D3FF",
"8 	c #BDDFFF",
"9 	c #8CA6D6",
": 	c #CE9A00",
"; 	c #CEE3F7",
"< 	c #8C8EBD",
"= 	c #EFDB9C",
"> 	c #F7E7BD",
"? 	c #CEE3C6",
"@ 	c #B5CFEF",
"A 	c #DEEFFF",
"B 	c #E7F3FF",
"C 	c #CEE7FF",
"D 	c #BDDBFF",
"E 	c #B5D7EF",
"F 	c #FFFFCE",
"G 	c #FFFBB5",
"H 	c #FFF7A5",
"I 	c #D6EBFF",
"J 	c #9CB2D6",
"K 	c #FFFBE7",
"L 	c #FFFF9C",
"M 	c #E7EBAD",
"N 	c #BDEBFF",
"O 	c #FFFB94",
"P 	c #EFE79C",
"Q 	c #73829C",
"R 	c #737173",
"S 	c #FFFFAD",
"T 	c #FFF78C",
"U 	c #CEC794",
"V 	c #94BEF7",
"W 	c #C6BE84",
"X 	c #C6AE5A",
"Y 	c #BDA642",
"Z 	c #C69600",
"[ 	c #BD9621",
"] 	c #947929",
"^ 	c #FFEB84",
"_ 	c #8CB2E7",
"` 	c #B5CBBD",
"a 	c #ADAEA5",
"b 	c #DEBE63",
"c 	c #E7CF7B",
"d 	c #F7DFAD",
"e 	c #FFFBEF",
"f 	c #AD8A21",
"g 	c #FFF39C",
"h 	c #FFF38C",
"i 	c #FFDF7B",
"j 	c #F7FBEF",
"k 	c #F7FFFF",
"l 	c #E7F7FF",
"m 	c #E7C773",
"n 	c #FFE39C",
"o 	c #FFE784",
"p 	c #FFD773",
"q 	c #9CB6CE",
"r 	c #F7EFCE",
"s 	c #BDEFFF",
"t 	c #C6F7FF",
"u 	c #ADE3FF",
"v 	c #FFFFEF",
"w 	c #FFFFDE",
"x 	c #BD9210",
"y 	c #FFDB73",
"z 	c #F7CF5A",
"{ 	c #E7BE39",
"| 	c #DEB229",
"} 	c #E7BE5A",
"~ 	c #EFD38C",
" !	c #FFF3DE",
"!!	c #ADDFFF",
"#!	c #B5E7FF",
"$!	c #FFFFE7",
"%!	c #FFDB94",
"&!	c #FFD76B",
"'!	c #F7C752",
"(!	c #DEBA52",
")!	c #EFD78C",
"*!	c #CEA221",
"+!	c #FFDB84",
",!	c #FFCF6B",
"-!	c #DEB642",
".!	c #FFFFA5",
"0!	c #ADCFF7",
"1!	c #A5DBFF",
"2!	c #FFDF73",
"3!	c #FFCB63",
"4!	c #FFEB8C",
"5!	c #A5D3F7",
"6!	c #A5D7FF",
"7!	c #FFF794",
"8!	c #D6AE18",
"9!	c #FFD784",
":!	c #E7B631",
";!	c #FFFF94",
"<!	c #BDD3D6",
"=!	c #FFFFBD",
">!	c #F7C352",
"?!	c #E7B231",
"@!	c #D6AE29",
"A!	c #EFBA42",
"B!	c #FFFFD6",
"C!	c #FFE37B",
"D!	c #FFD36B",
"E!	c #B58A08",
"F!	c #FFD77B",
"G!	c #DEB221",
"H!	c #FFF3B5",
"I!	c #FFEF84",
"J!	c #DEAA21",
"K!	c #FFDB6B",
"L!	c #BD8E08",
"M!	c #FFF3D6",
"N!	c #F7D763",
"O!	c #EFC34A",
"P!	c #CE9E10",
"Q!	c #FFEFB5",
"R!	c #FFD363",
"S!	c #D6A610",
"T!	c #FFF7E7",
"U!	c #DEBA4A",
"                          # # # # #                             ",
"                        # $ % # & # '                           ",
"                      # ( ) * + & ) , '                         ",
"                    # - ) ) ) * . 0 0 ) '                       ",
"                  # 1 ) ) ) ) ) 2 3 4 0 2 '                     ",
"                  # 0 2 2 2 2 2 5 6 7 4 2 0 '                   ",
"                # ( 2 2 2 2 2 8 5 5 6 5 4 0 ( 9                 ",
"        : : : # - 0 0 0 0 0 4 7 6 5 5 5 5 4 0 ; <               ",
"      : = > ? @ A B B B B C 3 8 3 D 7 6 5 7 C B E <             ",
"    : > F G H 9 3 I A A I 3 8 3 8 3 6 7 5 5 A A A J <           ",
"    : K L L L M J 7 I I 7 6 3 6 3 8 3 6 7 C I I A N J <         ",
"    : G L L L O P 9 7 8 5 7 5 7 5 3 6 3 6 3 I I 4 3 Q R         ",
"    : S L L L L T U V 5 8 7 7 5 7 5 3 5 3 4 ; ? W X Y Z [ ]     ",
"    : H O O O O O ^ U _ 5 6 7 7 ` a W X W b c d > 2 . e f ]     ",
"    : g h h h h h h i a _ 5 @ Y = > j ) k 0 l D $ , , m ] ]     ",
"    : n o o o o o o o p a q X r B 8 7 s t t u 8 v v w x ]       ",
"    : n i i i y z { | } m ~  !l !!3 #!s s u @ $!$!$!m ] ]       ",
"    : %!&!&!'!(!d  !) v $!F ; !!#!u #!#!u 7 )!w w w *!]         ",
"    : +!,!,!-!) F G S S S .!h 0!1!!!!!!!3 M 2!F F )!] ]         ",
"    : %!3!'!m w L L L L L L O 4!5!6!1!3 ? 7!y F F 8!]           ",
"    : 9!'!:!r G ;!;!;!;!;!;!;!h )!5!3 <!o ;!y =!4!f ]           ",
"    : %!>!?!) 7!7!7!7!7!7!7!7!7!^ ~ <!+!T 7!p G @!]             ",
"    : 9!A!m B!h h h h h h h h h h C!D!^ h h &!7!E!]             ",
"    : F!G!> H!I!I!I!I!I!I!I!I!I!I!I!o I!I!I!&!{ ]               ",
"    : F!J!) 4!^ ^ ^ ^ ^ ^ ^ ^ ^ ^ ^ ^ ^ ^ ^ K!L!]               ",
"    : 9!(!M!C!C!C!C!C!C!C!C!C!C!C!C!C!N!O!| P!]                 ",
"    : '!d Q!i i i i i i i i y z { J!E!f ] ] ]                   ",
"      : ) F!y y y y R!O!:!S!E!] ] ] ] ]                         ",
"      : T!&!z A!G!P!f ] ] ] ] ]                                 ",
"      : U!E!f ] ] ] ] ]                                         ",
"        ] ] ] ]                                                 ",
"                                                                "};