/* XPM */ 
static char * normalview_xpm[] = {
"32 32 213 2",
"  	c None",
"! 	c #DBDDEA",
"# 	c #D9DCE9",
"$ 	c #D7DAE8",
"% 	c #D5D8E7",
"& 	c #D3D6E6",
"' 	c #D1D4E5",
"( 	c #CED2E3",
") 	c #CCD0E2",
"* 	c #CACEE1",
"+ 	c #C8CCDF",
", 	c #C6CADE",
"- 	c #C4C8DD",
". 	c #C1C5DB",
"0 	c #BEC3DA",
"1 	c #BCC1D9",
"2 	c #B9BED7",
"3 	c #B6BCD5",
"4 	c #B4BAD4",
"5 	c #B1B7D3",
"6 	c #AFB5D1",
"7 	c #ACB2CF",
"8 	c #A9AFCE",
"9 	c #A6ADCC",
": 	c #A3AACA",
"; 	c #A0A7C9",
"< 	c #9DA5C7",
"= 	c #9AA1C5",
"> 	c #979EC3",
"? 	c #949CC2",
"@ 	c #9098BF",
"A 	c #8D96BE",
"B 	c #8992BB",
"C 	c #A7A7A7",
"D 	c #A6A6A6",
"E 	c #A5A5A5",
"F 	c #A4A4A4",
"G 	c #A2A2A2",
"H 	c #A1A1A1",
"I 	c #A0A0A0",
"J 	c #9F9F9F",
"K 	c #9D9D9D",
"L 	c #9C9C9C",
"M 	c #9A9A9A",
"N 	c #999999",
"O 	c #979797",
"P 	c #969696",
"Q 	c #959595",
"R 	c #939393",
"S 	c #919191",
"T 	c #8F8F8F",
"U 	c #8D8D8D",
"V 	c #8B8B8B",
"W 	c #8A8A8A",
"X 	c #878787",
"Y 	c #868686",
"Z 	c #838383",
"[ 	c #828282",
"] 	c #7F7F7F",
"^ 	c #7D7D7D",
"_ 	c #7B7B7B",
"` 	c #787878",
"a 	c #767676",
"b 	c #868FBA",
"c 	c black",
"d 	c #747474",
"e 	c #838CB8",
"f 	c #242424",
"g 	c #707070",
"h 	c #272727",
"i 	c #3A3A3A",
"j 	c #222222",
"k 	c #717171",
"l 	c #8089B6",
"m 	c #2D2D2D",
"n 	c #2E2E2E",
"o 	c #3F3F3F",
"p 	c #3D3D3D",
"q 	c #525252",
"r 	c #505050",
"s 	c #202020",
"t 	c #494949",
"u 	c #282828",
"v 	c #898989",
"w 	c #6F6F6F",
"x 	c #7C86B4",
"y 	c #2F2F2F",
"z 	c #232323",
"{ 	c #484848",
"| 	c #616161",
"} 	c #5D5D5D",
"~ 	c #575757",
" !	c #515151",
"!!	c #5A5A5A",
"#!	c #808080",
"$!	c #696969",
"%!	c #333333",
"&!	c #6C6C6C",
"'!	c #7882B2",
"(!	c #373737",
")!	c #414141",
"*!	c #5B5B5B",
"+!	c #6A6A6A",
",!	c #6D6D6D",
"-!	c #7E7E7E",
".!	c #595959",
"0!	c #363636",
"1!	c #464646",
"2!	c #747EAF",
"3!	c #383838",
"4!	c #545454",
"5!	c #686868",
"6!	c #4D4D4D",
"7!	c #727272",
"8!	c #454545",
"9!	c #636363",
":!	c #666666",
";!	c #3E3E3E",
"<!	c #A9A9A9",
"=!	c #676767",
">!	c #707BAD",
"?!	c #353535",
"@!	c #343434",
"A!	c #5F5F5F",
"B!	c #7A7A7A",
"C!	c #474747",
"D!	c #656565",
"E!	c #6E78AC",
"F!	c #262626",
"G!	c #5C5C5C",
"H!	c #6E6E6E",
"I!	c #4F4F4F",
"J!	c #888888",
"K!	c #5E5E5E",
"L!	c #8C8C8C",
"M!	c #535353",
"N!	c #434343",
"O!	c #626262",
"P!	c #6A75A9",
"Q!	c #797979",
"R!	c #646464",
"S!	c #606060",
"T!	c #929292",
"U!	c #D5D5D5",
"V!	c #6671A7",
"W!	c #3C3C3C",
"X!	c #565656",
"Y!	c #858585",
"Z!	c #818181",
"[!	c #949494",
"]!	c #E0E0E0",
"^!	c #626EA5",
"_!	c #848484",
"`!	c #4C4C4C",
"a!	c #757575",
"b!	c #4B4B4B",
"c!	c #404040",
"d!	c #5D69A2",
"e!	c #737373",
"f!	c #6B6B6B",
"g!	c #444444",
"h!	c #5966A0",
"i!	c #F4F4F4",
"j!	c #2B2B2B",
"k!	c #2C2C2C",
"l!	c #585858",
"m!	c #777777",
"n!	c #7C7C7C",
"o!	c #4E4E4E",
"p!	c #56629E",
"q!	c white",
"r!	c #525F9C",
"s!	c #393939",
"t!	c #3B3B3B",
"u!	c #313131",
"v!	c #303030",
"w!	c #E8E8E8",
"x!	c #4E5B99",
"y!	c #4A4A4A",
"z!	c #555555",
"{!	c #252525",
"|!	c #212121",
"}!	c #495797",
"~!	c #424242",
" #	c #C0C0C0",
"!#	c #FBFBFB",
"##	c #455394",
"$#	c #292929",
"%#	c #323232",
"&#	c #414F92",
"'#	c #1F1F1F",
"(#	c #E9E9E9",
")#	c #3D4B90",
"*#	c #BABABA",
"+#	c #BDBDBD",
",#	c #DEDEDE",
"-#	c #ADADAD",
".#	c #38478D",
"0#	c #34438B",
"1#	c #2A2A2A",
"2#	c #EAEAEA",
"3#	c #2F3F88",
"4#	c #989898",
"5#	c #E1E1E1",
"6#	c #2B3A85",
"7#	c #DBDBDB",
"8#	c #273783",
"9#	c #223280",
":#	c #1D2E7D",
";#	c #18297B",
"<#	c #142578",
"=#	c #0F2175",
">#	c #0B1D73",
"! # $ % & ' ( ) * + , - . 0 1 2 3 4 5 6 7 8 9 : ; < = > ? @ A B ",
"# C D E F G H I J K L M N O P Q R S T U V W X Y Z [ ] ^ _ ` a b ",
"$ D c c c c c c c c c c c c c c c c c c c c c c c c c c c c d e ",
"% E c c c c c c c c c c c f g g U h i h g g R j c c c c c c k l ",
"& F c c c c c c c c c c g m n f o p q r s t u g v j c c c c w x ",
"' G c c c c c c c g y z { | } ~  !t !!#!$!w d ~ %!t s c c c &!'!",
"( H c c c c c c g y (!)!| | | *!+!,!d t +!-!^ .!0!1!g z c c +!2!",
") I c c c c j +!%!3!4!5!g 6!7!8!9!&!d 1!:!Z Z -!] ;!<!(!c c =!>!",
"* J c c c c g ?!@!.!,!w A!:!=!` ] B!w #!` $!W #!Z C!p g c c D!E!",
"+ K c c c A!F!3!r 5!G!D!H!H!I!7!$!v J!Y -!-!K!L!#!M!@!N!?!c O!P!",
", L c c c g 0!t +!r g Q!B!=!R!P S!} K!T!B!U V d X -!h S!U!c A!V!",
"- M c c c %!W!q &!6!a S!U *!X!A!Y!X K!Z![!W Y a #!7!N!I!]!c G!^!",
". N c c c %!z X!I!d g .!9!k _!$!U B!Q!| `!r o [ _ w a!b!c!c !!d!",
"0 O c c c 5!F!:!| g | Q!a!M!,!e!Y Q T!X!] &!D!f!Y Q!#!g!6!c ~ h!",
"1 P c c c i!j!k!l!&!O!g | 5!$!} q ] ] Z m!n!*!e!Z Z!o!_ [!c M!p!",
"2 Q c c c J 9!o t N!C!7!*!0!T!6!`!W v a!S L![ Z A!Z 3!z q!c  !r!",
"3 R c c c Q![!s!t!j!u!v!3!F!s!M p W J!r X!L!n!v +!:!a (!w!c o!x!",
"4 S c c c 9!y!q 6!t y z!{!j |!j s *![ ,!Y!Y L!Z 7!8!z d | c b!}!",
"5 T c c |!~!!!O!z!r W!w ~ :!f W  #{ I!7!Z Y!=!f!| | n!!#h c C!##",
"6 U c `!~ %!v!.!G!5!K!X!j j s X ~ K!?!a o!l!$#a!q!R!q!%#c c g!&#",
"7 V c )!@!%#s!%#m p c!u z z j '#X!+!9!A!y!*!(#q!Y M!q!{!c c )!)#",
"8 W c u k!d r I *#6!;!X!Z C +!m I!?!C!t!W!+#q!,#-#f!q!$#c c ;!.#",
"9 X c c c `!o m!%!y!6!q X!C!R!k j!t ~ o y!T Q!q q!X!q!f c c t!0#",
": Y c c c 1!f (!r t r I! !9!K!o!j z!o 8!6!1#A!D!,#z!2#1#c c (!3#",
"; Z c c c D!1#{ X!I!y!y!I!| 4!} f { `!o o!5!=!S!4#`!5#c c c @!6#",
"< [ c c c p o!y { o!I!8!o!4!4!{ f z W!t i )!T! ! !I!7#c c c v!8#",
"= ] c c c c 1#b!m D!c!%!t!(!(!N!o!s ~!t n 0!&!4!z!S!C h c c m 9#",
"> ^ c c c c y t F!!!y %#G!6!F!`!f f 1#)!y ;!u!N!b!o!f!s c c $#:#",
"? _ c c c c s c %!k!%#o p i y 1#n j!0!j!k!y s!%!p g!c f c c F!;#",
"@ ` c c c c c c c c c c c c c c c c c c c c c c c c c c c c j <#",
"A a d k w &!+!=!D!O!A!G!!!~ M! !o!b!C!g!)!;!t!(!@!v!m $#F!j '#=#",
"B b e l x '!2!>!E!P!V!^!d!h!p!r!x!}!##&#)#.#0#3#6#8#9#:#;#<#=#>#"};