/* XPM */ 
static const char * openfile_16_xpm[] = {
"16 16 149 2",
"  	c None",
"! 	c black",
"# 	c #EDA8A2",
"$ 	c #EA2C25",
"% 	c #F80C09",
"& 	c #F41B1C",
"' 	c #E76666",
"( 	c #D16F6E",
") 	c #CC3D46",
"* 	c #EE5A63",
"+ 	c #F81417",
", 	c #FC0000",
"- 	c #F80F0F",
". 	c #ED5757",
"0 	c #E98888",
"1 	c #E56B6B",
"2 	c #D4A620",
"3 	c #E1C075",
"4 	c #E8D07B",
"5 	c #E1B88C",
"6 	c #CC2E33",
"7 	c #C20507",
"8 	c #D8A072",
"9 	c #DE8575",
": 	c #F3272B",
"; 	c #FE0000",
"< 	c #FD0000",
"= 	c #FB0000",
"> 	c #EB5F5F",
"? 	c #E7CE63",
"@ 	c #FFFFB3",
"A 	c #FFFFA8",
"B 	c #D25144",
"C 	c #C60000",
"D 	c #D05F30",
"E 	c #EBDD6D",
"F 	c #F4E897",
"G 	c #E8B487",
"H 	c #F0292F",
"I 	c #FD0002",
"J 	c #EA6968",
"K 	c #C18100",
"L 	c #F3E582",
"M 	c #FEFDA0",
"N 	c #EDCF87",
"O 	c #C7090D",
"P 	c #C40001",
"Q 	c #E6AA80",
"R 	c #FFFFA3",
"S 	c #FDF88F",
"T 	c #FEFA90",
"U 	c #E1AF43",
"V 	c #E06230",
"W 	c #F42327",
"X 	c #F8050A",
"Y 	c #E12425",
"Z 	c #F1DA6D",
"[ 	c #FFFE98",
"] 	c #E7A86C",
"^ 	c #C60402",
"_ 	c #D02706",
"` 	c #E7B057",
"a 	c #F2E689",
"b 	c #EFDEA6",
"c 	c #F4E8B6",
"d 	c #F8EBB7",
"e 	c #F6FCE0",
"f 	c #F7E8DD",
"g 	c #D77D5F",
"h 	c #F2CF68",
"i 	c #FEE980",
"j 	c #ECB150",
"k 	c #E8A758",
"l 	c #F6DE86",
"m 	c #F4DE96",
"n 	c #FDFCDF",
"o 	c #FFFFDC",
"p 	c #FFFFDB",
"q 	c #FEEBAE",
"r 	c #FFFFFB",
"s 	c #EADCA3",
"t 	c #947E1F",
"u 	c #F4C962",
"v 	c #F9C961",
"w 	c #F4E79B",
"x 	c #FFFFB2",
"y 	c #FFFFBA",
"z 	c #FFFFBB",
"{ 	c #FFFFAD",
"| 	c #FEFDA8",
"} 	c #FEFEAB",
"~ 	c #FDEC96",
" !	c #FFFED7",
"!!	c #C0A34D",
"#!	c #F1C14E",
"$!	c #F5CA72",
"%!	c #FDFDBE",
"&!	c #FEF991",
"'!	c #FEF894",
"(!	c #FEF994",
")!	c #FEFB97",
"*!	c #FFFB96",
"+!	c #FDFC95",
",!	c #FEF296",
"-!	c #F0E290",
".!	c #9B791A",
"0!	c #ECBA45",
"1!	c #F1D790",
"2!	c #FFFAA4",
"3!	c #FDF288",
"4!	c #FEF48E",
"5!	c #FEF38D",
"6!	c #FDF28B",
"7!	c #FBF38D",
"8!	c #FFF18D",
"9!	c #CCAF45",
":!	c #E7BA43",
";!	c #F6E7AB",
"<!	c #FEEB85",
"=!	c #FCE880",
">!	c #FEEA84",
"?!	c #FFEC86",
"@!	c #FFEE87",
"A!	c #FFF089",
"B!	c #FFF086",
"C!	c #F7D55C",
"D!	c #A9871F",
"E!	c #E9C361",
"F!	c #FFECAB",
"G!	c #FFE479",
"H!	c #FFE680",
"I!	c #FFE275",
"J!	c #FBD869",
"K!	c #E9C657",
"L!	c #D3AE3E",
"M!	c #BA9936",
"N!	c #A58424",
"O!	c #E0BD55",
"P!	c #F0CF76",
"Q!	c #DEB53F",
"R!	c #CBA537",
"S!	c #B18F2F",
"T!	c #A3811E",
"U!	c #917523",
"V!	c #8E7220",
"W!	c #AE8A21",
"X!	c #9F801F",
"Y!	c #8E7322",
"Z!	c #8C7121",
"                # $ % & '       ",
"              ( ) * + , - . 0 1 ",
"    2 3 4 5 6 7   8 9 : ; < = > ",
"    ? @ A B C D E F G H I ; = J ",
"  K L M N O P Q R S T U V W X Y ",
"    Z [ ] ^ _ ` a b c d e f g   ",
"    h i j k l m n o p q r s t   ",
"    u v w x y z { | } ~  !!!    ",
"    #!$!%!&!'!(!)!*!+!,!-!.!    ",
"    0!1!2!3!4!5!5!6!7!8!9!      ",
"    :!;!<!=!>!?!@!A!B!C!D!      ",
"    E!F!G!H!I!J!K!L!M!N!        ",
"    O!P!Q!R!S!T!U!V!            ",
"    W!X!Y!Z!                    ",
"                                ",
"                                "};