/* XPM */ 
static char * openfolder_xpm[] = {
"32 32 101 2",
"  	c None",
"! 	c black",
"# 	c #CE9A00",
"$ 	c #FFFFEF",
"% 	c #FFFFE7",
"& 	c #FFFFCE",
"' 	c #FFFFC6",
"( 	c #FFFFB5",
") 	c #FFFFD6",
"* 	c #F7E7BD",
"+ 	c #FFFFA5",
", 	c #FFFF9C",
"- 	c #FFFBE7",
". 	c #E7CB7B",
"0 	c #F7E7B5",
"1 	c #FFF3CE",
"2 	c #FFFFDE",
"3 	c #FFFBCE",
"4 	c #FFFBD6",
"5 	c #FFFFBD",
"6 	c #FFFFAD",
"7 	c #FFFBAD",
"8 	c #FFFB94",
"9 	c #FFFB8C",
": 	c #F7E773",
"; 	c #EFD75A",
"< 	c #D6A610",
"= 	c #CE9E08",
"> 	c #AD8A21",
"? 	c #947929",
"@ 	c #FFF7A5",
"A 	c #DEB629",
"B 	c #E7CB6B",
"C 	c #DEBE63",
"D 	c #E7CF84",
"E 	c #EFDFAD",
"F 	c white",
"G 	c #FFFBEF",
"H 	c #FFF794",
"I 	c #FFEB84",
"J 	c #FFE784",
"K 	c #F7DF6B",
"L 	c #FFFFF7",
"M 	c #FFD784",
"N 	c #FFDF94",
"O 	c #FFE37B",
"P 	c #F7D763",
"Q 	c #EFCB52",
"R 	c #EFBE42",
"S 	c #FFFBDE",
"T 	c #C69A18",
"U 	c #FFE39C",
"V 	c #FFDF73",
"W 	c #FFDB73",
"X 	c #EFC34A",
"Y 	c #DEB229",
"Z 	c #E7C35A",
"[ 	c #FFF3DE",
"] 	c #FFDF7B",
"^ 	c #E7C773",
"_ 	c #FFD36B",
"` 	c #E7B631",
"a 	c #EFD38C",
"b 	c #FFD77B",
"c 	c #CEA221",
"d 	c #FFDB8C",
"e 	c #FFCF63",
"f 	c #E7BE5A",
"g 	c #EFD384",
"h 	c #FFC75A",
"i 	c #F7BE4A",
"j 	c #DEB221",
"k 	c #F7C752",
"l 	c #E7B231",
"m 	c #F7E784",
"n 	c #A58621",
"o 	c #DEB239",
"p 	c #FFD773",
"q 	c #EFB639",
"r 	c #FFF38C",
"s 	c #FFD76B",
"t 	c #B58A08",
"u 	c #DEAA21",
"v 	c #F7EFCE",
"w 	c #FFF7AD",
"x 	c #FFEF84",
"y 	c #E7BE39",
"z 	c #DEB231",
"{ 	c #FFDB6B",
"| 	c #BD9208",
"} 	c #DEBE5A",
"~ 	c #FFF3D6",
" !	c #CE9E10",
"!!	c #F7DFAD",
"#!	c #FFEFA5",
"$!	c #F7CF5A",
"%!	c #BD8E10",
"&!	c #FFD363",
"'!	c #FFF7E7",
"(!	c #EFBA42",
")!	c #DEBA4A",
"                                                                ",
"                                                                ",
"                                                                ",
"                                                                ",
"          # # # # # # #                                         ",
"        # $ % & ' ( ) * #         # # # # # #                   ",
"        # + , , , , , - . # # # # 0 1 2 ) ' ( #                 ",
"      # 3 , , , , , , + 4 4 ' 5 6 , , , , , , #                 ",
"      # 6 , , , , , , , , , , , , , , , , , , #                 ",
"      # 7 8 8 8 8 8 8 8 8 8 8 8 8 8 8 8 9 : ; < # # # # = > ?   ",
"      # @ 9 9 9 9 9 9 9 9 9 9 9 : A B C D E * F F F F F G > ?   ",
"      # H I J I J I J I J I J K B F L L $ % % M L L L L B ? ?   ",
"      # N O O O O O O O P Q R B F 2 ) ) ) ) ) M $ $ $ S T ?     ",
"      # U V W W X Y Z C D * [ F & ' ' ' ' ' ' ] % % % ^ ? ?     ",
"      # N _ _ ` a F L % ) & ' ( ( ( ( ( ( ( ( b ) ) 2 c ?       ",
"      # d e e f L 6 + + + + + + + + + + + + + W & & g ? ?       ",
"      # M h i a ) , , , , , , , , , , , , , , W & & j ?         ",
"      # d k l [ 7 8 8 8 8 8 8 8 8 8 8 8 8 8 8 W 5 m n ?         ",
"      # d i o L H H H H H H H H H H H H H H H p ( Y ?           ",
"      # M q D 4 r r r r r r r r r r r r r r r s H t ?           ",
"      # b u v w x x x x x x x x x x x x x x x s y ?             ",
"      # p z L J J J J J J J J J J J J J J J J { | ?             ",
"      # M } ~ O O O O O O O O O O O O O P X Y  !?               ",
"      # k !!#!] ] ] ] ] ] ] ] W $!y u %!n ? ? ?                 ",
"        # F b W W W W &!X ` < t ? ? ? ? ?                       ",
"        # '!s $!(!j  !> ? ? ? ? ?                               ",
"        # )!t n ? ? ? ? ?                                       ",
"          ? ? ? ?                                               ",
"                                                                ",
"                                                                ",
"                                                                ",
"                                                                "};