/* XPM */ 
static const unsigned char * open_singledicom_xpm[] = {
"32 32 207 2",
"  	c None",
"! 	c black",
"# 	c #020202",
"$ 	c #4B4B4B",
"% 	c #282828",
"& 	c #1B1B1B",
"' 	c #121212",
"( 	c #161616",
") 	c #989898",
"* 	c #BCBCBC",
"+ 	c #494949",
", 	c #010101",
"- 	c #9A9A9A",
". 	c #2E2E2E",
"0 	c #A8A8A8",
"1 	c #ACACAC",
"2 	c #B0B0B0",
"3 	c #B8B8B8",
"4 	c #B4B4B4",
"5 	c #858585",
"6 	c #6E6E6E",
"7 	c #DADADA",
"8 	c #BBBBBB",
"9 	c #464646",
": 	c #888888",
"; 	c #484848",
"< 	c #959595",
"= 	c #CACACA",
"> 	c #C6C6C6",
"? 	c #969696",
"@ 	c #A9A9A9",
"A 	c #919191",
"B 	c #929292",
"C 	c #DDDDDD",
"D 	c white",
"E 	c #E3E3E3",
"F 	c #060606",
"G 	c #727272",
"H 	c #7D7D7D",
"I 	c #A5A5A5",
"J 	c #6F6F6F",
"K 	c #D1D1D1",
"L 	c #B1B1B1",
"M 	c #8E8E8E",
"N 	c #848484",
"O 	c #828282",
"P 	c #4E4E4E",
"Q 	c #737373",
"R 	c #909090",
"S 	c #E1E1E1",
"T 	c #D4D4D4",
"U 	c #515151",
"V 	c #A1A1A1",
"W 	c #898989",
"X 	c #8F8F8F",
"Y 	c #787878",
"Z 	c #606060",
"[ 	c #636363",
"] 	c #646464",
"^ 	c #717171",
"_ 	c #767676",
"` 	c #404040",
"a 	c #2B2B2B",
"b 	c #C2C2C2",
"c 	c #AAAAAA",
"d 	c #797979",
"e 	c #A3A3A3",
"f 	c #686868",
"g 	c #525252",
"h 	c #626262",
"i 	c #393939",
"j 	c #535353",
"k 	c #383838",
"l 	c #3A3A3A",
"m 	c #BEBEBE",
"n 	c #D8D8D8",
"o 	c #DCDCDC",
"p 	c #C4C4C4",
"q 	c #9D9D9D",
"r 	c #696969",
"s 	c #575757",
"t 	c #676767",
"u 	c #1F1F1F",
"v 	c #D6D6D6",
"w 	c #E2E2E2",
"x 	c #4F4F4F",
"y 	c #B2B2B2",
"z 	c #5E5E5E",
"{ 	c #595959",
"| 	c #434343",
"} 	c #4C4C4C",
"~ 	c #585858",
" !	c #B7B7B7",
"!!	c #D5D5D5",
"#!	c #474747",
"$!	c #777777",
"%!	c #C0C0C0",
"&!	c #939393",
"'!	c #3F3F3F",
"(!	c #323232",
")!	c #343434",
"*!	c #202020",
"+!	c #373737",
",!	c #B6B6B6",
"-!	c #1D1D1D",
".!	c #E6E6E6",
"0!	c #3D3D3D",
"1!	c #C1C1C1",
"2!	c #C5C5C5",
"3!	c #A7A7A7",
"4!	c #2F2F2F",
"5!	c #5C5C5C",
"6!	c #4D4D4D",
"7!	c #191919",
"8!	c #B5B5B5",
"9!	c #1A1A1A",
":!	c #070707",
";!	c #D7D7D7",
"<!	c #D2D2D2",
"=!	c #6B6B6B",
">!	c #5F5F5F",
"?!	c #B9B9B9",
"@!	c #272727",
"A!	c #414141",
"B!	c #262626",
"C!	c #131313",
"D!	c #C3C3C3",
"E!	c #0C0C0C",
"F!	c #747474",
"G!	c #9F9F9F",
"H!	c #555555",
"I!	c #252525",
"J!	c #616161",
"K!	c #111111",
"L!	c #050505",
"M!	c #0E0E0E",
"N!	c #303030",
"O!	c #3E3E3E",
"P!	c #8C8C8C",
"Q!	c #666666",
"R!	c #2D2D2D",
"S!	c #0B0B0B",
"T!	c #101010",
"U!	c #838383",
"V!	c #656565",
"W!	c #C7C7C7",
"X!	c #9C9C9C",
"Y!	c #5D5D5D",
"Z!	c #454545",
"[!	c #242424",
"]!	c #4A4A4A",
"^!	c #1C1C1C",
"_!	c #333333",
"`!	c #7C7C7C",
"a!	c #353535",
"b!	c #292929",
"c!	c #171717",
"d!	c #090909",
"e!	c #424242",
"f!	c #9E9E9E",
"g!	c #505050",
"h!	c #979797",
"i!	c #7B7B7B",
"j!	c #545454",
"k!	c #CBCBCB",
"l!	c #080808",
"m!	c #363636",
"n!	c #141414",
"o!	c #757575",
"p!	c #7A7A7A",
"q!	c #A2A2A2",
"r!	c #949494",
"s!	c #0A0A0A",
"t!	c #707070",
"u!	c #8A8A8A",
"v!	c #868686",
"w!	c #A6A6A6",
"x!	c #F5F5F5",
"y!	c #8D8D8D",
"z!	c #CDCDCD",
"{!	c #1E1E1E",
"|!	c #3B3B3B",
"}!	c #7F7F7F",
"~!	c #030303",
" #	c #808080",
"!#	c #A4A4A4",
"##	c #7E7E7E",
"$#	c #A0A0A0",
"%#	c #8B8B8B",
"&#	c #565656",
"'#	c #ADADAD",
"(#	c #E8E8E8",
")#	c #B3B3B3",
"*#	c #212121",
"+#	c #2C2C2C",
",#	c #ABABAB",
"-#	c #151515",
".#	c #ECECEC",
"0#	c #6A6A6A",
"1#	c #0F0F0F",
"2#	c #C8C8C8",
"3#	c #5B5B5B",
"4#	c #999999",
"5#	c #878787",
"6#	c #818181",
"7#	c #0D0D0D",
"8#	c #000080",
"! ! ! ! ! ! ! ! ! ! ! ! ! ! ! ! ! ! ! ! ! # # ! ! ! ! ! ! ! ! ! ",
"! ! ! ! ! ! ! ! ! ! ! ! ! ! ! $ % & ' & ( ) * + , ! ! ! ! ! ! ! ",
"! ! ! ! ! ! ! ! ! ! ! ! - . 0 . 1 2 3 4 5 6 3 7 8 9 , , ! ! ! ! ",
"! ! ! ! ! ! ! ! ! ! : ; * < = > ? - @ A 6 < B C D 7 E 2 F , ! ! ",
"! ! ! ! ! ! ! ! G H I J K 1 L M N O O P $ Q R S D D D D T 2 F ! ",
"! ! ! ! ! ! U ) V G 4 W X Y Z [ ] ^ _ ` a P b D D D D D D D 2 , ",
"! ! ! ! ! ! c d @ e R f g h i j k i l m n o D D D D D D D D 2 , ",
"! ! ! ! ! p [ > q Q r s 9 ] 9 t u 3 v D D D D D D D D D D w F ! ",
"! ! ! ! x [ y 8 z + { | i } ~ {  !D D D D D D D !!D D D D m #!! ",
"! ! ! ! V $!%!&!x '!(!x )!*!+!,!D D D D D D D  !-!!!D D .!0!1!! ",
"! ! ! ! 0!2!3!$ | 4!. 5!6!7!8!D D D D D D D L 9!:!;!D D <!d =!! ",
"! ! ! $ >!?!P @!A!B!j C!u D!D D D D D D D 2 E!! E!2 D T F!G!#!$ ",
"! ! ! e k e _ U H!I!J!K!L D D D D D D D * ; 7!L!9!M!T L N!W J!$ ",
"! ! ! W O!P!Q!+!U a R!4 D D D D D D D 8 [ Q!N!0!! S! !T!& U!V!$ ",
"! ! ! M ; W!X!Y!O!@!)!8 D D D D D D T C!Z![!u ]!#!F A ^!g 6 >!$ ",
"! ! ! $ _!2!b `!H!@!a!b!8 D D D D D 2 F c!# d!4!e!' :!( f!$!g!$ ",
"! ! ! P $ `!1 h!i!V!j!r `!k!D D D T l!! m!S!! n!( & m!o!p!q!` ! ",
"! ! ! ! j 9 ? q < ) r!8 K p 1!D D y , F j s!L!! d!F t!u!>!D!(!! ",
"! ! ! + $ { M v!A 4 e w! !x!W!;!w 0!s!! 0!! E!L!d!( t![ N i!V!! ",
"! ! } r!_ p!Q!o!v! !y!R  !K z!y  !J '!! T!:!# R!{!|!}!G!~ ~!1 ! ",
"! ! @ }  #[ Q!=!F!!#0 ##8 d Q!B C!O!p!l!K!F F 7!g $!$#6!9!a!$ ! ",
"! z!6! #i!%#s &#R!e!'#w C (#|!^!#!6!)#Q!*#' +##!p!*##!6!, r!! ! ",
"! 6!,#1 J ] -#d!l!_ )#?!P * .!.#_ $#0#1 F!##Y L!~!1#} '!K!2#! ! ",
"! ! ! = z 3#+!B!Y!H %#G!h Q!'!X!- 0 g!t!4#5#f |!b!F ~ M!{!$ ! ! ",
"! ! ! %!G ) 3#r 6#_ Y F!Q 3#P z ?!6#: ]!3!: 3#; 9 E!6#7#0!+ ! ! ",
"8#8#8#8#8#8#8#8#8#8#8#8#8#8#8#8#8#8#8#8#8#8#8#8#8#8#8#8#8#8#8#8#",
"8#8#8#8#8#D D D 8#8#D 8#8#D D D 8#8#D D 8#8#D 8#8#8#D 8#8#8#8#8#",
"8#8#8#8#8#D 8#8#D 8#D 8#D 8#8#8#8#D 8#8#D 8#D D 8#D D 8#8#8#8#8#",
"8#8#8#8#8#D 8#8#D 8#D 8#D 8#8#8#8#D 8#8#D 8#D 8#D 8#D 8#8#8#8#8#",
"8#8#8#8#8#D 8#8#D 8#D 8#D 8#8#8#8#D 8#8#D 8#D 8#8#8#D 8#8#8#8#8#",
"8#8#8#8#8#D D D 8#8#D 8#8#D D D 8#8#D D 8#8#D 8#8#8#D 8#8#8#8#8#",
"8#8#8#8#8#8#8#8#8#8#8#8#8#8#8#8#8#8#8#8#8#8#8#8#8#8#8#8#8#8#8#8#"};