/* XPM */ 
static char * openfile_xpm[] = {
"32 32 213 2",
"  	c None",
"! 	c black",
"# 	c #E78E8E",
"$ 	c #E87474",
"% 	c #E85252",
"& 	c #E87272",
"' 	c #E99D9D",
"( 	c #E89595",
") 	c #E84848",
"* 	c #F01212",
"+ 	c #F90606",
", 	c #FC0606",
"- 	c #F90707",
". 	c #F20E0E",
"0 	c #EA4949",
"1 	c #E58D8D",
"2 	c #DBB5B5",
"3 	c #CB7B7B",
"4 	c #C64242",
"5 	c #D22828",
"6 	c #EC3535",
"7 	c #F42424",
"8 	c #FD0000",
"9 	c #FD0202",
": 	c #FE0000",
"; 	c #FC0101",
"< 	c #F31010",
"= 	c #EC6C6C",
"> 	c #EBC0C0",
"? 	c #E98B8B",
"@ 	c #E08B8B",
"A 	c #E3BDBD",
"B 	c #D16666",
"C 	c #C31818",
"D 	c #BE0505",
"E 	c #C43838",
"F 	c #E5AEAE",
"G 	c #E86D6D",
"H 	c #F22B2B",
"I 	c #FB0101",
"J 	c #FE0101",
"K 	c #FA0202",
"L 	c #EE3232",
"M 	c #EE2F2F",
"N 	c #F50808",
"O 	c #E55F5F",
"P 	c #CE9A00",
"Q 	c #DCA5A5",
"R 	c #CB3838",
"S 	c #C80000",
"T 	c #CB0000",
"U 	c #CB3F3F",
"V 	c #E39090",
"W 	c #EA4F4F",
"X 	c #F70F0F",
"Y 	c #FB0707",
"Z 	c #E68686",
"[ 	c #FFFFEF",
"] 	c #FFFFE7",
"^ 	c #FFFFCE",
"_ 	c #FFFFC6",
"` 	c #FFFFB5",
"a 	c #E5C9C9",
"b 	c #CC4141",
"c 	c #CE0101",
"d 	c #C50202",
"e 	c #C63636",
"f 	c #E7B0B0",
"g 	c #E38484",
"h 	c #EF1B1B",
"i 	c #FC0000",
"j 	c #FE0303",
"k 	c #F60808",
"l 	c #E79F9F",
"m 	c #FFFFA5",
"n 	c #FFFF9C",
"o 	c #D57F7F",
"p 	c #C70303",
"q 	c #CC0101",
"r 	c #CC0000",
"s 	c #C51A1A",
"t 	c #F7E7B5",
"u 	c #FFF3CE",
"v 	c #FFFFDE",
"w 	c #DEAEAE",
"x 	c #E26565",
"y 	c #F01F1F",
"z 	c #F90505",
"{ 	c #FD0101",
"| 	c #F40A0A",
"} 	c #EBBCBC",
"~ 	c #FFFBCE",
" !	c #C52323",
"!!	c #CB0202",
"#!	c #CA0000",
"$!	c #C93F3F",
"%!	c #FFFFBD",
"&!	c #FFFFAD",
"'!	c #E76B6B",
"(!	c #ED3131",
")!	c #F60404",
"*!	c #F00B0B",
"+!	c #EA3E3E",
",!	c #D37878",
"-!	c #C60909",
".!	c #CB0101",
"0!	c #CD5858",
"1!	c #E89090",
"2!	c #E93F3F",
"3!	c #F40B0B",
"4!	c #FC0303",
"5!	c #ED1A1A",
"6!	c #FFFBAD",
"7!	c #FFFB94",
"8!	c #CD6565",
"9!	c #C80606",
":!	c #CC0202",
";!	c #C70000",
"<!	c #CE6464",
"=!	c #FFFB8C",
">!	c #F7E773",
"?!	c #EFD75A",
"@!	c #D6A610",
"A!	c #E9A3A3",
"B!	c #E74D4D",
"C!	c #F01818",
"D!	c #EB2E2E",
"E!	c #FFF7A5",
"F!	c #C84343",
"G!	c #C90404",
"H!	c #CD0101",
"I!	c #D9835B",
"J!	c #DEB629",
"K!	c #E7CB6B",
"L!	c #DEBE63",
"M!	c #E7CF84",
"N!	c #EFDFAD",
"O!	c #F7E7BD",
"P!	c white",
"Q!	c #E39999",
"R!	c #E76A6A",
"S!	c #FFF794",
"T!	c #FFEB84",
"U!	c #FFE784",
"V!	c #CA0303",
"W!	c #D74119",
"X!	c #D84119",
"Y!	c #E28231",
"Z!	c #E39E4E",
"[!	c #F7DF6B",
"]!	c #FFFFF7",
"^!	c #FFD784",
"_!	c #947929",
"`!	c #EEE2E2",
"a!	c #FFDF94",
"b!	c #FFE37B",
"c!	c #D3643C",
"d!	c #E28332",
"e!	c #EFC34A",
"f!	c #FFFFD6",
"g!	c #FFFBDE",
"h!	c #C69A18",
"i!	c #FFE39C",
"j!	c #FFDF73",
"k!	c #FFDB73",
"l!	c #FFDF7B",
"m!	c #E7C773",
"n!	c #FFD36B",
"o!	c #E7B631",
"p!	c #EFD38C",
"q!	c #FFD77B",
"r!	c #CEA221",
"s!	c #FFDB8C",
"t!	c #FFCF63",
"u!	c #E7BE5A",
"v!	c #EFD384",
"w!	c #FFC75A",
"x!	c #F7BE4A",
"y!	c #DEB221",
"z!	c #F7C752",
"{!	c #E7B231",
"|!	c #FFF3DE",
"}!	c #F7E784",
"~!	c #A58621",
" #	c #DEB239",
"!#	c #FFD773",
"##	c #DEB229",
"$#	c #EFB639",
"%#	c #FFFBD6",
"&#	c #FFF38C",
"'#	c #FFD76B",
"(#	c #B58A08",
")#	c #DEAA21",
"*#	c #F7EFCE",
"+#	c #FFF7AD",
",#	c #FFEF84",
"-#	c #E7BE39",
".#	c #DEB231",
"0#	c #FFDB6B",
"1#	c #BD9208",
"2#	c #DEBE5A",
"3#	c #FFF3D6",
"4#	c #F7D763",
"5#	c #CE9E10",
"6#	c #F7DFAD",
"7#	c #FFEFA5",
"8#	c #F7CF5A",
"9#	c #BD8E10",
":#	c #FFD363",
";#	c #FFF7E7",
"<#	c #EFBA42",
"=#	c #AD8A21",
">#	c #DEBA4A",
"                                      # $ % % & '               ",
"                                  ( ) * + , , - . 0 1           ",
"                            2 3 4 5 6 7 + 8 9 9 : ; < = >   ? @ ",
"                        A B C D E     F G H I : 8 J J K L M N O ",
"          P P P P P P Q R S T U           V W X 8 8 8 : : : Y Z ",
"        P [ ] ^ _ ` a b S c d e   P P P P f g h i i : : : j k l ",
"        P m n n n n o p q r s P P t u v w x y z { { 8 : 8 : | } ",
"      P ~ n n n n n  !T !!#!$!%!&!n n n n n '!(!)!{ : { i 8 *!+!",
"      P &!n n n n ,!-!q .!S 0!n n n n n n n n P 1!2!3!4!{ { 5!  ",
"      P 6!7!7!7!7!8!9!:!q ;!<!7!7!7!7!7!=!>!?!@!P P A!B!C!- D!  ",
"      P E!=!=!=!=!F!G!.!H!;!I!=!>!J!K!L!M!N!O!P!P!P!P!P!Q!R!x   ",
"      P S!T!U!T!U!e V!W!X!Y!Z![!K!P!]!]![ ] ] ^!]!]!]!]!K!_!`!  ",
"      P a!b!b!b!b!c!d!e!e!e!e!K!P!v f!f!f!f!f!^![ [ [ g!h!_!    ",
"      P i!j!k!k!e!e!e!^ ^ ^ ^ P!^ _ _ _ _ _ _ l!] ] ] m!_!_!    ",
"      P a!n!n!o!p!` ` ` ` ` ` ` ` ` ` ` ` ` ` q!f!f!v r!_!      ",
"      P s!t!t!u!]!m m m m m m m m m m m m m m k!^ ^ v!_!_!      ",
"      P ^!w!x!p!f!n n n n n n n n n n n n n n k!^ ^ y!_!        ",
"      P s!z!{!|!6!7!S!S!S!S!S!S!S!7!7!7!7!7!7!k!%!}!~!_!        ",
"      P s!x! #]!S!S!S!S!S!S!S!S!S!S!S!S!S!S!S!!#` ##_!          ",
"      P ^!$#M!%#&#&#&#&#&#&#&#&#&#&#&#&#&#&#&#'#S!(#_!          ",
"      P q!)#*#+#,#,#,#,#,#,#,#,#,#,#,#,#,#,#,#'#-#_!            ",
"      P !#.#]!U!U!U!U!U!U!U!U!U!U!U!U!U!U!U!U!0#1#_!            ",
"      P ^!2#3#b!b!b!b!b!b!b!b!b!b!b!b!b!4#e!##5#_!              ",
"      P z!6#7#l!l!l!l!l!l!l!l!k!8#-#)#9#~!_!_!_!                ",
"        P P!q!k!k!k!k!:#e!o!@!(#_!_!_!_!_!                      ",
"        P ;#'#8#<#y!5#=#_!_!_!_!_!                              ",
"        P >#(#~!_!_!_!_!_!                                      ",
"          _!_!_!_!                                              ",
"                                                                ",
"                                                                ",
"                                                                ",
"                                                                "};