/* XPM */ 
static char * patient_xpm[] = {
"24 24 5 1",
" 	c None",
"!	c black",
"#	c #DDDDDD",
"$	c #808080",
"%	c #C0C0C0",
"          #!!!#         ",
"          !!!!!         ",
"          !!!!!         ",
"          !!!!!         ",
"          #!!!#         ",
"                        ",
"      #!!!!!!!!!!!#     ",
"      $!!!!!!!!!!!$     ",
"      !!!!!!!!!!!!!     ",
"      !!$!!!!!!!$!!     ",
"      !!#!!!!!!!#!!     ",
"      !! !!!!!!! !!     ",
"      !! !!!!!!! !!     ",
"      !! !!!!!!! !!     ",
"      !! !!!!!!! !!     ",
"      !! !!!!!!! !!     ",
"         !!!%!!!        ",
"         !!! !!!        ",
"         !!! !!!        ",
"         !!! !!!        ",
"         !!! !!!        ",
"         !!! !!!        ",
"         !!! !!!        ",
"         !!! !!!        "};