/* XPM */ 
static const unsigned char * r_xpm[] = {
"64 64 4 1",
" 	c None",
"!	c #FFDB9D",
"#	c #800000",
"$	c #FF0000",
"!!!!!!!!!!!!!!!!!!!!!!!!!!!!!!!!!!!!!!!!!!!!!!!!!!!!!!!!!!!!!!!!",
"!!!!!!!!!!!!!!!!!!!!!!!!!!!!!!!!!!!!!!!!!!!!!!!!!!!!!!!!!!!!!!!!",
"!!!!!!!!!!!!!!!!!!!!!!!!!!!!!!!!!!!!!!!!!!!!!!!!!!!!!!!!!!!!!!!!",
"!!!!!!!!!!!!!!!!!!!!!!!!!!!!!!!!!!!!!!!!!!!!!!!!!!!!!!!!!!!!!!!!",
"!!!!!!!!!!!!!!!!!!!!!!!!!!!!!!!!!!!!!!!!!!!!!!!!!!!!!!!!!!!!!!!!",
"!!!!!!!!!!!!!!!!!!!!!!!!!!!!!!!!!!!!!!!!!!!!!!!!!!!!!!!!!!!!!!!!",
"!!!!!!!!!!!!!!!!!!!!!!!!!!!!!!!!!!!!!!!!!!!!!!!!!!!!!!!!!!!!!!!!",
"!!!!!!!!!!!!!!!!!!!!!!!!!!!!!!!!!!!!!!!!!!!!!!!!!!!!!!!!!!!!!!!!",
"!!!!!!!!!!!!!!!!!!!!!!!!!!!!!!!!!!!!!!!!!!!!!!!!!!!!!!!!!!!!!!!!",
"!!!!!!!!!!!!!!!!!!!!!!!!!!!!!!!!!!!!!!!!!!!!!!!!!!!!!!!!!!!!!!!!",
"!!!!!!!!!!!!!!!!!!!!!!!!!!!!!!!!!!!!!!!!!!!!!!!!!!!!!!!!!!!!!!!!",
"!!!!!!!!!!!!!!!!!!!!!!!!!!!!!!!!!!!!!!!!!!!!!!!!!!!!!!!!!!!!!!!!",
"!!!!!!!!!!!!!!!!!!!!!!!!!!!!!!!!!!!!!!!!!!!!!!!!!!!!!!!!!!!!!!!!",
"!!!!!!!!!!!!!!!!!####################!!!!!!!!!!!!!!!!!!!!!!!!!!!",
"!!!!!!!!!!!!!!!!!######################!!!!!!!!!!!!!!!!!!!!!!!!!",
"!!!!!!!!!!!!!!!!!########################!!!!!!!!!!!!!!!!!!!!!!!",
"!!!!!!!!!!!!!!!!!#########################!!!!!!!!!!!!!!!!!!!!!!",
"!!!!!!!!!!!!!!!!!##########################!!!!!!!!!!!!!!!!!!!!!",
"!!!!!!!!!!!!!!!!!##########################$!!!!!!!!!!!!!!!!!!!!",
"!!!!!!!!!!!!!!!!!#########$$$$$$$###########!!!!!!!!!!!!!!!!!!!!",
"!!!!!!!!!!!!!!!!!#########$!!!!!!!##########$!!!!!!!!!!!!!!!!!!!",
"!!!!!!!!!!!!!!!!!#########$!!!!!!!!#########$!!!!!!!!!!!!!!!!!!!",
"!!!!!!!!!!!!!!!!!#########$!!!!!!!!#########$!!!!!!!!!!!!!!!!!!!",
"!!!!!!!!!!!!!!!!!#########$!!!!!!!!#########$!!!!!!!!!!!!!!!!!!!",
"!!!!!!!!!!!!!!!!!#########$!!!!!!!!#########$!!!!!!!!!!!!!!!!!!!",
"!!!!!!!!!!!!!!!!!#########$!!!!!!!!#########$!!!!!!!!!!!!!!!!!!!",
"!!!!!!!!!!!!!!!!!#########$!!!!!!!#########$$!!!!!!!!!!!!!!!!!!!",
"!!!!!!!!!!!!!!!!!#########$!!!!!!!#########$!!!!!!!!!!!!!!!!!!!!",
"!!!!!!!!!!!!!!!!!#########$!!!!!###########$!!!!!!!!!!!!!!!!!!!!",
"!!!!!!!!!!!!!!!!!#########################$$!!!!!!!!!!!!!!!!!!!!",
"!!!!!!!!!!!!!!!!!########################$$!!!!!!!!!!!!!!!!!!!!!",
"!!!!!!!!!!!!!!!!!#######################$$!!!!!!!!!!!!!!!!!!!!!!",
"!!!!!!!!!!!!!!!!!#####################$$$!!!!!!!!!!!!!!!!!!!!!!!",
"!!!!!!!!!!!!!!!!!#####################$!!!!!!!!!!!!!!!!!!!!!!!!!",
"!!!!!!!!!!!!!!!!!######################!!!!!!!!!!!!!!!!!!!!!!!!!",
"!!!!!!!!!!!!!!!!!#########$$$$#########$!!!!!!!!!!!!!!!!!!!!!!!!",
"!!!!!!!!!!!!!!!!!#########$!!!##########!!!!!!!!!!!!!!!!!!!!!!!!",
"!!!!!!!!!!!!!!!!!#########$!!!!##########!!!!!!!!!!!!!!!!!!!!!!!",
"!!!!!!!!!!!!!!!!!#########$!!!!!##########!!!!!!!!!!!!!!!!!!!!!!",
"!!!!!!!!!!!!!!!!!#########$!!!!!!#########$!!!!!!!!!!!!!!!!!!!!!",
"!!!!!!!!!!!!!!!!!#########$!!!!!!##########!!!!!!!!!!!!!!!!!!!!!",
"!!!!!!!!!!!!!!!!!#########$!!!!!!!##########!!!!!!!!!!!!!!!!!!!!",
"!!!!!!!!!!!!!!!!!#########$!!!!!!!!##########!!!!!!!!!!!!!!!!!!!",
"!!!!!!!!!!!!!!!!!#########$!!!!!!!!!##########!!!!!!!!!!!!!!!!!!",
"!!!!!!!!!!!!!!!!!#########$!!!!!!!!!##########$!!!!!!!!!!!!!!!!!",
"!!!!!!!!!!!!!!!!!#########$!!!!!!!!!!##########!!!!!!!!!!!!!!!!!",
"!!!!!!!!!!!!!!!!!#########$!!!!!!!!!!!##########!!!!!!!!!!!!!!!!",
"!!!!!!!!!!!!!!!!!#########$!!!!!!!!!!!!##########!!!!!!!!!!!!!!!",
"!!!!!!!!!!!!!!!!!!$$$$$$$$$!!!!!!!!!!!!!$$$$$$$$$$!!!!!!!!!!!!!!",
"!!!!!!!!!!!!!!!!!!!!!!!!!!!!!!!!!!!!!!!!!!!!!!!!!!!!!!!!!!!!!!!!",
"!!!!!!!!!!!!!!!!!!!!!!!!!!!!!!!!!!!!!!!!!!!!!!!!!!!!!!!!!!!!!!!!",
"!!!!!!!!!!!!!!!!!!!!!!!!!!!!!!!!!!!!!!!!!!!!!!!!!!!!!!!!!!!!!!!!",
"!!!!!!!!!!!!!!!!!!!!!!!!!!!!!!!!!!!!!!!!!!!!!!!!!!!!!!!!!!!!!!!!",
"!!!!!!!!!!!!!!!!!!!!!!!!!!!!!!!!!!!!!!!!!!!!!!!!!!!!!!!!!!!!!!!!",
"!!!!!!!!!!!!!!!!!!!!!!!!!!!!!!!!!!!!!!!!!!!!!!!!!!!!!!!!!!!!!!!!",
"!!!!!!!!!!!!!!!!!!!!!!!!!!!!!!!!!!!!!!!!!!!!!!!!!!!!!!!!!!!!!!!!",
"!!!!!!!!!!!!!!!!!!!!!!!!!!!!!!!!!!!!!!!!!!!!!!!!!!!!!!!!!!!!!!!!",
"!!!!!!!!!!!!!!!!!!!!!!!!!!!!!!!!!!!!!!!!!!!!!!!!!!!!!!!!!!!!!!!!",
"!!!!!!!!!!!!!!!!!!!!!!!!!!!!!!!!!!!!!!!!!!!!!!!!!!!!!!!!!!!!!!!!",
"!!!!!!!!!!!!!!!!!!!!!!!!!!!!!!!!!!!!!!!!!!!!!!!!!!!!!!!!!!!!!!!!",
"!!!!!!!!!!!!!!!!!!!!!!!!!!!!!!!!!!!!!!!!!!!!!!!!!!!!!!!!!!!!!!!!",
"!!!!!!!!!!!!!!!!!!!!!!!!!!!!!!!!!!!!!!!!!!!!!!!!!!!!!!!!!!!!!!!!",
"!!!!!!!!!!!!!!!!!!!!!!!!!!!!!!!!!!!!!!!!!!!!!!!!!!!!!!!!!!!!!!!!",
"!!!!!!!!!!!!!!!!!!!!!!!!!!!!!!!!!!!!!!!!!!!!!!!!!!!!!!!!!!!!!!!!"};