/* XPM */ 
static char * refresh_xpm[] = {
"17 15 107 2",
"  	c None",
"! 	c white",
"# 	c #FDFDFE",
"$ 	c #FEFEFD",
"% 	c #CED8EA",
"& 	c #7F98CB",
"' 	c #5085CB",
"( 	c #708CC5",
") 	c #9EB2D7",
"* 	c #FEFDFD",
"+ 	c #FEFEFE",
", 	c #FDFCFC",
"- 	c #FDFDFC",
". 	c #6F8CC4",
"0 	c #3F66B2",
"1 	c #447BC5",
"2 	c #105EBD",
"3 	c #0070D5",
"4 	c #0064CA",
"5 	c #2056AF",
"6 	c #CDD6EA",
"7 	c #FCFCFB",
"8 	c #8DA4D1",
"9 	c #004BB1",
": 	c #0066CC",
"; 	c #1052B2",
"< 	c #CDD6E9",
"= 	c #FBFBFA",
"> 	c #FCFBFA",
"? 	c #6E8BC4",
"@ 	c #0063C9",
"A 	c #3F6CB8",
"B 	c #BBC8E0",
"C 	c #1045A5",
"D 	c #EAEEF3",
"E 	c #FBFAF9",
"F 	c #FAFAF8",
"G 	c #FAFAF9",
"H 	c #BBC8E1",
"I 	c #0059BF",
"J 	c #0051B7",
"K 	c #CAD4E6",
"L 	c #003DA3",
"M 	c #0087EC",
"N 	c #2F62B4",
"O 	c #E9EDF1",
"P 	c #F9F9F7",
"Q 	c #8CA2CE",
"R 	c #E8ECEF",
"S 	c #0091F7",
"T 	c #0088ED",
"U 	c #006CD2",
"V 	c #5D80BF",
"W 	c #C9D3E4",
"X 	c #F7F6F4",
"Y 	c #2B9BF2",
"Z 	c #0093F9",
"[ 	c #0084E9",
"] 	c #0073D9",
"^ 	c #8BA0CC",
"_ 	c #9AADD2",
"` 	c #C9D2E3",
"a 	c #3063B6",
"b 	c #0090F6",
"c 	c #007EE4",
"d 	c #F6F5F2",
"e 	c #6C88C1",
"f 	c #99ACD1",
"g 	c #F5F5F2",
"h 	c #F5F4F1",
"i 	c #7A93C5",
"j 	c #0083E9",
"k 	c #007AE0",
"l 	c #3D66B2",
"m 	c #6B88C0",
"n 	c #F4F4F1",
"o 	c #C5CFDF",
"p 	c #0065CA",
"q 	c #0076DC",
"r 	c #0050B6",
"s 	c #D5DBE4",
"t 	c #F3F2EF",
"u 	c #E5E7EA",
"v 	c #7992C4",
"w 	c #F2F1EE",
"x 	c #3D6CB8",
"y 	c #006BD1",
"z 	c #0060C6",
"{ 	c #7992C3",
"| 	c #F2F2EE",
"} 	c #E2E4E7",
"~ 	c #2D60B3",
" !	c #0053B9",
"!!	c #5B7DBC",
"#!	c #B5C1D7",
"$!	c #F1F0ED",
"%!	c #D3D8E2",
"&!	c #E1E3E6",
"'!	c #5A7DBB",
"(!	c #0049AF",
")!	c #0056BC",
"*!	c #003399",
"+!	c #3C62AE",
",!	c #D2D7E1",
"-!	c #F0F0EA",
".!	c #E1E4E5",
"0!	c #B4C1D6",
"! ! ! # $ $ % & ' ( ) $ ! * + $ * ",
"! ! ! , - . 0 1 2 3 4 5 6 ! ! ! ! ",
"! ! ! ! ! ! ! 7 7 8 9 : ; < ! ! ! ",
"! ! ! ! ! ! = = > = ? @ @ A ! ! ! ",
"! ! ! B C D E F G F H I : J ! ! ! ",
"! ! K L M N O P P P Q I : J ! ! ! ",
"! R L S T U V ! W L I : : @ I L L ",
"X L Y Z [ ] L ^ ! _ L : : : L ` X ",
"L a a b c J L L ! d e L : L f g ! ",
"! h i j k J ! ! ! ! h l L m n ! ! ",
"! ! o p q r s ! ! ! t u v t ! ! ! ",
"! ! w x y z { | ! ! ! ! ! ! ! ! ! ",
"! ! ! } ~ z  !!!#!$!%!#!! ! ! ! ! ",
"! ! ! ! &!'!(!)!(!*!+!,!! ! ! ! ! ",
"! ! ! ! ! -!.!0!0!.!-!! ! ! ! ! ! "};