/* XPM */ 
static const char * rotate_right_xpm[] = {
"32 32 27 1",
" 	c None",
"!	c black",
"#	c #000073",
"$	c #00009F",
"%	c #0000A0",
"&	c #1E1E9D",
"'	c #2020AC",
"(	c #31318C",
")	c #4040B8",
"*	c #5A5AB7",
"+	c #6060C4",
",	c #6565A4",
"-	c #8080D0",
".	c #9898D1",
"0	c #A0A0DC",
"1	c white",
"2	c #9F9FC0",
"3	c #E0E0F3",
"4	c #C9C9DA",
"5	c #C0C0E8",
"6	c #8989BD",
"7	c #D9D9EC",
"8	c #4E4E9F",
"9	c #DADADA",
":	c #3F3FB6",
";	c #191983",
"<	c #00009A",
"                                ",
"                                ",
"            !                   ",
"           !!                   ",
"           !!                   ",
"           !!                   ",
"          !#!  !!!!             ",
"          !$!     !!!           ",
"         !!%!       !!          ",
"         !&%!         !!        ",
"         !'%!          !        ",
"        !('%!           !       ",
"        !)'%!           !!      ",
"       !!)'%!            !      ",
"       !*)'%!            !!     ",
"      !!+)'%!             !     ",
"      !,+)'%!             !     ",
"      !-+)'%!          !  !  !  ",
"     !!-+)'%! !!        ! ! !   ",
"     !.-+)'%! !!!        !!!    ",
"    !!0-+)'%! !1!!!       !     ",
"    !20-+)'%! !334!!            ",
"    !50-+)'%! !5555!!           ",
"   !!50-+)'%! !000006!!         ",
"   !750-+)'%! !-------!!        ",
"  !!350-+)'%! !++++++++8!!      ",
"  !9350-+)'%! !))))))))):!!     ",
"  !1350-+)'%! !''''''''''';!!   ",
" !!1350-+)'%! !%%%%%%%%%%%%<!!  ",
" !!!!!!!!!!!! !!!!!!!!!!!!!!!!! ",
"                                ",
"                                "};