/* XPM */ 
static char * segment_xpm[] = {
"32 32 16 1",
" 	c None",
"!	c black",
"#	c #FF0000",
"$	c #A0005F",
"%	c #800080",
"&	c #410000",
"'	c #6C0058",
"(	c #5F005F",
")	c #8D9826",
"*	c #5A8C23",
"+	c #66CC33",
",	c #4C9826",
"-	c #D8F20D",
".	c #C7DF0B",
"0	c #BEBE00",
"1	c #FFFF00",
"                                ",
"                                ",
"                                ",
"  ################              ",
"  ################              ",
"  ################              ",
"  ############$$$$%%%%%%        ",
"  ############$$$$%%%%%%        ",
"  ############$$$$%%%%%%        ",
"  ############$$$$%%%%%%        ",
"  ############$$$$%%%%%%        ",
"  ############$$$$%%%%%%        ",
"  #########&&&''''((((((!!!!    ",
"  #########&&&''''((((((!!!!    ",
"  #########&&&''''((((((!!!!    ",
"  #########&&&''''((((((!!!!    ",
"  ###))))))**&''''((((((!!!!    ",
"  ###))))))**&''''((((((!!!!    ",
"  ###))))))**&&&&&!!!!!!!!!!    ",
"     ++++++,,!!!!!!!!!!!!!!!    ",
"     ++++++,,!!!!!!!!!!!!!!!    ",
"     ++++++,,!!!!!!!!!!!!!!!    ",
"     ++++++,,!!!!!!!!!!!!!!!    ",
"     ++++--..000000000000!!!    ",
"     ++++--..000000000000!!!    ",
"     ++++--..000000000000!!!    ",
"     ++++--..000000000000!!!    ",
"     ++++----111111111111       ",
"     ++++----111111111111       ",
"     ++++++++                   ",
"     ++++++++                   ",
"                                "};