/* XPM */ 
static char * series_xpm[] = {
"24 24 60 1",
" 	c None",
"!	c #00A400",
"#	c #05A205",
"$	c #09A109",
"%	c #0E9F0E",
"&	c #129D12",
"'	c #179C17",
"(	c #1C9A1C",
")	c #209820",
"*	c #259625",
"+	c #2A952A",
",	c #2E932E",
"-	c #339133",
".	c #389038",
"0	c black",
"1	c #C9F8C9",
"2	c #C8F5C8",
"3	c #C6F2C6",
"4	c #C5EEC5",
"5	c #C3EBC3",
"6	c #C2E7C2",
"7	c #C1E4C1",
"8	c #BFE0BF",
"9	c #BEDDBE",
":	c #BCDABC",
";	c #BBD6BB",
"<	c #3C8E3C",
"=	c #B9D3B9",
">	c #418C41",
"?	c #808080",
"@	c #7E7E7E",
"A	c #7D7D7D",
"B	c #7B7B7B",
"C	c #7A7A7A",
"D	c #787878",
"E	c #B8CFB8",
"F	c #468A46",
"G	c #B7CCB7",
"H	c #7C7C7C",
"I	c #4A894A",
"J	c #B5C8B5",
"K	c #4F874F",
"L	c #B4C5B4",
"M	c #538553",
"N	c #B2C2B2",
"O	c #588458",
"P	c #7F7F7F",
"Q	c #797979",
"R	c #B1BEB1",
"S	c #5D825D",
"T	c #AFBBAF",
"U	c #618061",
"V	c #AEB8AE",
"W	c #667F66",
"X	c #ADB4AD",
"Y	c #6A7D6A",
"Z	c #ABB1AB",
"[	c #6F7B6F",
"]	c #AAAEAA",
"^	c #747A74",
"!#$%&'()*+,-.           ",
"#123456789:;<           ",
"$23456789:;=>           ",
"%34!#$%&'()*+,-.        ",
"&45#123456789:;<        ",
"'56$23456789:;=>        ",
"(67%34!#$%&'()*+,-.     ",
")78&45#123456789:;<     ",
"*89'56$23456789:;=>     ",
"+9:(67%34!#$%&'()*+,-.  ",
",:;)78&45#123456789:;<  ",
"-;=*89'56$2?@ABCD?C;=>  ",
".=E+9:(67%3456789:;=EF  ",
"<EG,:;)78&45?@HCD?C?GI  ",
">FI-;=*89'56789:;=EGJK  ",
"   .=E+9:(6?ABD??HDJLM  ",
"   <EG,:;)789:;=EGJLNO  ",
"   >FI-;=*89?PAHBQD?RS  ",
"      .=E+9:;=EGJLNRTU  ",
"      <EG,:?P@ABCQDTVW  ",
"      >FI-;=EGJLNRTVXY  ",
"         .=E?P@ABCQDZ[  ",
"         <EGJLNRTVXZ]^  ",
"         >FIKMOSUWY[^D  "};