/* XPM */ 
static char * showlines_xpm[] = {
"32 32 10 1",
" 	c None",
"!	c #0E1EF1",
"#	c #0E09F6",
"$	c black",
"%	c #007200",
"&	c #009900",
"'	c #C0C0C0",
"(	c #BE0000",
")	c #FF0000",
"*	c #AA3300",
"!!!!!!!!!!!!!!!!!!!!!!!!!!!!!!!!",
"!##############################!",
"!#$$$$$$$$$$$$$$$%$$$$$$$$$$$$#!",
"!#$$$$$$$$$$$$$$$&$$$$$$$$$$$$#!",
"!#$$$$$$$$$$$$$$$&$$$$$$$$$$$$#!",
"!#$$$$$$$$$$$$$$$&$$$$$$$$$$$$#!",
"!#$$$$$$$''''''''&''''$$$$$$$$#!",
"!#$$$$$$$'$$$$$$$&$$$'$$$$$$$$#!",
"!#$$$$$$$'$$$$$$$&$$$'$$$$$$$$#!",
"!#$$$$$$$'$$$$$$$&$$$'$$$$$$$$#!",
"!#$$$$$$$'$$$$$$$&$$$'$$$$$$$$#!",
"!#$$$$$$$'$$$$$$$&$$$'$$$$$$$$#!",
"!#())))))))))))))*)))))))))))(#!",
"!#$$$$$$$'$$$$$$$&$$$'$$$$$$$$#!",
"!#$$$$$$$'$$$$$$$&$$$'$$$$$$$$#!",
"!#$$$$$$$'$$$$$$$&$$$'$$$$$$$$#!",
"!#$$$$$$$'$$$$$$$&$$$'$$$$$$$$#!",
"!#$$$$$$$'$$$$$$$&$$$'$$$$$$$$#!",
"!#$$$$$$$'$$$$$$$&$$$'$$$$$$$$#!",
"!#$$$$$$$'$$$$$$$&$$$'$$$$$$$$#!",
"!#$$$$$$$'$$$$$$$&$$$'$$$$$$$$#!",
"!#$$$$$$$''''''''&''''$$$$$$$$#!",
"!#$$$$$$$$$$$$$$$&$$$$$$$$$$$$#!",
"!#$$$$$$$$$$$$$$$&$$$$$$$$$$$$#!",
"!#$$$$$$$$$$$$$$$&$$$$$$$$$$$$#!",
"!#$$$$$$$$$$$$$$$&$$$$$$$$$$$$#!",
"!#$$$$$$$$$$$$$$$&$$$$$$$$$$$$#!",
"!#$$$$$$$$$$$$$$$&$$$$$$$$$$$$#!",
"!#$$$$$$$$$$$$$$$&$$$$$$$$$$$$#!",
"!#$$$$$$$$$$$$$$$%$$$$$$$$$$$$#!",
"!##############################!",
"!!!!!!!!!!!!!!!!!!!!!!!!!!!!!!!!"};