/* XPM */ 
static char * show_info_overlay_xpm[] = {
"32 32 5 1",
" 	c None",
"!	c #003CBA",
"#	c black",
"$	c #D2D2D2",
"%	c #6C6C6C",
"!!!!!!!!!!!!!!!!!!!!!!!!!!!!!!!!",
"!##############################!",
"!#$$$$$################$$$$$$$#!",
"!#%#%%#%###############%%%#%%##!",
"!#$$$$##################$$$#$$#!",
"!#%%%#%#%##############%%%%%#%#!",
"!#$$$$$$$######################!",
"!##############################!",
"!##############################!",
"!##############################!",
"!##############################!",
"!##############################!",
"!##############################!",
"!##############################!",
"!##############################!",
"!##############################!",
"!##############################!",
"!##############################!",
"!##############################!",
"!##############################!",
"!##############################!",
"!##############################!",
"!##############################!",
"!##############################!",
"!#%############################!",
"!#$$$$$$#######################!",
"!#%%%%%######################%#!",
"!#$$$$#####################$$$#!",
"!#%%%#%#%%##################%##!",
"!#$$$$$$$$$################$$$#!",
"!##############################!",
"!!!!!!!!!!!!!!!!!!!!!!!!!!!!!!!!"};