/* XPM */ 
static char * singledicom_xpm[] = {
"32 32 215 2",
"  	c None",
"! 	c black",
"# 	c #B8B8B8",
"$ 	c #282828",
"% 	c #1B1B1B",
"& 	c #121212",
"' 	c #161616",
"( 	c #262626",
") 	c #D0D0D0",
"* 	c #EDEDED",
"+ 	c #9A9A9A",
", 	c #2E2E2E",
"- 	c #A8A8A8",
". 	c #ACACAC",
"0 	c #B0B0B0",
"1 	c #B4B4B4",
"2 	c #858585",
"3 	c #7B7B7B",
"4 	c #AEAEAE",
"5 	c #404040",
"6 	c #434343",
"7 	c #E0E0E0",
"8 	c #888888",
"9 	c #484848",
": 	c #BCBCBC",
"; 	c #959595",
"< 	c #CACACA",
"= 	c #C6C6C6",
"> 	c #969696",
"? 	c #A9A9A9",
"@ 	c #919191",
"A 	c #6E6E6E",
"B 	c #A6A6A6",
"C 	c #676767",
"D 	c #444444",
"E 	c #AFAFAF",
"F 	c #7D7D7D",
"G 	c #A5A5A5",
"H 	c #6F6F6F",
"I 	c #D1D1D1",
"J 	c #B1B1B1",
"K 	c #8E8E8E",
"L 	c #848484",
"M 	c #828282",
"N 	c #4E4E4E",
"O 	c #4B4B4B",
"P 	c #737373",
"Q 	c #A3A3A3",
"R 	c #949494",
"S 	c #787878",
"T 	c #373737",
"U 	c #9E9E9E",
"V 	c #F1F1F1",
"W 	c #989898",
"X 	c #A1A1A1",
"Y 	c #727272",
"Z 	c #898989",
"[ 	c #8F8F8F",
"] 	c #606060",
"^ 	c #636363",
"_ 	c #646464",
"` 	c #717171",
"a 	c #767676",
"b 	c #2C2C2C",
"c 	c #555555",
"d 	c #6C6C6C",
"e 	c #545454",
"f 	c #626262",
"g 	c #5C5C5C",
"h 	c #353535",
"i 	c #B9B9B9",
"j 	c #AAAAAA",
"k 	c #797979",
"l 	c #909090",
"m 	c #686868",
"n 	c #525252",
"o 	c #393939",
"p 	c #535353",
"q 	c #383838",
"r 	c #3C3C3C",
"s 	c #3D3D3D",
"t 	c #2B2B2B",
"u 	c #595959",
"v 	c #111111",
"w 	c #242424",
"x 	c #565656",
"y 	c #DFDFDF",
"z 	c #C4C4C4",
"{ 	c #9D9D9D",
"| 	c #696969",
"} 	c #575757",
"~ 	c #464646",
" !	c #1D1D1D",
"!!	c #2F2F2F",
"#!	c #141414",
"$!	c #4A4A4A",
"%!	c #1A1A1A",
"&!	c #060606",
"'!	c #2A2A2A",
"(!	c #999999",
")!	c #A0A0A0",
"*!	c #313131",
"+!	c #ECECEC",
",!	c #B2B2B2",
"-!	c #BBBBBB",
".!	c #5E5E5E",
"0!	c #494949",
"1!	c #4C4C4C",
"2!	c #585858",
"3!	c #171717",
"4!	c #252525",
"5!	c #0E0E0E",
"6!	c #0B0B0B",
"7!	c #272727",
"8!	c #050505",
"9!	c #656565",
":!	c #979797",
";!	c #E1E1E1",
"<!	c #777777",
"=!	c #C0C0C0",
">!	c #939393",
"?!	c #4F4F4F",
"@!	c #3F3F3F",
"A!	c #323232",
"B!	c #343434",
"C!	c #202020",
"D!	c #232323",
"E!	c #0F0F0F",
"F!	c #020202",
"G!	c #1C1C1C",
"H!	c #5B5B5B",
"I!	c #CFCFCF",
"J!	c #C1C1C1",
"K!	c #C5C5C5",
"L!	c #A7A7A7",
"M!	c #4D4D4D",
"N!	c #222222",
"O!	c #040404",
"P!	c #090909",
"Q!	c #101010",
"R!	c #0A0A0A",
"S!	c #181818",
"T!	c #CCCCCC",
"U!	c #818181",
"V!	c #6B6B6B",
"W!	c #5F5F5F",
"X!	c #414141",
"Y!	c #131313",
"Z!	c #1E1E1E",
"[!	c #080808",
"]!	c #070707",
"^!	c #0C0C0C",
"_!	c #9F9F9F",
"`!	c #474747",
"a!	c #EAEAEA",
"b!	c #515151",
"c!	c #616161",
"d!	c #0D0D0D",
"e!	c #030303",
"f!	c #191919",
"g!	c #010101",
"h!	c #DDDDDD",
"i!	c #3E3E3E",
"j!	c #8C8C8C",
"k!	c #666666",
"l!	c #424242",
"m!	c #303030",
"n!	c #292929",
"o!	c #838383",
"p!	c #C2C2C2",
"q!	c #C7C7C7",
"r!	c #9C9C9C",
"s!	c #5D5D5D",
"t!	c #363636",
"u!	c #6A6A6A",
"v!	c #212121",
"w!	c #454545",
"x!	c #1F1F1F",
"y!	c #C8C8C8",
"z!	c #333333",
"{!	c #7C7C7C",
"|!	c #505050",
"}!	c #E8E8E8",
"~!	c #8B8B8B",
" #	c #757575",
"!#	c #7A7A7A",
"##	c #A2A2A2",
"$#	c #E5E5E5",
"%#	c #E2E2E2",
"&#	c #7E7E7E",
"'#	c #707070",
"(#	c #8A8A8A",
")#	c #C3C3C3",
"*#	c #DADADA",
"+#	c #868686",
",#	c #B7B7B7",
"-#	c #F5F5F5",
".#	c #8D8D8D",
"0#	c #CDCDCD",
"1#	c #2D2D2D",
"2#	c #3B3B3B",
"3#	c #7F7F7F",
"4#	c #808080",
"5#	c #747474",
"6#	c #A4A4A4",
"7#	c #929292",
"8#	c #ADADAD",
"9#	c #B3B3B3",
":#	c #ABABAB",
";#	c #151515",
"<#	c #E6E6E6",
"=#	c #878787",
">#	c #D9D9D9",
"?#	c #000080",
"@#	c white",
"                                                                ",
"                              # $ % & % ' ( ) *                 ",
"                        + , - ) . 0 # 1 2 3 4 5 6 7             ",
"                    8 9 : ; < = > + ? @ A ; B C C D E           ",
"                E F G H I . J K L M M N O P Q ; R S T U         ",
"            V W X Y 1 Z [ S ] ^ _ ` a 6 b c d e f X g h i       ",
"            j k ? Q l m n f o p q r s p t u , v w ` J x r y     ",
"          z ^ = { P | } ~ _ ~ C  !!!#!$!%!D  !&!% '!(!)!*!(!    ",
"        +!^ ,!-!.!0!u 6 o 1!2!f t %!3!4!5!6!7!5!&!8!9!+ :!n ;!  ",
"        X <!=!>!?!@!A!?!B!C!o D!E!F!G!F!#!v ' b & 6!H!d I!5 J!  ",
"        s K!L!O 6 !!, g M!' N!t O!P!Q!E!E!F!R!S!&!%!P!'!T!U!V!  ",
"      I W!i N 7!X!( p Y! !` _ E!Z!,  !e [!! ]!! ^!! %!! M _!`!a!",
"      Q q Q a b!c 4!c!d!P!O 4!8!e!P!% a 0!M!f!8!%!P!g!8!A!Z c!h!",
"      Z i!j!k!T b!t !!%!A!5 d!( G!R!5!l!A k!m!s ! 6!n!6!% o!9!p!",
"      K 9 q!r!s!i!7!t!l!p u!X!v!% F!! E!w!w x!$!`!8![!G!n A W!y!",
"      y!z!K!p!{!c 7!h n!l!H ] ?!`!O!! 8!3!F!P!!!l!& &!' U <!|!I ",
"      }!i!{!. :!3 9!e | ~!)!h $!A ! F!! t!6!! #!' % t! #!###5 $#",
"        p ~ > { ; W R -!I %#_ &#S E!! &!p R!8!! P!&!'#(#W!)#A!  ",
"      *#O u K +#@ 1 Q B ,#-#$#$#{ 5 R!! s ! ^!8!P!' '#^ L 3 9!  ",
"    %#R a !#k! #+#,#.#l ,#I 0#T!Q <!@!! Q!]!F!1#Z!2#3#_!2!e!.   ",
"    ? 1!4#^ k!V!5#6#- &#-!k k!7#Y!i!!#[!v &!&!f!n <!)!M!%!h %#  ",
"  0#M!4#3 ~!} x 1#l!8#%#h!}!2#G!`!M!9#k!v!& b `!!#v!`!M!g!R     ",
"  $#:#. H _ ;#P![!a 9#i N : <#+!a )!u!. 5#&#S 8!e!E!1!@!v y!    ",
"      < .!H!T ( s!F ~!_!f k!@!r!+ - |!'#(!=#m 2#n!&!2!5!Z!I     ",
"      =!Y W H!| U!a S 5#P H!N .!i U!8 $!L!8 H!9 ~ ^!U!d!s >#    ",
"?#?#?#?#?#?#?#?#?#?#?#?#?#?#?#?#?#?#?#?#?#?#?#?#?#?#?#?#?#?#?#?#",
"?#?#?#?#?#@#@#@#?#?#@#?#?#@#@#@#?#?#@#@#?#?#@#?#?#?#@#?#?#?#?#?#",
"?#?#?#?#?#@#?#?#@#?#@#?#@#?#?#?#?#@#?#?#@#?#@#@#?#@#@#?#?#?#?#?#",
"?#?#?#?#?#@#?#?#@#?#@#?#@#?#?#?#?#@#?#?#@#?#@#?#@#?#@#?#?#?#?#?#",
"?#?#?#?#?#@#?#?#@#?#@#?#@#?#?#?#?#@#?#?#@#?#@#?#?#?#@#?#?#?#?#?#",
"?#?#?#?#?#@#@#@#?#?#@#?#?#@#@#@#?#?#@#@#?#?#@#?#?#?#@#?#?#?#?#?#",
"?#?#?#?#?#?#?#?#?#?#?#?#?#?#?#?#?#?#?#?#?#?#?#?#?#?#?#?#?#?#?#?#"};