/* XPM */ 
static char * smiley_xpm[] = {
"16 16 187 2",
"  	c None",
"! 	c black",
"# 	c #D7D5D0",
"$ 	c #BFBBA4",
"% 	c #B7B598",
"& 	c #BEBBA5",
"' 	c #DAD6D2",
"( 	c #E4E3DC",
") 	c #CBC69E",
"* 	c #CFCD7B",
"+ 	c #DDDD74",
", 	c #E3E375",
"- 	c #DEDD73",
". 	c #CFCC7F",
"0 	c #CAC9A1",
"1 	c #E8E7DF",
"2 	c #D7D3C2",
"3 	c #CCCB7A",
"4 	c #F0EE72",
"5 	c #FDFB73",
"6 	c #FFFD73",
"7 	c #FFFC76",
"8 	c #FFFB77",
"9 	c #FCFA77",
": 	c #EFEE74",
"; 	c #CAC881",
"< 	c #DDDDD2",
"= 	c #D8D6C9",
"> 	c #D3CF71",
"? 	c #FAFA73",
"@ 	c #FCFD75",
"A 	c #FDFD75",
"B 	c #FFFC73",
"C 	c #FEFB74",
"D 	c #FCFC75",
"E 	c #F7F772",
"F 	c #C9C880",
"G 	c #E7E6DF",
"H 	c #E7E7E4",
"I 	c #C5C17C",
"J 	c #FAF66D",
"K 	c #FEFB70",
"L 	c #FDFC70",
"M 	c #F6F36E",
"N 	c #EFEB6C",
"O 	c #F6F26F",
"P 	c #A9A34D",
"Q 	c #E5E167",
"R 	c #FDFC72",
"S 	c #FEFC76",
"T 	c #EDEC70",
"U 	c #C7C5A0",
"V 	c #BAB99E",
"W 	c #E2DF69",
"X 	c #FFFA6F",
"Y 	c #FFF96C",
"Z 	c #FFFD6D",
"[ 	c #B4AD4F",
"] 	c #6A6331",
"^ 	c #E7E566",
"_ 	c #57552F",
"` 	c #B5B153",
"a 	c #FFFD70",
"b 	c #FFFA74",
"c 	c #FDFA76",
"d 	c #CCCB7D",
"e 	c #DEDCD7",
"f 	c #D6D6D6",
"g 	c #A4A46F",
"h 	c #F9F66E",
"i 	c #FFF971",
"j 	c #FFFC74",
"k 	c #C1BD5D",
"l 	c #75733C",
"m 	c #F1F06E",
"n 	c #D8D968",
"o 	c #E8E66E",
"p 	c #FDF975",
"q 	c #FEFB77",
"r 	c #DEDC76",
"s 	c #C4C1B1",
"t 	c #A7A5A2",
"u 	c #AAA85D",
"v 	c #FDFA70",
"w 	c #F0EB6D",
"x 	c #FBF871",
"y 	c #FFFB76",
"z 	c #FBF775",
"{ 	c #F6F272",
"| 	c #FCFA76",
"} 	c #FDFE79",
"~ 	c #FDFD78",
" !	c #FBFB78",
"!!	c #ECEA6E",
"#!	c #FDF976",
"$!	c #E5E176",
"%!	c #BEB9A9",
"&!	c #908B87",
"'!	c #ADA754",
"(!	c #FAF76C",
")!	c #C7BF5A",
"*!	c #E5E266",
"+!	c #FFF973",
",!	c #FFFA70",
"-!	c #FEFA74",
".!	c #FDFB79",
"0!	c #FEFC79",
"1!	c #E1DE6C",
"2!	c #D8D36A",
"3!	c #FEFD78",
"4!	c #E0DD76",
"5!	c #C1BEB3",
"6!	c #9D9999",
"7!	c #979450",
"8!	c #FEFA6D",
"9!	c #F7F270",
":!	c #CEC85B",
";!	c #D8D35E",
"<!	c #F8F36B",
"=!	c #FFFB6F",
">!	c #FFFA75",
"?!	c #FAF476",
"@!	c #D5CF63",
"A!	c #BAB559",
"B!	c #F2F070",
"C!	c #CECD7D",
"D!	c #D9D9D6",
"E!	c #CDCDCE",
"F!	c #7A7957",
"G!	c #EFEB6A",
"H!	c #F7F36D",
"I!	c #CDC85C",
"J!	c #B3AE52",
"K!	c #BFBA54",
"L!	c #C3BD55",
"M!	c #B2AB51",
"N!	c #BBB659",
"O!	c #F1EE74",
"P!	c #F3EF74",
"Q!	c #C6C29A",
"R!	c #8E8C89",
"S!	c #AFAB50",
"T!	c #FFF96D",
"U!	c #FFFA6E",
"V!	c #F1ED69",
"W!	c #DCD863",
"X!	c #D9D963",
"Y!	c #ECE96C",
"Z!	c #FEF96F",
"[!	c #FDF974",
"]!	c #D1CC70",
"^!	c #DFDED4",
"_!	c #DADADB",
"`!	c #706C52",
"a!	c #D2CE5D",
"b!	c #FFFC6F",
"c!	c #FEF96D",
"d!	c #FFFA72",
"e!	c #FFFB70",
"f!	c #FEFA71",
"g!	c #FDF96F",
"h!	c #D8D370",
"i!	c #CFCCB7",
"j!	c #C7C8C8",
"k!	c #716F50",
"l!	c #B9B450",
"m!	c #F5F166",
"n!	c #FFFB71",
"o!	c #FFFB73",
"p!	c #FBFA70",
"q!	c #EEEB69",
"r!	c #CDCA74",
"s!	c #D1D0BB",
"t!	c #DAD9DA",
"u!	c #8C8983",
"v!	c #858257",
"w!	c #A8A257",
"x!	c #BFB95B",
"y!	c #C0BA63",
"z!	c #B7B46E",
"{!	c #C3BF9F",
"|!	c #E4E4DD",
"}!	c #D1D3DA",
"~!	c #A1A2A8",
" #	c #979996",
"!#	c #ADAFB0",
"##	c #DADCE1",
"            # $ % & '           ",
"        ( ) * + , - . 0 1       ",
"      2 3 4 5 6 7 8 9 : ; <     ",
"    = > ? @ A B C 7 C D E F G   ",
"  H I J K L M N O P Q R S T U   ",
"  V W X Y Z [ ] ^ _ ` a b c d e ",
"f g h X i j k l m n o 5 p q r s ",
"t u v w x y z { | } ~  !!!#!$!%!",
"&!'!(!)!*!B +!,!-!.!0!1!2!3!4!5!",
"6!7!8!9!:!;!<!=!>!?!@!A!B!S C!D!",
"E!F!G!X H!I!J!K!L!M!N!O!8 P!Q!  ",
"  R!S!=!T!U!V!W!X!Y!Z!8 [!]!^!  ",
"  _!`!a!b!c!U!d!e!f!f!g!h!i!    ",
"    j!k!l!m!e!n!o!p!q!r!s!      ",
"      t!u!v!w!x!y!z!{!|!        ",
"          }!~! #!###            "};