/* XPM */ 
static char * smiley_bw_xpm[] = {
"16 16 80 1",
" 	c None",
"!	c black",
"#	c #D4D4D4",
"$	c #B4B4B4",
"%	c #ACACAC",
"&	c #D6D6D6",
"'	c #E1E1E1",
"(	c #BABABA",
")	c #B2B2B2",
"*	c #BEBEBE",
"+	c #B3B3B3",
",	c #BCBCBC",
"-	c #E4E4E4",
".	c #CECECE",
"0	c #B0B0B0",
"1	c #C5C5C5",
"2	c #CFCFCF",
"3	c #D0D0D0",
"4	c #B1B1B1",
"5	c #D9D9D9",
"6	c #D2D2D2",
"7	c #CDCDCD",
"8	c #CACACA",
"9	c #E6E6E6",
":	c #ABABAB",
";	c #C9C9C9",
"<	c #C7C7C7",
"=	c #C2C2C2",
">	c #888888",
"?	c #B9B9B9",
"@	c #C3C3C3",
"A	c #B8B8B8",
"B	c #CCCCCC",
"C	c #909090",
"D	c #545454",
"E	c #BBBBBB",
"F	c #494949",
"G	c #939393",
"H	c #DBDBDB",
"I	c #929292",
"J	c #9E9E9E",
"K	c #616161",
"L	c #A4A4A4",
"M	c #8F8F8F",
"N	c #C8C8C8",
"O	c #D1D1D1",
"P	c #C1C1C1",
"Q	c #B5B5B5",
"R	c #8B8B8B",
"S	c #8D8D8D",
"T	c #A0A0A0",
"U	c #9A9A9A",
"V	c #7E7E7E",
"W	c #A5A5A5",
"X	c #ADADAD",
"Y	c #989898",
"Z	c #C6C6C6",
"[	c #D8D8D8",
"]	c #6E6E6E",
"^	c #919191",
"_	c #999999",
"`	c #9C9C9C",
"a	c #B6B6B6",
"b	c #8E8E8E",
"c	c #C0C0C0",
"d	c #AFAFAF",
"e	c #DADADA",
"f	c #646464",
"g	c #A9A9A9",
"h	c #656565",
"i	c #949494",
"j	c #C4C4C4",
"k	c #AEAEAE",
"l	c #747474",
"m	c #9B9B9B",
"n	c #9F9F9F",
"o	c #9D9D9D",
"p	c #A3A3A3",
"q	c #979797",
"r	c #DDDDDD",
"      #$%$&     ",
"    '()(*(+,-   ",
"   .01.2332145  ",
"  647222232280- ",
" 9:;77<=<>?.3@? ",
" 0A7B7CDEFG.224H",
"&I;772JK1+*..3(,",
"LM7=B37N.O32P.*Q",
"RS;T?2.7.3O?4OEE",
"UVBNWX<72BXYZ3)[",
"7]P7<W^_`MYZ3<a ",
" Rb7B7=)4cB3.dH ",
" efg.B7..77B+Z  ",
"  <hij..2Bck;   ",
"   5>lRmnoQ'    ",
"     #pqkr      "};