/* XPM */ 
static const char * ssd_xpm[] = {
"32 32 164 2",
"  	c None",
"! 	c #0A0A0A",
"# 	c #0C0C0C",
"$ 	c #131313",
"% 	c #0B0B0B",
"& 	c #090909",
"' 	c #0F0F0F",
"( 	c #070707",
") 	c #101010",
"* 	c #212121",
"+ 	c #555555",
", 	c #797979",
"- 	c #5A5A5A",
". 	c #0E0E0E",
"0 	c #0D0D0D",
"1 	c #030303",
"2 	c #323232",
"3 	c #696969",
"4 	c #777777",
"5 	c #7B7B7B",
"6 	c #717171",
"7 	c #898989",
"8 	c #989898",
"9 	c #9E9E9E",
": 	c #A4A4A4",
"; 	c #6B6B6B",
"< 	c #1A1A1A",
"= 	c #505050",
"> 	c #6E6E6E",
"? 	c #656565",
"@ 	c #7D7D7D",
"A 	c #7A7A7A",
"B 	c #828282",
"C 	c #6C6C6C",
"D 	c #8D8D8D",
"E 	c #929292",
"F 	c #AEAEAE",
"G 	c #ADADAD",
"H 	c #666666",
"I 	c #282828",
"J 	c #3F3F3F",
"K 	c #9B9B9B",
"L 	c #727272",
"M 	c #8E8E8E",
"N 	c #949494",
"O 	c #909090",
"P 	c #959595",
"Q 	c #5D5D5D",
"R 	c #767676",
"S 	c #888888",
"T 	c #2E2E2E",
"U 	c #8F8F8F",
"V 	c #787878",
"W 	c #7F7F7F",
"X 	c #858585",
"Y 	c #8A8A8A",
"Z 	c #B5B5B5",
"[ 	c #5E5E5E",
"] 	c #626262",
"^ 	c #737373",
"_ 	c #A3A3A3",
"` 	c #868686",
"a 	c #A0A0A0",
"b 	c #AFAFAF",
"c 	c #979797",
"d 	c #9F9F9F",
"e 	c #A2A2A2",
"f 	c #C3C3C3",
"g 	c #B9B9B9",
"h 	c #B0B0B0",
"i 	c #333333",
"j 	c #A7A7A7",
"k 	c #A6A6A6",
"l 	c #919191",
"m 	c #B3B3B3",
"n 	c #B4B4B4",
"o 	c #A1A1A1",
"p 	c #C2C2C2",
"q 	c #BCBCBC",
"r 	c #CECECE",
"s 	c #9C9C9C",
"t 	c #111111",
"u 	c #050505",
"v 	c #5B5B5B",
"w 	c #A9A9A9",
"x 	c #BDBDBD",
"y 	c #C5C5C5",
"z 	c #ACACAC",
"{ 	c #BEBEBE",
"| 	c #9A9A9A",
"} 	c #878787",
"~ 	c #232323",
" !	c #7E7E7E",
"!!	c #515151",
"#!	c #585858",
"$!	c #808080",
"%!	c #8C8C8C",
"&!	c #C1C1C1",
"'!	c #A8A8A8",
"(!	c #BABABA",
")!	c #C4C4C4",
"*!	c #D0D0D0",
"+!	c #ABABAB",
",!	c #707070",
"-!	c #969696",
".!	c #838383",
"0!	c #BBBBBB",
"1!	c #BFBFBF",
"2!	c #999999",
"3!	c #B8B8B8",
"4!	c #CBCBCB",
"5!	c #C8C8C8",
"6!	c #939393",
"7!	c #080808",
"8!	c #B1B1B1",
"9!	c #CACACA",
":!	c #B6B6B6",
";!	c #2B2B2B",
"<!	c #444444",
"=!	c #757575",
">!	c #848484",
"?!	c #010101",
"@!	c #4D4D4D",
"A!	c #B2B2B2",
"B!	c #CCCCCC",
"C!	c #565656",
"D!	c #6A6A6A",
"E!	c #DBDBDB",
"F!	c #383838",
"G!	c #424242",
"H!	c #676767",
"I!	c #7C7C7C",
"J!	c #D5D5D5",
"K!	c #6F6F6F",
"L!	c #AAAAAA",
"M!	c #1C1C1C",
"N!	c #5F5F5F",
"O!	c #D4D4D4",
"P!	c #D1D1D1",
"Q!	c #D7D7D7",
"R!	c #CFCFCF",
"S!	c #C0C0C0",
"T!	c #C7C7C7",
"U!	c #343434",
"V!	c #B7B7B7",
"W!	c #606060",
"X!	c #9D9D9D",
"Y!	c #171717",
"Z!	c #272727",
"[!	c #CDCDCD",
"]!	c #D2D2D2",
"^!	c #252525",
"_!	c #A5A5A5",
"`!	c #5C5C5C",
"a!	c #8B8B8B",
"b!	c #818181",
"c!	c #040404",
"d!	c #686868",
"e!	c #060606",
"f!	c #222222",
"g!	c #434343",
"h!	c #747474",
"i!	c #6D6D6D",
"j!	c #404040",
"! ! ! ! ! ! ! ! ! ! ! ! ! ! ! ! ! ! ! ! ! ! ! ! ! ! ! ! ! ! ! ! ",
"! # $ ! ! ! ! ! ! ! ! ! ! ! ! ! % & # & & ! % ! ! ! ! ! ! ! ! ! ",
"! ' ( ! ! ! ! ! ! ! ! ! ! ! & ) % * + , - ' . 0 ! ! ! ! ! ! ! ! ",
"! ' 1 ! ! ! ! ! ! ! ! ! ! ! 2 3 4 5 6 7 8 9 : ; ! ! ! ! ! ! ! ! ",
"! % & ! ! ! ! ! ! ! & < = > ? @ A B C D E F G H I & ! ! ! ! ! ! ",
"! ! ! ! ! ! ! ! % ( J K H L M N O P 8 Q N N R S 3 & ! ! ! ! ! ! ",
"! ! ! ! ! ! ! ! T > 7 U V W E N @ X 9 Y X K Z [ L ! ! ! ! ! ! ! ",
"! ! ! ! ! ! ! ! ] ^ : O U _ ` a b c d e f D 9 g h & ! ! ! ! ! ! ",
"! ! ! ! ! ( i C W b _ j k b l m n o M p q S r 9 s t ! t & 0 0 ! ",
"! ! ! ! ! u v R 7 : 7 P s a m Z w p x y q z { | } ) . ~  !Y !!! ",
"! ! ! & u #!V $!%!F W : o G n &!M '!h (!)!*!+!,!7 ] x -!p - w ! ",
"! ! ! ! T 4 .!l G 0!$!m 1!2!m 3!Z 4!g y 5!j 7 6!@ 9 : B . 7!7!! ",
"! ! ! ( 3 5 U U 8!P P z m 0!0!{ 9!m p p g D $!B ,!(!3!# % # ! ! ",
"! ! ! ~  ! !D K K j :!Y F h h | 6!B N $!9 N | -!1!'!;!t ! ! ! ! ",
"! 7!& <!V $!` 7 c 6!k 8!x Z =!R 6!R ` S S L S >!{ 3 ! ! ! ! ! ! ",
"! ! ?!@!L E .!| a b m x A!B!&!&!> ] 4 g G E  !y C!% ! ! ! ! ! ! ",
"! % $ D!4 K c >!_ K x q )!E!*!0!w C =!N e a p g F!0 ! ! ! ! ! ! ",
"! % G!H!I!l 2!e '!q (!r r 5!J!B!(!K!>!N L!8 V P } M!! ! ! ! ! ! ",
"! . [ N!` ` | s b x b f O!P!j Q!R!6!6!K $!A E ' & % ! ! ! ! ! ! ",
"! % D!K!7 U 6!G Z { p q 4!P!J!S!g A!? ` s > % ! & % ! ! ! ! ! ! ",
"! 0 + L M S 2!s b q G T!9!4!)!S!5!'!> a B L 1 ! ! ! ! ! ! ! ! ! ",
"! 7!U!C >!s P -!k a V!3!q S!3!Z d 7 A D 4!%!) ! ! ! ! ! ! ! ! ! ",
"! & 0 W! !.!8 | U X!h 7 (!z w d A 3 M ? 8!6!! ! ! ! ! ! ! ! ! ! ",
"! ! ! Y!H!B .!E _ { 5!R!r 5!q q O!5!g L!b I!= ! Z!7!! ! ! ! ! ! ",
"! ! ! 7!2 H!=!U G :!g &!g 0![!]![!p 1!{ 8! !? & ! ! ! ! ! ! ! ! ",
"! ! ! % 7!^!K!.!S U X F m { 1!B!9!1!Z b _!>!K!% ! ! ! ! ! ! ! ! ",
"! ! ! ! ! # % `!.!a!N N 9 '!:!1!3!9 n 6!U S V ! ! ! ! ! ! ! ! ! ",
"! . ! ! ! ! ! % H!, b!_ G { g { 3!{ G -!9 S H ! ! ! ! ! ! ! ! ! ",
"! ! ! ! ! ! ! ! c!d!b!S Y e k V!A!A!d a!U ; e!! ! ! ! ! ! ! ! ! ",
"! ! ! ! ! ! ! ! 7!7!J W D!} D ` M %!.!L a!f!& ! ! ! ! ! ! ! ! ! ",
"! ! ! ! ! ! ! ! ! ! % # g!h!^ i!5 b!$!d!j!! ! ! ! ! ! ! ! ! ! ! ",
"! ! ! ! ! ! ! ! ! ! ! ! ! ! ! ! ! ! ! ! ! ! ! ! ! ! ! ! ! ! ! ! "};