/* XPM */ 
static const char * volume_rend_xpm[] = {
"32 32 643 2",
"  	c None",
"! 	c #979DFC",
"# 	c #959BFB",
"$ 	c #9398FA",
"% 	c #9196FA",
"& 	c #8E93F9",
"' 	c #8C90F8",
"( 	c #8A8EF7",
") 	c #878CF6",
"* 	c #8589F6",
"+ 	c #8387F5",
", 	c #8184F4",
"- 	c #7F82F3",
". 	c #7C7FF2",
"0 	c #7A7DF1",
"1 	c #787AF1",
"2 	c #7678F0",
"3 	c #7475EF",
"4 	c #7173EE",
"5 	c #6F71ED",
"6 	c #6D6EED",
"7 	c #6A6BEC",
"8 	c #6869EB",
"9 	c #6666EA",
": 	c #6464E9",
"; 	c #6262E9",
"< 	c #605FE8",
"= 	c #5E5DE7",
"> 	c #5B5AE6",
"? 	c #5957E5",
"@ 	c #5755E4",
"A 	c #5453E4",
"B 	c #5250E3",
"C 	c black",
"D 	c #010000",
"E 	c #261911",
"F 	c #FFE8BF",
"G 	c #F0CFAC",
"H 	c #EDC6A5",
"I 	c #E2B596",
"J 	c #C99C7D",
"K 	c #CFA082",
"L 	c #C28F72",
"M 	c #B2765C",
"N 	c #AC6F53",
"O 	c #C49B7B",
"P 	c #D7AA89",
"Q 	c #916E58",
"R 	c #AA907F",
"S 	c #271A09",
"T 	c #18110B",
"U 	c #504EE2",
"V 	c #96846E",
"W 	c #F9DFBA",
"X 	c #DFB897",
"Y 	c #D9AE8E",
"Z 	c #C59A7A",
"[ 	c #C79477",
"] 	c #C38D71",
"^ 	c #B38063",
"_ 	c #AC7459",
"` 	c #C89777",
"a 	c #CDA486",
"b 	c #CB9D7C",
"c 	c #CFA285",
"d 	c #DEB796",
"e 	c #DAB694",
"f 	c #D8AD8D",
"g 	c #E2C1A0",
"h 	c #F6DEB8",
"i 	c #EBDABC",
"j 	c #4E4BE1",
"k 	c #020001",
"l 	c #F4DFC0",
"m 	c #EDD3B0",
"n 	c #DEB595",
"o 	c #D5A889",
"p 	c #BD876B",
"q 	c #BA8468",
"r 	c #B88065",
"s 	c #A86F54",
"t 	c #B87C62",
"u 	c #B88266",
"v 	c #B9856D",
"w 	c #B68066",
"x 	c #AF7D62",
"y 	c #A56F57",
"z 	c #B27C60",
"{ 	c #BF8E70",
"| 	c #D4A989",
"} 	c #C89B7C",
"~ 	c #C7A081",
" !	c #E0C29E",
"!!	c #FCE2BF",
"#!	c #4C49E1",
"$!	c #000100",
"%!	c #050100",
"&!	c #FBE3C1",
"'!	c #E7CAA8",
"(!	c #DDB592",
")!	c #D09F81",
"*!	c #B17960",
"+!	c #BA8269",
",!	c #B4745B",
"-!	c #B17156",
".!	c #BA775D",
"0!	c #CF9273",
"1!	c #B67D60",
"2!	c #BD8064",
"3!	c #B57D64",
"4!	c #A97357",
"5!	c #A86E56",
"6!	c #C08A6E",
"7!	c #CC9D7F",
"8!	c #CB9C7E",
"9!	c #C29F7F",
":!	c #D6B798",
";!	c #F0DAB5",
"<!	c #020100",
"=!	c #4946E0",
">!	c #FDE5C3",
"?!	c #EED4B3",
"@!	c #E5BD9A",
"A!	c #D7A283",
"B!	c #BA7E64",
"C!	c #B57D62",
"D!	c #BC8066",
"E!	c #CF9379",
"F!	c #BE7A63",
"G!	c #C27B5F",
"H!	c #CA896B",
"I!	c #C07F61",
"J!	c #BF8668",
"K!	c #B4725C",
"L!	c #9F6250",
"M!	c #BE8D6F",
"N!	c #D8A787",
"O!	c #E1BE9E",
"P!	c #CAA88C",
"Q!	c #E9D3AE",
"R!	c #4744DF",
"S!	c #070302",
"T!	c #F7E0C0",
"U!	c #FAE1B9",
"V!	c #F3D1AC",
"W!	c #EEBC99",
"X!	c #D29F80",
"Y!	c #B5785C",
"Z!	c #B3775D",
"[!	c #C88C72",
"]!	c #D79E83",
"^!	c #CD977B",
"_!	c #C37D64",
"`!	c #B67057",
"a!	c #BC8064",
"b!	c #B57559",
"c!	c #A16857",
"d!	c #A16D58",
"e!	c #AE846C",
"f!	c #C9A084",
"g!	c #D6BA95",
"h!	c #CDB295",
"i!	c #DFCCAB",
"j!	c #000102",
"k!	c #4541DE",
"l!	c #060201",
"m!	c #473624",
"n!	c #FCE4BE",
"o!	c #ECD0AB",
"p!	c #D3A584",
"q!	c #C78A6D",
"r!	c #9E5340",
"s!	c #98513B",
"t!	c #9D5942",
"u!	c #BA7A61",
"v!	c #A66047",
"w!	c #CC997E",
"x!	c #E1B696",
"y!	c #ECC4A0",
"z!	c #F2CEAC",
"{!	c #E7C0A1",
"|!	c #DDB999",
"}!	c #DAB797",
"~!	c #EFCCAC",
" #	c #D6B997",
"!#	c #D6BF9D",
"##	c #F2DBB9",
"$#	c #000105",
"%#	c #433FDD",
"&#	c #040000",
"'#	c #FCE3BB",
"(#	c #ECD2AF",
")#	c #EBC8A8",
"*#	c #DDA487",
"+#	c #BD8A6F",
",#	c #CD957A",
"-#	c #AB6D54",
".#	c #A6684F",
"0#	c #C0846A",
"1#	c #F9CDA8",
"2#	c #F5D5AF",
"3#	c #DCB999",
"4#	c #CFA68A",
"5#	c #C19E82",
"6#	c #CDA98F",
"7#	c #CAB095",
"8#	c #BDA990",
"9#	c #B5A083",
":#	c #B4947F",
";#	c #413CDC",
"<#	c #070506",
"=#	c #C1AB93",
">#	c #E5CDA9",
"?#	c #BB9882",
"@#	c #E1BEA2",
"A#	c #F9D7B2",
"B#	c #F3D1AE",
"C#	c #F6D2AE",
"D#	c #E2B492",
"E#	c #CFA283",
"F#	c #F7CFAB",
"G#	c #F8DFB6",
"H#	c #CBA483",
"I#	c #C09278",
"J#	c #E3BD98",
"K#	c #E0C1A2",
"L#	c #9E856F",
"M#	c #E0C8AC",
"N#	c #B79D82",
"O#	c #1B0900",
"P#	c #3E3ADC",
"Q#	c #000200",
"R#	c #0F0100",
"S#	c #F0D9B9",
"T#	c #CDAE8F",
"U#	c #DFC2A4",
"V#	c #F2D4B0",
"W#	c #F8E0BA",
"X#	c #F9DDB8",
"Y#	c #FDE0BE",
"Z#	c #F5D1AD",
"[#	c #F1D7B6",
"]#	c #F3DBB5",
"^#	c #D5B095",
"_#	c #977458",
"`#	c #543226",
"a#	c #4F3222",
"b#	c #9C846A",
"c#	c #DEC5A7",
"d#	c #B9A187",
"e#	c #0E0202",
"f#	c #3C38DB",
"g#	c #050102",
"h#	c #0D0101",
"i#	c #1A0D05",
"j#	c #8A6A5B",
"k#	c #3C261B",
"l#	c #90745E",
"m#	c #D8C09E",
"n#	c #7C5745",
"o#	c #CDA989",
"p#	c #E5B99E",
"q#	c #AD8772",
"r#	c #C0A286",
"s#	c #ECD5B5",
"t#	c #8E6756",
"u#	c #AE8A72",
"v#	c #401F16",
"w#	c #674B40",
"x#	c #AD927F",
"y#	c #DBC8A7",
"z#	c #D3B998",
"{#	c #0C0401",
"|#	c #000002",
"}#	c #3A35DA",
"~#	c #070304",
" $	c #0A0000",
"!$	c #0A0002",
"#$	c #5A4C3F",
"$$	c #D7B494",
"%$	c #DFC39C",
"&$	c #AE8370",
"'$	c #F1B99E",
"($	c #E5B091",
")$	c #CCA78A",
"*$	c #AD9179",
"+$	c #DBC3A1",
",$	c #BE9F83",
"-$	c #E9C8A7",
".$	c #B19C81",
"0$	c #806957",
"1$	c #6A5343",
"2$	c #A48F7E",
"3$	c #3732D9",
"4$	c #030000",
"5$	c #090000",
"6$	c #060000",
"7$	c #080000",
"8$	c #1E0602",
"9$	c #83644F",
":$	c #B79C81",
";$	c #AE8E75",
"<$	c #DBAE8F",
"=$	c #D6A793",
">$	c #765141",
"?$	c #CBB095",
"@$	c #E3C9A8",
"A$	c #926955",
"B$	c #DFBE9D",
"C$	c #D3B698",
"D$	c #806458",
"E$	c #5B4839",
"F$	c #35261F",
"G$	c #120403",
"H$	c #020200",
"I$	c #3530D8",
"J$	c #37190F",
"K$	c #A17C62",
"L$	c #DABC9A",
"M$	c #D5B296",
"N$	c #E7BEA0",
"O$	c #C7A88C",
"P$	c #7D5345",
"Q$	c #9E7865",
"R$	c #AD8875",
"S$	c #7B5646",
"T$	c #EECDAC",
"U$	c #EFD2B0",
"V$	c #CFB195",
"W$	c #C8AE8D",
"X$	c #0F0504",
"Y$	c #0E0402",
"Z$	c #0D0707",
"[$	c #332DD8",
"]$	c #060203",
"^$	c #0E0000",
"_$	c #180300",
"`$	c #DAB99A",
"a$	c #C6AB8D",
"b$	c #D0A88F",
"c$	c #DFB291",
"d$	c #D7B297",
"e$	c #230000",
"f$	c #673127",
"g$	c #5D3229",
"h$	c #77513E",
"i$	c #E6BA9F",
"j$	c #CDAB90",
"k$	c #C8AB8D",
"l$	c #D7BDA2",
"m$	c #050000",
"n$	c #312BD7",
"o$	c #120000",
"p$	c #110000",
"q$	c #140000",
"r$	c #BDA284",
"s$	c #9E7C61",
"t$	c #C7A285",
"u$	c #D9AD90",
"v$	c #D9B895",
"w$	c #623E32",
"x$	c #5A2418",
"y$	c #210000",
"z$	c #160100",
"{$	c #EDBA9B",
"|$	c #D3AB92",
"}$	c #7D6759",
"~$	c #8D7261",
" %	c #0C0203",
"!%	c #2F29D6",
"#%	c #030102",
"$%	c #0C0000",
"%%	c #0D0000",
"&%	c #130000",
"'%	c #30110C",
"(%	c #D5B699",
")%	c #9E8066",
"*%	c #C8A68A",
"+%	c #DEBA9A",
",%	c #B99A7E",
"-%	c #956654",
".%	c #582921",
"0%	c #492B20",
"1%	c #F3CEB1",
"2%	c #D3AE91",
"3%	c #513527",
"4%	c #B0917D",
"5%	c #1A130D",
"6%	c #2D26D5",
"7%	c #0B0102",
"8%	c #0C0002",
"9%	c #120202",
":%	c #43221B",
";%	c #E3C5A3",
"<%	c #B3937C",
"=%	c #B8967D",
">%	c #AB8D73",
"?%	c #BFA58A",
"@%	c #CFB18F",
"A%	c #9D7D68",
"B%	c #745543",
"C%	c #AA9075",
"D%	c #D2B593",
"E%	c #EAD1A9",
"F%	c #DAC5A6",
"G%	c #57463C",
"H%	c #010302",
"I%	c #2A24D4",
"J%	c #0A0200",
"K%	c #090001",
"L%	c #170000",
"M%	c #3B190F",
"N%	c #C9AA8D",
"O%	c #5E3926",
"P%	c #906A53",
"Q%	c #C89F7F",
"R%	c #AD8A76",
"S%	c #866D57",
"T%	c #C3A583",
"U%	c #B49880",
"V%	c #9A7F6C",
"W%	c #F0D4AD",
"X%	c #EED4AF",
"Y%	c #100200",
"Z%	c #090305",
"[%	c #2821D4",
"]%	c #0B0000",
"^%	c #200100",
"_%	c #6F473D",
"`%	c #845F4C",
"a%	c #B79677",
"b%	c #B08E75",
"c%	c #AC7E66",
"d%	c #D6A88E",
"e%	c #6A4034",
"f%	c #31160F",
"g%	c #D0B59A",
"h%	c #C5A68A",
"i%	c #B69C81",
"j%	c #C4AD8E",
"k%	c #E6D0AB",
"l%	c #F0D7AF",
"m%	c #261ED3",
"n%	c #060100",
"o%	c #0B0100",
"p%	c #190100",
"q%	c #BE9A82",
"r%	c #B2937E",
"s%	c #A4816E",
"t%	c #BD937A",
"u%	c #A37A64",
"v%	c #240100",
"w%	c #2F2019",
"x%	c #674A3C",
"y%	c #6B473B",
"z%	c #5C4235",
"{%	c #9E8C78",
"|%	c #D6C0A8",
"}%	c #C6B7A2",
"~%	c #231CD2",
" &	c #040003",
"!&	c #070001",
"#&	c #010100",
"$&	c #040001",
"%&	c #220B05",
"&&	c #775345",
"'&	c #714B38",
"(&	c #CEAC91",
")&	c #957964",
"*&	c #AA8774",
"+&	c #CEA285",
",&	c #A27965",
"-&	c #431811",
".&	c #301005",
"0&	c #6C5543",
"1&	c #472B20",
"2&	c #211AD1",
"3&	c #010101",
"4&	c #1B0C07",
"5&	c #452D23",
"6&	c #55443C",
"7&	c #18100D",
"8&	c #37261F",
"9&	c #3C2D2A",
":&	c #D5BA9D",
";&	c #B99680",
"<&	c #D4AB8D",
"=&	c #E6B896",
">&	c #7A4938",
"?&	c #7C4E3F",
"@&	c #7D4E3C",
"A&	c #B29377",
"B&	c #5A382E",
"C&	c #100201",
"D&	c #1F17D0",
"E&	c #28241B",
"F&	c #BAA68D",
"G&	c #534032",
"H&	c #584C40",
"I&	c #0D0206",
"J&	c #3E312B",
"K&	c #AB8D75",
"L&	c #6C4C3D",
"M&	c #C59D83",
"N&	c #BC9375",
"O&	c #CFA187",
"P&	c #9E6A5C",
"Q&	c #2D0800",
"R&	c #371813",
"S&	c #705341",
"T&	c #5B362D",
"U&	c #1D15CF",
"V&	c #2C2723",
"W&	c #0E0301",
"X&	c #100300",
"Y&	c #3C251D",
"Z&	c #614136",
"[&	c #D9BEA1",
"]&	c #DABD9D",
"^&	c #947560",
"_&	c #A9836C",
"`&	c #D5AD93",
"a&	c #996454",
"b&	c #AE816C",
"c&	c #805B4B",
"d&	c #381E1D",
"e&	c #634841",
"f&	c #44281D",
"g&	c #000005",
"h&	c #544E42",
"i&	c #030104",
"j&	c #1B12CF",
"k&	c #070103",
"l&	c #100100",
"m&	c #110102",
"n&	c #876B5D",
"o&	c #7B5D53",
"p&	c #100000",
"q&	c #8E7360",
"r&	c #D0B393",
"s&	c #E8CBAB",
"t&	c #D6BB9E",
"u&	c #E5C8A6",
"v&	c #B68D79",
"w&	c #BD937D",
"x&	c #7F5847",
"y&	c #4C241A",
"z&	c #A5816B",
"{&	c #694C3E",
"|&	c #351E18",
"}&	c #050001",
"~&	c #DAC6A3",
" '	c #0F0C03",
"!'	c #1910CE",
"#'	c #0C0606",
"$'	c #160300",
"%'	c #250905",
"&'	c #846755",
"''	c #3E221E",
"('	c #452D29",
")'	c #79604C",
"*'	c #FEE4C1",
"+'	c #F6DDB5",
",'	c #F4D7B5",
"-'	c #F1D7B2",
".'	c #AF937B",
"0'	c #9B7C6A",
"1'	c #7B5A49",
"2'	c #9E7966",
"3'	c #381B13",
"4'	c #B29782",
"5'	c #4E3129",
"6'	c #0B0200",
"7'	c #605A4E",
"8'	c #C8B79D",
"9'	c #CAB797",
":'	c #170ECD",
";'	c #5C4233",
"<'	c #180500",
"='	c #3E3023",
">'	c #625044",
"?'	c #5E4C42",
"@'	c #7E664C",
"A'	c #FAE7BF",
"B'	c #FADEB9",
"C'	c #F6D2B2",
"D'	c #EEC9AC",
"E'	c #F9D1AE",
"F'	c #D7B79E",
"G'	c #89695A",
"H'	c #8A685C",
"I'	c #634430",
"J'	c #6A5446",
"K'	c #645045",
"L'	c #CEAD8C",
"M'	c #68483B",
"N'	c #735C4C",
"O'	c #B6A794",
"P'	c #0B0301",
"Q'	c #140BCC",
"R'	c #383129",
"S'	c #5B4F43",
"T'	c #302720",
"U'	c #2D241D",
"V'	c #292019",
"W'	c #85735F",
"X'	c #9A816B",
"Y'	c #B4917B",
"Z'	c #957560",
"['	c #EAC8A5",
"]'	c #D1AE92",
"^'	c #A98972",
"_'	c #9A7B67",
"`'	c #9D836C",
"a'	c #432C24",
"b'	c #87715C",
"c'	c #816951",
"d'	c #CFB497",
"e'	c #736356",
"f'	c #1208CB",
"g'	c #45423B",
"h'	c #5A5142",
"i'	c #272318",
"j'	c #3F3529",
"k'	c #6B5E4E",
"l'	c #756452",
"m'	c #BDA88D",
"n'	c #947E69",
"o'	c #AD8F75",
"p'	c #B49076",
"q'	c #A37F65",
"r'	c #8F6F58",
"s'	c #E3BF9B",
"t'	c #E0BD9D",
"u'	c #B69479",
"v'	c #9F8169",
"w'	c #513531",
"x'	c #665140",
"y'	c #9F8972",
"z'	c #AC8E76",
"{'	c #070000",
"|'	c #1006CB",
"}'	c #0E04CA",
"! # $ % & ' ( ) * + , - . 0 1 2 3 4 5 6 7 8 9 : ; < = > ? @ A B ",
"# C C C D D D E F G H I J K L M N O P P P P O O Q R S T C C C U ",
"$ C C C C C D V W X Y Z [ ] ^ _ ` a O b c P d e f g h i C C C j ",
"% C C C C C k l m n o p q r s t u v w x y z { | } ~  !!!C C C #!",
"& C C C C $!%!&!'!(!)!*!+!,!-!.!0!1!2!3!4!5!6!7!8!9!:!;!<!C C =!",
"' C C C C $!%!>!?!@!A!B!C!D!E!F!G!H!I!J!K!L!3!M!N!O!P!Q!D C C R!",
"( C C C C $!S!T!U!V!W!X!Y!Z![!]!^!_!`!a!b!c!d!e!f!g!h!i!j!C C k!",
") C C C C $!l!m!n!o!p!q!r!s!t!u!v!w!x!y!z!{!|!}!~! #!###$#C C %#",
"* C C C C $!&#l!'#(#)#*#+#[ ,#-#.#0#1#2#3#4#5#6#7#8#9#:#$!C C ;#",
"+ C C C C C D <#=#>#?#@#A#B#C#D#E#D#F#G#H#I#J#K#L#M#N#O#D C C P#",
", C C C C C k Q#R#S#T#U#V#W#X#Y#B#Z#[#]#^#_#`#a#b#c#d#e#D C C f#",
"- C C C C $!g#$!h#i#j#k#l#m#n#o#p#q#r#s#t#u#v#w#x#y#z#{#|#C C }#",
". C C C C $!~#C  $ $!$#$$$%$&$'$($)$*$+$,$-$.$0$1$z#2$$!C C C 3$",
"0 C C C C $!4$C 5$6$7$8$9$:$;$<$=$>$?$@$A$B$C$D$E$F$G$H$$!C C I$",
"1 C C C C $!g#$!5$5$4$J$K$L$M$N$O$P$Q$R$S$T$U$V$W$X$Y$Z$C C C [$",
"2 C C C C $!]$$! $^$^$_$`$a$b$c$d$e$f$g$h$i$j$k$l$m$6$$!C C C n$",
"3 C C C C $!%!k ^$o$p$q$r$s$t$u$v$w$x$y$z${$|$}$~$ %k C C C C !%",
"4 C C C C $!%!#%$%%%&%'%(%)%*%+%*$,%-%.%0%1%2%3%4%5%C C C C C 6%",
"5 C C C C <!g#6$7%8%9%:%;%<%=%H >%?%@%A%B%C%D%E%F%G%H%C C C C I%",
"6 C C C $!<!J%K%7%%%L%M%N%O%P%Q%R%S%T%U%U%V%W%X%Y%Z%C C C C C [%",
"7 C C 4$5$o$o$]%7$^%_%`%a%b%c%d%e%f%g%h%i%j%k%l%&#4$C C C C C m%",
"8 k n%5$o% $#%m$%%p%^$q%r%s%t%u%v%w%x%y%z%{%|%}%D D C C C C C ~%",
"9  &!&#&C m$&#$&%&&&'&(&)&*&+&,&-&.&0&1&e#k |#C C C C C C C C 2&",
": 3&4$4&5&6&7&%!8&9&:&:$;&<&=&>&?&@&A&B&C&k C C C C C C C C C D&",
"; E&F&G&H&7$I&J&V%K&L$L&M&N&O&P&Q&R&S&T&%%D C C C C C C C C C U&",
"< V&W&$%X&Y&Z&U%[&]&^&_&`&e!a&b&c&d&e&f&%%$&g&h&i&C C C C C C j&",
"= k&l&m&n&o&p&q&r&s&t&u&W$v&w&x&y&z&{&|&D }&D ~& 'C C C C C C !'",
"> #'$'%'&'''(')'m *'+','-'.'0'1'2'3'4'5'6'7'8'9'&#C C C C C C :'",
"? 5$;'<'='>'?'@'A'B'C'D'E'F'G'H'I'J'K'L'M'N'O'P'#%C C C C C C Q'",
"@ R'S'i&T'U'V'8#W'X'Y'Z'[']'^'_'`'a'b'c'd'e'$&7$%!<!$!C C C C f'",
"A g'h'i'j'k'l'm'n'o'p'q'r's't'u'v'w'x'K'y'z'{'S!7$&#C C C C C |'",
"B U j #!=!R!k!%#;#P#f#}#3$I$[$n$!%6%I%[%m%~%2&D&U&j&!':'Q'f'|'}'"};