/* XPM */ 
static const unsigned char * xfer_single_xpm[] = {
"16 16 17 1",
" 	c None",
"!	c #0000A0",
"#	c #1111A6",
"$	c #2222AD",
"%	c #3333B3",
"&	c #4444B9",
"'	c #5555C0",
"(	c #6666C6",
")	c #7777CC",
"*	c #8989D3",
"+	c #9A9AD9",
",	c #ABABE0",
"-	c #BCBCE6",
".	c #CDCDEC",
"0	c #DEDEF3",
"1	c #EFEFF9",
"2	c white",
"!#$%&'()*+,-.012",
"!#$%&'()*+,-.012",
"!#$%&'()*+,-.012",
"!#$%&'()*+,-.012",
"!#$%&'()*+,-.012",
"!#$%&'()*+,-.012",
"!#$%&'()*+,-.012",
"!#$%&'()*+,-.012",
"!#$%&'()*+,-.012",
"!#$%&'()*+,-.012",
"!#$%&'()*+,-.012",
"!#$%&'()*+,-.012",
"!#$%&'()*+,-.012",
"!#$%&'()*+,-.012",
"!#$%&'()*+,-.012",
"!#$%&'()*+,-.012"};