/* XPM */ 
static const unsigned char * xfer_multi_xpm[] = {
"16 16 65 1",
" 	c None",
"!	c #008000",
"#	c #11730F",
"$	c #22691C",
"%	c #33602A",
"&	c #445A37",
"'	c #555545",
"(	c #665251",
")	c #77505E",
"*	c #89516C",
"+	c #9A5378",
",	c #AB5685",
"-	c #BC5B91",
".	c #CD629D",
"0	c #DE6BA9",
"1	c #EF75B5",
"2	c #FF80C0",
"3	c #808080",
"4	c #778088",
"5	c #6F8091",
"6	c #668099",
"7	c #5E80A2",
"8	c #5580AA",
"9	c #4D80B3",
":	c #4480BB",
";	c #3B80C4",
"<	c #3380CD",
"=	c #2A80D5",
">	c #2280DE",
"?	c #1980E6",
"@	c #1180EF",
"A	c #0880F7",
"B	c #0080FF",
"C	c #8000FF",
"D	c #8800EE",
"E	c #9100DD",
"F	c #9900CC",
"G	c #A200BB",
"H	c #AA00AA",
"I	c #B30099",
"J	c #BB0088",
"K	c #C40076",
"L	c #CD0065",
"M	c #D50054",
"N	c #DE0043",
"O	c #E60032",
"P	c #EF0021",
"Q	c #F70010",
"R	c #FF0000",
"S	c #0080C0",
"T	c #1188C4",
"U	c #2291C8",
"V	c #3399CD",
"W	c #44A2D1",
"X	c #55AAD5",
"Y	c #66B3D9",
"Z	c #77BBDD",
"[	c #89C4E2",
"]	c #9ACDE6",
"^	c #ABD5EA",
"_	c #BCDEEE",
"`	c #CDE6F3",
"a	c #DEEFF7",
"b	c #EFF7FB",
"c	c white",
"!#$%&'()*+,-.012",
"!#$%&'()*+,-.012",
"!#$%&'()*+,-.012",
"!#$%&'()*+,-.012",
"3456789:;<=>?@AB",
"3456789:;<=>?@AB",
"3456789:;<=>?@AB",
"3456789:;<=>?@AB",
"CDEFGHIJKLMNOPQR",
"CDEFGHIJKLMNOPQR",
"CDEFGHIJKLMNOPQR",
"CDEFGHIJKLMNOPQR",
"STUVWXYZ[]^_`abc",
"STUVWXYZ[]^_`abc",
"STUVWXYZ[]^_`abc",
"STUVWXYZ[]^_`abc"};